<svg width="188" height="187" viewBox="0 0 188 187" fill="none" xmlns="http://www.w3.org/2000/svg">
<g filter="url(#filter0_dn_147_31)">
<g filter="url(#filter1_i_147_31)">
<path d="M18.689 137.4H169.01V148.301C169.01 154.31 167.017 160.333 162.133 163.835C129.847 186.979 48.5503 183.118 23.6952 163.015C19.9286 159.969 18.689 155.036 18.689 150.192V137.4Z" fill="#E5A635"/>
</g>
<path d="M170.905 135.506V148.301C170.905 154.663 168.795 161.39 163.237 165.375C154.867 171.375 143.446 175.546 130.758 178.153C118.047 180.765 103.937 181.832 90.0874 181.537C76.2382 181.242 62.598 179.584 50.8237 176.72C39.0925 173.866 29.0352 169.771 22.5034 164.488C18.0856 160.915 16.7944 155.275 16.7944 150.191V135.506H170.905Z" stroke="#7A3313" stroke-width="3.7896"/>
<g filter="url(#filter2_i_147_31)">
<path d="M3.00757 129.938C4.01813 124.885 7.84984 122.148 9.63937 121.411C61.2201 118.358 165.203 112.506 168.487 113.516C172.592 114.779 179.54 119.516 182.698 122.674C185.856 125.832 185.856 131.517 181.119 134.991C176.382 138.464 97.639 162.149 87.9579 162.149C79.3226 162.149 18.166 141.938 15.008 140.675C11.85 139.412 1.74436 136.254 3.00757 129.938Z" fill="#FDDE92"/>
</g>
<path d="M3.00757 129.938C4.01813 124.885 7.84984 122.148 9.63937 121.411C61.2201 118.358 165.203 112.506 168.487 113.516C172.592 114.779 179.54 119.516 182.698 122.674C185.856 125.832 185.856 131.517 181.119 134.991C176.382 138.464 97.639 162.149 87.9579 162.149C79.3226 162.149 18.166 141.938 15.008 140.675C11.85 139.412 1.74436 136.254 3.00757 129.938Z" stroke="#F5D589" stroke-width="3.7896" stroke-linecap="round"/>
<path d="M17.1099 113.4C22.5842 113.4 26.2681 116.884 26.2681 120.349C26.2678 123.813 22.584 127.296 17.1099 127.296C11.6359 127.296 7.95192 123.813 7.95166 120.349C7.95166 116.884 11.6357 113.401 17.1099 113.4Z" fill="#A44116" stroke="#7A3313" stroke-width="3.7896"/>
<g filter="url(#filter3_i_147_31)">
<path d="M19.3203 82.7677C21.8467 77.2096 29.0049 79.3991 32.2681 81.1887C78.2486 72.8514 106.797 84.0309 115.324 90.6628C122.377 89.0838 139.009 85.7995 149.114 85.2942C159.22 84.7889 162.588 101.505 163.01 109.927C180.189 121.043 162.378 126.769 151.325 128.243C145.514 136.833 121.324 136.664 109.955 135.506C100.86 142.075 89.3228 140.138 84.691 138.349C74.2696 141.822 49.0056 138.349 28.7944 132.98C12.6254 128.685 18.6887 106.137 23.7415 95.3998C20.5835 94.4524 16.1623 89.7153 19.3203 82.7677Z" fill="#AE4B20"/>
</g>
<path d="M19.3203 82.7677C21.8467 77.2096 29.0049 79.3991 32.2681 81.1887C78.2486 72.8514 106.797 84.0309 115.324 90.6628C122.377 89.0838 139.009 85.7995 149.114 85.2942C159.22 84.7889 162.588 101.505 163.01 109.927C180.189 121.043 162.378 126.769 151.325 128.243C145.514 136.833 121.324 136.664 109.955 135.506C100.86 142.075 89.3228 140.138 84.691 138.349C74.2696 141.822 49.0056 138.349 28.7944 132.98C12.6254 128.685 18.6887 106.137 23.7415 95.3998C20.5835 94.4524 16.1623 89.7153 19.3203 82.7677Z" stroke="#7A3313" stroke-width="3.7896" stroke-linecap="round"/>
<g filter="url(#filter4_i_147_31)">
<path d="M8.89494 64.4505C11.9266 53.8396 23.2112 53.9238 28.4746 55.2923C65.0021 53.2922 142.432 54.2961 162.69 55.2923C181.957 56.2398 175.01 75.8192 166.795 77.0825C163.051 88.094 157.195 90.2978 142.479 89.7145C134.654 98.9089 127.692 98.8765 112.477 93.1883C106.856 86.1416 102.954 83.1591 88.4767 87.5039C82.4565 91.2937 77.2933 91.5066 66.0548 89.7145C52.8299 94.1144 45.8127 94.5157 35.738 82.4511C33.5524 78.495 22.6378 77.1604 18.6848 80.5563C17.9661 81.1737 5.10534 77.7141 8.89494 64.4505Z" fill="#BED84A"/>
</g>
<path d="M8.89494 64.4505C11.9266 53.8396 23.2112 53.9238 28.4746 55.2923C65.0021 53.2922 142.432 54.2961 162.69 55.2923C181.957 56.2398 175.01 75.8192 166.795 77.0825C163.051 88.094 157.195 90.2978 142.479 89.7145C134.654 98.9089 127.692 98.8765 112.477 93.1883C106.856 86.1416 102.954 83.1591 88.4767 87.5039C82.4565 91.2937 77.2933 91.5066 66.0548 89.7145C52.8299 94.1144 45.8127 94.5157 35.738 82.4511C33.5524 78.495 22.6378 77.1604 18.6848 80.5563C17.9661 81.1737 5.10534 77.7141 8.89494 64.4505Z" stroke="#A1B141" stroke-width="2.5264" stroke-linecap="round"/>
<path d="M158.273 47.082V61.8281C158.273 65.1861 157.095 68.7936 153.968 70.7783C148.152 74.4704 138.912 77.1344 128.155 78.876C117.357 80.6241 104.884 81.4651 92.4927 81.4258C80.1017 81.3865 67.7587 80.4662 57.2231 78.6797C46.7373 76.9016 37.8714 74.2385 32.5679 70.6104C29.746 68.6798 28.7944 65.3328 28.7944 62.293V47.082H158.273Z" fill="#C85848" stroke="#BE543C" stroke-width="2.5264"/>
<g filter="url(#filter5_ii_147_31)">
<path d="M130.167 7.92214C101.858 -0.429923 85.6392 0.206883 56.2693 7.92214C44.5847 -0.919607 28.1631 6.6596 30.0579 23.0806C-10.3646 59.4602 55.3219 68.556 93.2179 68.5565C187.453 65.7774 174.379 37.0813 156.062 23.0806C158.589 7.92222 143.43 -0.60388 130.167 7.92214Z" fill="#E0952C"/>
</g>
<path d="M130.167 7.92214C101.858 -0.429923 85.6392 0.206883 56.2693 7.92214C44.5847 -0.919607 28.1631 6.6596 30.0579 23.0806C-10.3646 59.4602 55.3219 68.556 93.2179 68.5565C187.453 65.7774 174.379 37.0813 156.062 23.0806C158.589 7.92222 143.43 -0.60388 130.167 7.92214Z" stroke="#7A3313" stroke-width="3.7896" stroke-linecap="round"/>
<ellipse cx="7.58059" cy="5.88161" rx="7.58059" ry="5.88161" transform="matrix(-0.999212 0.03968 0.03968 0.999212 135.526 38.2402)" fill="#C76A49" fill-opacity="0.5"/>
<ellipse cx="7.58059" cy="5.88161" rx="7.58059" ry="5.88161" transform="matrix(-0.999212 0.03968 0.03968 0.999212 66.0498 38.2402)" fill="#C76A49" fill-opacity="0.5"/>
<ellipse cx="4.81637" cy="2.02108" rx="4.81637" ry="2.02108" transform="matrix(-0.999212 0.03968 0.03968 0.999212 34.6304 110.242)" fill="#C76A49"/>
<ellipse cx="65.5465" cy="116.578" rx="4.81637" ry="2.02108" transform="rotate(14.7035 65.5465 116.578)" fill="#C76A49"/>
<path d="M63.64 40.9618C63.8258 42.3963 65.8477 42.0277 68.2693 41.7141C70.6908 41.4005 72.595 41.2607 72.4092 39.8261C72.2235 38.3916 70.0181 36.2057 67.5965 36.5192C65.175 36.8328 63.4542 39.5273 63.64 40.9618Z" fill="#2D1207"/>
<path d="M123.634 40.9618C123.448 42.3963 121.426 42.0277 119.005 41.7141C116.583 41.4005 114.679 41.2607 114.865 39.8261C115.05 38.3916 117.256 36.2057 119.677 36.5192C122.099 36.8328 123.82 39.5273 123.634 40.9618Z" fill="#2D1207"/>
<ellipse cx="4.42123" cy="2.61912" rx="4.42123" ry="2.61912" transform="matrix(-0.991719 0.12843 0.12843 0.991719 40.0903 102.914)" fill="#2D1207"/>
<ellipse cx="62.2075" cy="108.979" rx="4.42123" ry="2.61912" transform="rotate(16.8654 62.2075 108.979)" fill="#2D1207"/>
<path d="M93.5336 44.9348L88.165 41.3979C92.2156 39.0282 94.5348 38.5159 98.9022 41.3979L93.5336 44.9348Z" fill="#2D1207"/>
<path d="M93.5336 44.9348L88.165 41.3979C92.2156 39.0282 94.5348 38.5159 98.9022 41.3979L93.5336 44.9348ZM93.5336 44.9348L94.0217 50.4929M94.0217 50.4929C93.2986 53.068 91.4313 53.7855 89.1411 54.0299M94.0217 50.4929C95.5364 52.7375 96.5809 53.4243 98.9022 53.5246" stroke="#2D1207" stroke-width="1.47072" stroke-linecap="round"/>
<path d="M46.1632 118.912L41.7708 114.348C45.8213 111.978 47.1643 112.493 51.5318 115.375L46.1632 118.912Z" fill="#2D1207"/>
<path d="M46.1632 118.912L41.7708 114.348C45.8213 111.978 47.1643 112.493 51.5318 115.375L46.1632 118.912ZM46.1632 118.912V123.506M46.1632 123.506C45.4401 126.081 43.7164 125.472 41.4263 125.717M46.1632 123.506C47.6779 125.751 48.5789 127.195 50.9003 127.296" stroke="#2D1207" stroke-width="1.47072" stroke-linecap="round"/>
<path d="M47.7426 14.8708C46.8866 15.9408 42.1931 18.4462 38.9222 20.0831C38.1429 20.4731 37.2168 19.9474 37.1955 19.0762C36.9069 7.24677 48.949 13.3628 47.7426 14.8708Z" fill="#E06518" stroke="#7A3313" stroke-width="2.5264" stroke-linecap="round"/>
<path d="M137.515 14.6364C138.371 15.7065 143.064 18.2118 146.335 19.8487C147.114 20.2387 148.041 19.713 148.062 18.8418C148.35 7.01239 136.308 13.1285 137.515 14.6364Z" fill="#E06518" stroke="#7A3313" stroke-width="2.5264" stroke-linecap="round"/>
<path d="M105.218 79.3601C98.6496 75.0652 92.7967 82.2023 90.6914 86.3077C102.612 91.0198 104.269 93.8478 105.218 94.8344C109.008 91.9922 113.429 84.7287 105.218 79.3601Z" fill="#A44116"/>
<path d="M21.2153 83.3991C17.4448 88.5744 22.913 93.8429 26.2665 95.6704C27.0337 88.0567 30.136 86.1935 33.7964 84.195C31.5444 81.0454 25.9283 76.9299 21.2153 83.3991Z" fill="#A44116"/>
<path d="M91.9546 86.3077C94.0599 82.2023 99.9128 75.0652 106.481 79.3601C114.692 84.7287 110.271 91.9922 106.481 94.8344" stroke="#7A3313" stroke-width="3.7896" stroke-linecap="round"/>
<path d="M168.378 117.506C168.378 121.517 163.641 123.822 157.009 125.401C148.483 127.927 148.799 123.096 148.799 119.085C148.799 115.073 151.221 110.242 157.325 110.242C163.43 110.242 168.378 113.494 168.378 117.506Z" fill="#A44116"/>
<path d="M109.324 132.979C108.169 136.821 100.34 138.745 93.5343 138.348C84.6411 138.312 84.7999 135.242 85.955 131.4C87.1101 127.559 90.2146 123.642 96.0604 125.4C101.906 127.158 110.479 129.138 109.324 132.979Z" fill="#A44116"/>
<path d="M19.3206 82.7671C21.2153 80.2408 23.7416 76.135 33.1851 81.6492" stroke="#7A3313" stroke-width="3.7896" stroke-linecap="round"/>
<path d="M91.007 126.032C87.7437 127.085 79.6381 132.98 86.5858 138.98" stroke="#7A3313" stroke-width="3.7896" stroke-linecap="round"/>
</g>
<defs>
<filter id="filter0_dn_147_31" x="0" y="0" width="187.794" height="186.479" filterUnits="userSpaceOnUse" color-interpolation-filters="sRGB">
<feFlood flood-opacity="0" result="BackgroundImageFix"/>
<feColorMatrix in="SourceAlpha" type="matrix" values="0 0 0 0 0 0 0 0 0 0 0 0 0 0 0 0 0 0 127 0" result="hardAlpha"/>
<feOffset dy="2"/>
<feGaussianBlur stdDeviation="0.5"/>
<feComposite in2="hardAlpha" operator="out"/>
<feColorMatrix type="matrix" values="0 0 0 0 0 0 0 0 0 0 0 0 0 0 0 0 0 0 0.25 0"/>
<feBlend mode="normal" in2="BackgroundImageFix" result="effect1_dropShadow_147_31"/>
<feBlend mode="normal" in="SourceGraphic" in2="BackgroundImageFix" result="shape"/>
<feTurbulence type="fractalNoise" baseFrequency="4 4" stitchTiles="stitch" numOctaves="3" result="noise" seed="5363" />
<feColorMatrix in="noise" type="luminanceToAlpha" result="alphaNoise" />
<feComponentTransfer in="alphaNoise" result="coloredNoise1">
<feFuncA type="discrete" tableValues="1 1 1 1 1 1 1 1 1 1 1 1 1 1 1 1 1 1 1 1 1 1 1 1 1 1 1 1 1 1 1 1 1 1 1 1 1 1 1 1 1 1 1 1 1 1 1 1 1 1 1 0 0 0 0 0 0 0 0 0 0 0 0 0 0 0 0 0 0 0 0 0 0 0 0 0 0 0 0 0 0 0 0 0 0 0 0 0 0 0 0 0 0 0 0 0 0 0 0 0 "/>
</feComponentTransfer>
<feComposite operator="in" in2="shape" in="coloredNoise1" result="noise1Clipped" />
<feFlood flood-color="rgba(0, 0, 0, 0.1)" result="color1Flood" />
<feComposite operator="in" in2="noise1Clipped" in="color1Flood" result="color1" />
<feMerge result="effect2_noise_147_31">
<feMergeNode in="shape" />
<feMergeNode in="color1" />
</feMerge>
<feBlend mode="normal" in="effect2_noise_147_31" in2="effect1_dropShadow_147_31" result="effect2_noise_147_31"/>
</filter>
<filter id="filter1_i_147_31" x="14.8994" y="133.61" width="157.9" height="49.8691" filterUnits="userSpaceOnUse" color-interpolation-filters="sRGB">
<feFlood flood-opacity="0" result="BackgroundImageFix"/>
<feBlend mode="normal" in="SourceGraphic" in2="BackgroundImageFix" result="shape"/>
<feColorMatrix in="SourceAlpha" type="matrix" values="0 0 0 0 0 0 0 0 0 0 0 0 0 0 0 0 0 0 127 0" result="hardAlpha"/>
<feOffset dy="-9.47401"/>
<feComposite in2="hardAlpha" operator="arithmetic" k2="-1" k3="1"/>
<feColorMatrix type="matrix" values="0 0 0 0 0.909804 0 0 0 0 0.513726 0 0 0 0 0.133333 0 0 0 0.4 0"/>
<feBlend mode="normal" in2="shape" result="effect1_innerShadow_147_31"/>
</filter>
<filter id="filter2_i_147_31" x="1" y="111.506" width="185.794" height="52.5381" filterUnits="userSpaceOnUse" color-interpolation-filters="sRGB">
<feFlood flood-opacity="0" result="BackgroundImageFix"/>
<feBlend mode="normal" in="SourceGraphic" in2="BackgroundImageFix" result="shape"/>
<feColorMatrix in="SourceAlpha" type="matrix" values="0 0 0 0 0 0 0 0 0 0 0 0 0 0 0 0 0 0 127 0" result="hardAlpha"/>
<feOffset dy="-9.47401"/>
<feComposite in2="hardAlpha" operator="arithmetic" k2="-1" k3="1"/>
<feColorMatrix type="matrix" values="0 0 0 0 0.992157 0 0 0 0 0.972549 0 0 0 0 0.788235 0 0 0 0.4 0"/>
<feBlend mode="normal" in2="shape" result="effect1_innerShadow_147_31"/>
</filter>
<filter id="filter3_i_147_31" x="16.3389" y="76.3252" width="155.71" height="65.6406" filterUnits="userSpaceOnUse" color-interpolation-filters="sRGB">
<feFlood flood-opacity="0" result="BackgroundImageFix"/>
<feBlend mode="normal" in="SourceGraphic" in2="BackgroundImageFix" result="shape"/>
<feColorMatrix in="SourceAlpha" type="matrix" values="0 0 0 0 0 0 0 0 0 0 0 0 0 0 0 0 0 0 127 0" result="hardAlpha"/>
<feOffset dy="-6.31601"/>
<feComposite in2="hardAlpha" operator="arithmetic" k2="-1" k3="1"/>
<feColorMatrix type="matrix" values="0 0 0 0 0.548767 0 0 0 0 0.218649 0 0 0 0 0.0752647 0 0 0 0.5 0"/>
<feBlend mode="normal" in2="shape" result="effect1_innerShadow_147_31"/>
</filter>
<filter id="filter4_i_147_31" x="6.93457" y="52.876" width="169.404" height="45.4951" filterUnits="userSpaceOnUse" color-interpolation-filters="sRGB">
<feFlood flood-opacity="0" result="BackgroundImageFix"/>
<feBlend mode="normal" in="SourceGraphic" in2="BackgroundImageFix" result="shape"/>
<feColorMatrix in="SourceAlpha" type="matrix" values="0 0 0 0 0 0 0 0 0 0 0 0 0 0 0 0 0 0 127 0" result="hardAlpha"/>
<feOffset dy="-5.0528"/>
<feComposite in2="hardAlpha" operator="arithmetic" k2="-1" k3="1"/>
<feColorMatrix type="matrix" values="0 0 0 0 0.992157 0 0 0 0 0.972549 0 0 0 0 0.788235 0 0 0 0.5 0"/>
<feBlend mode="normal" in2="shape" result="effect1_innerShadow_147_31"/>
</filter>
<filter id="filter5_ii_147_31" x="15.4634" y="0" width="155.505" height="70.4512" filterUnits="userSpaceOnUse" color-interpolation-filters="sRGB">
<feFlood flood-opacity="0" result="BackgroundImageFix"/>
<feBlend mode="normal" in="SourceGraphic" in2="BackgroundImageFix" result="shape"/>
<feColorMatrix in="SourceAlpha" type="matrix" values="0 0 0 0 0 0 0 0 0 0 0 0 0 0 0 0 0 0 127 0" result="hardAlpha"/>
<feOffset dy="-6.31601"/>
<feComposite in2="hardAlpha" operator="arithmetic" k2="-1" k3="1"/>
<feColorMatrix type="matrix" values="0 0 0 0 0.992157 0 0 0 0 0.972549 0 0 0 0 0.788235 0 0 0 0.2 0"/>
<feBlend mode="normal" in2="shape" result="effect1_innerShadow_147_31"/>
<feColorMatrix in="SourceAlpha" type="matrix" values="0 0 0 0 0 0 0 0 0 0 0 0 0 0 0 0 0 0 127 0" result="hardAlpha"/>
<feOffset dy="3.158"/>
<feComposite in2="hardAlpha" operator="arithmetic" k2="-1" k3="1"/>
<feColorMatrix type="matrix" values="0 0 0 0 0.913725 0 0 0 0 0.498039 0 0 0 0 0.12549 0 0 0 0.5 0"/>
<feBlend mode="normal" in2="effect1_innerShadow_147_31" result="effect2_innerShadow_147_31"/>
</filter>
</defs>
</svg>
