<svg width="150" height="147" viewBox="0 0 150 147" fill="none" xmlns="http://www.w3.org/2000/svg">
<g filter="url(#filter0_dn_147_7)">
<g filter="url(#filter1_i_147_7)">
<path d="M143.594 122.149C145.791 120.752 136.646 40.6406 136.816 39.4526C136.965 38.4106 141.471 27.2398 133.04 18.1885C132.098 16.2375 127.788 10.9471 118.085 5.3938C108.382 -0.159524 96.091 4.93241 91.1583 8.17253C83.02 6.43735 60.2847 11.4561 49.9343 14.1824C29.7793 6.02071 15.3304 16.29 7.80049 25.553C-0.510988 35.7773 3.75371 52.5013 7.1532 58.9783C7.03606 61.624 7.09232 70.8648 8.25447 86.6633C9.70717 106.411 11.9317 113.79 16.8011 124.114C20.2498 131.426 31.4552 133.458 38.4279 133.64C40.0747 133.682 41.6924 133.746 43.3372 133.839C65.9835 135.117 141.481 123.493 143.594 122.149Z" fill="#F6A663"/>
</g>
<path d="M143.594 122.149C145.791 120.752 136.646 40.6406 136.816 39.4526C136.965 38.4106 141.471 27.2398 133.04 18.1885C132.098 16.2375 127.788 10.9471 118.085 5.3938C108.382 -0.159524 96.091 4.93241 91.1583 8.17253C83.02 6.43735 60.2847 11.4561 49.9343 14.1824C29.7793 6.02071 15.3304 16.29 7.80049 25.553C-0.510988 35.7773 3.75371 52.5013 7.1532 58.9783C7.03606 61.624 7.09232 70.8648 8.25447 86.6633C9.70717 106.411 11.9317 113.79 16.8011 124.114C20.2498 131.426 31.4552 133.458 38.4279 133.64C40.0747 133.682 41.6924 133.746 43.3372 133.839C65.9835 135.117 141.481 123.493 143.594 122.149Z" stroke="#2D1207" stroke-width="3.49285" stroke-linecap="round"/>
<g filter="url(#filter2_ii_147_7)">
<path d="M31.2986 29.6734C21.4161 40.5252 26.6237 53.3701 30.4628 58.4361C30.8139 65.6178 31.8561 84.9791 33.2169 104.971C34.0889 117.782 35.4724 125.301 37.4228 129.71C39.0995 133.499 43.3526 134.881 47.4963 134.887C73.7567 134.92 141.935 124.375 143.941 123.099C146.138 121.701 136.993 41.5904 137.163 40.4024C137.312 39.3604 141.818 28.1895 133.387 19.1382C132.206 17.8696 130.77 16.6427 129.032 15.491C117.725 7.99651 106.023 14.6467 101.586 18.9086C92.1943 16.3664 69.7047 20.9307 59.6339 23.5305C54.3065 21.0566 41.1812 18.8217 31.2986 29.6734Z" fill="#FFE2BA"/>
</g>
<path d="M31.2986 29.6734C21.4161 40.5252 26.6237 53.3701 30.4628 58.4361C30.8139 65.6178 31.8561 84.9791 33.2169 104.971C34.0889 117.782 35.4724 125.301 37.4228 129.71C39.0995 133.499 43.3526 134.881 47.4963 134.887C73.7567 134.92 141.935 124.375 143.941 123.099C146.138 121.701 136.993 41.5904 137.163 40.4024C137.312 39.3604 141.818 28.1895 133.387 19.1382C132.206 17.8696 130.77 16.6427 129.032 15.491C117.725 7.99651 106.023 14.6467 101.586 18.9086C92.1943 16.3664 69.7047 20.9307 59.6339 23.5305C54.3065 21.0566 41.1812 18.8217 31.2986 29.6734Z" stroke="#2D1207" stroke-width="3.49285" stroke-linecap="round"/>
<circle cx="64.5123" cy="127.09" r="15.1357" transform="rotate(-5.89189 64.5123 127.09)" fill="#A46844" stroke="#2D1207" stroke-width="3.49285" stroke-linecap="round"/>
<circle cx="131.504" cy="118.421" r="15.1357" transform="rotate(-5.89189 131.504 118.421)" fill="#A46844" stroke="#2D1207" stroke-width="3.49285" stroke-linecap="round"/>
<path d="M99.2781 106.624C98.936 101.041 103.563 99.9398 105.919 100.087C109.104 104.333 109.201 106.876 107.114 111.668C104.645 112.313 99.6201 112.207 99.2781 106.624Z" fill="#C68A63"/>
<path d="M93.9157 107.764C93.1104 102.229 88.3562 102.095 86.0798 102.72C84.9338 108.045 85.2274 110.549 87.275 114.301C89.8241 114.429 94.721 113.299 93.9157 107.764Z" fill="#C68A63"/>
<path d="M87.2976 103.179C89.574 102.554 94.3282 102.688 95.1335 108.223C95.9388 113.758 91.0419 114.887 88.4927 114.76" stroke="#2D1207" stroke-width="3.49285" stroke-linecap="round"/>
<path d="M83.6216 42.8937C108.542 39.3857 117.716 53.811 119.189 61.4622C121.944 62.641 134.052 72.2182 128.498 83.6181C122.944 95.0181 89.3285 98.1945 86.7228 98.4634C84.1171 98.7323 55.2235 102.299 50.4643 90.208C45.7052 78.1166 53.235 68.8536 54.0439 68.1849C54.8527 67.5162 52.4716 47.2788 83.6216 42.8937Z" fill="#C68A63"/>
<path d="M56.8332 44.5025C54.4806 46.1259 52.3099 48.4341 50.6967 50.4571C49.5789 51.859 47.4464 52.1264 46.6134 50.5388C45.2937 48.0238 44.9332 44.5247 48.6294 41.2376C51.9362 38.297 55.0929 38.5789 57.452 39.8008C59.3015 40.7588 58.5475 43.3196 56.8332 44.5025Z" fill="#C68A63"/>
<path d="M113.47 39.7585C111.125 38.3497 107.966 37.3485 105.429 36.7484C103.967 36.4027 103.039 35.0691 103.86 33.811C105.552 31.2172 109.299 28.1654 114.893 31.1807C119.203 33.5033 119.124 36.7221 117.932 39.2004C117.167 40.7886 114.98 40.6661 113.47 39.7585Z" fill="#C68A63"/>
<path d="M83.6216 42.8937C108.542 39.3857 117.716 53.811 119.189 61.4622C121.944 62.641 134.052 72.2182 128.498 83.6181C122.944 95.0181 89.3285 98.1945 86.7228 98.4634C84.1171 98.7323 55.2235 102.299 50.4643 90.208C45.7052 78.1166 53.235 68.8536 54.0439 68.1849C54.8527 67.5162 52.4716 47.2788 83.6216 42.8937Z" stroke="#2D1207" stroke-width="3.49285" stroke-linecap="round"/>
<path d="M56.8332 44.5025C54.4806 46.1259 52.3099 48.4341 50.6967 50.4571C49.5789 51.859 47.4464 52.1264 46.6134 50.5388C45.2937 48.0238 44.9332 44.5247 48.6294 41.2376C51.9362 38.297 55.0929 38.5789 57.452 39.8008C59.3015 40.7588 58.5475 43.3196 56.8332 44.5025Z" stroke="#2D1207" stroke-width="3.49285" stroke-linecap="round"/>
<path d="M113.47 39.7585C111.125 38.3497 107.966 37.3485 105.429 36.7484C103.967 36.4027 103.039 35.0691 103.86 33.811C105.552 31.2172 109.299 28.1654 114.893 31.1807C119.203 33.5033 119.124 36.7221 117.932 39.2004C117.167 40.7886 114.98 40.6661 113.47 39.7585Z" stroke="#2D1207" stroke-width="3.49285" stroke-linecap="round"/>
<ellipse cx="105.135" cy="69.5903" rx="3.78392" ry="2.24158" transform="rotate(23.1905 105.135 69.5903)" fill="#2D1207"/>
<ellipse cx="3.78392" cy="2.24158" rx="3.78392" ry="2.24158" transform="matrix(-0.819409 0.573209 0.573209 0.819409 78.0938 69.5065)" fill="#2D1207"/>
<ellipse cx="3.0183" cy="1.21896" rx="3.0183" ry="1.21896" transform="matrix(-0.960093 0.279681 0.279681 0.960093 77.5601 76.5847)" fill="#C76A49"/>
<ellipse cx="3.0183" cy="1.21896" rx="3.0183" ry="1.21896" transform="matrix(-0.999212 0.03968 0.03968 0.999212 109.121 72.8757)" fill="#C76A49"/>
<circle cx="91.6604" cy="75.4219" r="6.69463" transform="rotate(-5.89189 91.6604 75.4219)" fill="#A46844"/>
<path d="M88.1172 72.2761L91.5112 73.9741M91.5112 73.9741L92.1294 77.1291M91.5112 73.9741L94.4869 71.6187M92.1294 77.1291C91.8527 78.6489 90.7874 79.1744 89.4432 79.4546M92.1294 77.1291C93.1607 78.3226 93.821 78.6521 95.204 78.5675" stroke="#2D1207" stroke-width="2.32857" stroke-linecap="round"/>
<path d="M138.971 121.853C139.171 124.161 135.525 126.537 133.743 127.555C133.137 127.901 132.422 127.973 131.759 127.754C129.829 127.117 125.852 125.531 125.653 123.227C125.388 120.18 128.744 116.371 131.952 119.068C134.839 115.843 138.707 118.806 138.971 121.853Z" fill="#2D1207"/>
<path d="M72.6174 131.04C72.8174 133.348 69.1715 135.725 67.39 136.742C66.7838 137.088 66.0684 137.161 65.4055 136.942C63.4751 136.304 59.4986 134.718 59.299 132.415C59.0349 129.367 62.3908 125.559 65.5986 128.255C68.4857 125.03 72.3532 127.993 72.6174 131.04Z" fill="#2D1207"/>
<path d="M133.832 113.155C133.955 114.57 132.907 115.817 131.492 115.939C130.077 116.062 128.831 115.014 128.708 113.599C128.585 112.184 129.438 109.874 130.853 109.751C132.268 109.629 133.709 111.74 133.832 113.155Z" fill="#2D1207"/>
<path d="M67.4786 122.344C67.6012 123.759 66.5536 125.005 65.1387 125.128C63.7237 125.25 62.4772 124.203 62.3546 122.788C62.232 121.373 63.0849 119.062 64.4998 118.94C65.9148 118.817 67.3559 120.929 67.4786 122.344Z" fill="#2D1207"/>
<path d="M127.189 115.486C127.487 116.646 126.788 117.827 125.629 118.124C124.469 118.421 123.288 117.722 122.991 116.563C122.694 115.404 123.084 113.365 124.243 113.068C125.402 112.77 126.892 114.327 127.189 115.486Z" fill="#2D1207"/>
<path d="M60.836 124.675C61.1333 125.834 60.4345 127.015 59.2751 127.312C58.1156 127.61 56.9347 126.911 56.6374 125.751C56.34 124.592 56.7301 122.554 57.8895 122.256C59.0489 121.959 60.5386 123.515 60.836 124.675Z" fill="#2D1207"/>
<path d="M139.753 115.14C139.519 116.313 138.378 117.075 137.204 116.841C136.03 116.607 135.269 115.465 135.503 114.291C135.737 113.118 136.972 111.449 138.145 111.683C139.319 111.918 139.988 113.966 139.753 115.14Z" fill="#2D1207"/>
<path d="M73.3999 124.328C73.1657 125.502 72.0242 126.264 70.8504 126.029C69.6766 125.795 68.915 124.654 69.1492 123.48C69.3835 122.306 70.6181 120.638 71.7919 120.872C72.9657 121.106 73.6342 123.154 73.3999 124.328Z" fill="#2D1207"/>
<path d="M105.033 100.085C102.676 99.9378 98.0498 101.04 98.3918 106.622C98.7339 112.205 103.758 112.311 106.228 111.666" stroke="#2D1207" stroke-width="3.49285" stroke-linecap="round"/>
</g>
<defs>
<filter id="filter0_dn_147_7" x="0.239746" y="1.17744" width="149.148" height="145.796" filterUnits="userSpaceOnUse" color-interpolation-filters="sRGB">
<feFlood flood-opacity="0" result="BackgroundImageFix"/>
<feColorMatrix in="SourceAlpha" type="matrix" values="0 0 0 0 0 0 0 0 0 0 0 0 0 0 0 0 0 0 127 0" result="hardAlpha"/>
<feOffset dy="2"/>
<feGaussianBlur stdDeviation="0.5"/>
<feComposite in2="hardAlpha" operator="out"/>
<feColorMatrix type="matrix" values="0 0 0 0 0 0 0 0 0 0 0 0 0 0 0 0 0 0 0.25 0"/>
<feBlend mode="normal" in2="BackgroundImageFix" result="effect1_dropShadow_147_7"/>
<feBlend mode="normal" in="SourceGraphic" in2="BackgroundImageFix" result="shape"/>
<feTurbulence type="fractalNoise" baseFrequency="4 4" stitchTiles="stitch" numOctaves="3" result="noise" seed="5363" />
<feColorMatrix in="noise" type="luminanceToAlpha" result="alphaNoise" />
<feComponentTransfer in="alphaNoise" result="coloredNoise1">
<feFuncA type="discrete" tableValues="1 1 1 1 1 1 1 1 1 1 1 1 1 1 1 1 1 1 1 1 1 1 1 1 1 1 1 1 1 1 1 1 1 1 1 1 1 1 1 1 1 1 1 1 1 1 1 1 1 1 1 0 0 0 0 0 0 0 0 0 0 0 0 0 0 0 0 0 0 0 0 0 0 0 0 0 0 0 0 0 0 0 0 0 0 0 0 0 0 0 0 0 0 0 0 0 0 0 0 0 "/>
</feComponentTransfer>
<feComposite operator="in" in2="shape" in="coloredNoise1" result="noise1Clipped" />
<feFlood flood-color="rgba(0, 0, 0, 0.1)" result="color1Flood" />
<feComposite operator="in" in2="noise1Clipped" in="color1Flood" result="color1" />
<feMerge result="effect2_noise_147_7">
<feMergeNode in="shape" />
<feMergeNode in="color1" />
</feMerge>
<feBlend mode="normal" in="effect2_noise_147_7" in2="effect1_dropShadow_147_7" result="effect2_noise_147_7"/>
</filter>
<filter id="filter1_i_147_7" x="1.23975" y="1.17744" width="144.441" height="134.505" filterUnits="userSpaceOnUse" color-interpolation-filters="sRGB">
<feFlood flood-opacity="0" result="BackgroundImageFix"/>
<feBlend mode="normal" in="SourceGraphic" in2="BackgroundImageFix" result="shape"/>
<feColorMatrix in="SourceAlpha" type="matrix" values="0 0 0 0 0 0 0 0 0 0 0 0 0 0 0 0 0 0 127 0" result="hardAlpha"/>
<feOffset dx="11.6428" dy="1.16428"/>
<feComposite in2="hardAlpha" operator="arithmetic" k2="-1" k3="1"/>
<feColorMatrix type="matrix" values="0 0 0 0 0.823529 0 0 0 0 0.513726 0 0 0 0 0.211765 0 0 0 0.3 0"/>
<feBlend mode="normal" in2="shape" result="effect1_innerShadow_147_7"/>
</filter>
<filter id="filter2_ii_147_7" x="23.8657" y="10.3522" width="122.163" height="126.281" filterUnits="userSpaceOnUse" color-interpolation-filters="sRGB">
<feFlood flood-opacity="0" result="BackgroundImageFix"/>
<feBlend mode="normal" in="SourceGraphic" in2="BackgroundImageFix" result="shape"/>
<feColorMatrix in="SourceAlpha" type="matrix" values="0 0 0 0 0 0 0 0 0 0 0 0 0 0 0 0 0 0 127 0" result="hardAlpha"/>
<feOffset dx="4.65713" dy="4.65713"/>
<feComposite in2="hardAlpha" operator="arithmetic" k2="-1" k3="1"/>
<feColorMatrix type="matrix" values="0 0 0 0 1 0 0 0 0 1 0 0 0 0 1 0 0 0 0.3 0"/>
<feBlend mode="normal" in2="shape" result="effect1_innerShadow_147_7"/>
<feColorMatrix in="SourceAlpha" type="matrix" values="0 0 0 0 0 0 0 0 0 0 0 0 0 0 0 0 0 0 127 0" result="hardAlpha"/>
<feOffset dy="-5.82142"/>
<feComposite in2="hardAlpha" operator="arithmetic" k2="-1" k3="1"/>
<feColorMatrix type="matrix" values="0 0 0 0 0.992157 0 0 0 0 0.709804 0 0 0 0 0.435294 0 0 0 0.4 0"/>
<feBlend mode="normal" in2="effect1_innerShadow_147_7" result="effect2_innerShadow_147_7"/>
</filter>
</defs>
</svg>
