<svg width="219" height="198" viewBox="0 0 219 198" fill="none" xmlns="http://www.w3.org/2000/svg">
<g filter="url(#filter0_dn_147_59)">
<path d="M184.293 144.279C163.088 182.335 117.886 204.303 109.793 181.952C83.293 195.952 42.28 161.495 35.293 136.453C35.293 116.571 69.7523 105.453 109.793 105.453C166.559 92.7007 215.975 100.241 184.293 144.279Z" fill="#FEF9F5"/>
<path d="M34.293 138.279C48.4693 172.97 69.793 183.779 110.793 185.279L122.293 192.279C160.312 178.995 177.52 166.263 194.793 126.279" stroke="black" stroke-width="4"/>
<path d="M184.862 141.207C177.073 152.983 129.449 161.869 91.9596 161.869C54.4704 161.869 60.6852 161.436 46.562 152.736C32.4389 144.037 44.0214 148.708 114.442 142.632C184.863 136.555 192.651 129.43 184.862 141.207Z" fill="#FAE4DA"/>
<path d="M202.068 69.1151C202.068 95.6595 148.983 135.869 97.0684 135.869C45.1536 135.869 3.06836 114.351 3.06836 87.8062C3.06836 61.2618 65.0684 22.369 122.068 33.869C173.983 33.869 202.068 42.5707 202.068 69.1151Z" fill="#FFD591"/>
<path d="M195.068 71.8691C195.068 91.8691 149.805 117.369 96.479 117.369C45.4147 117.369 14.0684 109.731 14.0684 83.3691C14.0684 57.0076 64.627 27.8691 119.144 27.8691C169.283 38.8691 195.068 45.5076 195.068 71.8691Z" fill="#FDF6E3"/>
<path d="M138.068 95.8682C149.568 109.368 116.817 113.37 96.5088 113.37C76.2005 113.37 65.5684 109.563 65.5684 104.869C66.3994 102.869 72.0684 81.3684 97.207 87.8681C117.515 87.8681 122.068 82.3684 138.068 95.8682Z" fill="#FFDA93"/>
<path d="M186.069 64.5431C186.069 76.159 171.532 95.3691 156.068 95.3691C140.605 95.3691 125.994 87.5322 131.594 75.7931C131.594 64.1771 151.961 57.6952 163.16 49.8691C178.624 49.8691 186.069 52.9271 186.069 64.5431Z" fill="#FFDA93"/>
<path d="M67.5316 80.0099C88.0684 81.1221 57.3902 102.369 46.0684 102.369C34.7465 102.369 25.0684 91.7389 25.0684 81.1221C25.0684 70.5052 38.2465 53.3691 49.5684 53.3691C60.8902 53.3691 67.5316 69.3931 67.5316 80.0099Z" fill="#FFDA93"/>
<ellipse cx="194.793" cy="91.3691" rx="6.5" ry="10.5" fill="#F9C478"/>
<path d="M203.5 68.1641C224.705 126.08 157.555 137.96 109.085 146.375C60.6158 154.79 7.06822 140.369 7.06836 114.869C-12.9326 58.3691 31.575 138.869 109.085 127.564C160.575 127.564 195.927 78.5607 203.5 68.1641Z" fill="#FEC87E"/>
<path d="M207.068 103.369C207.068 111.653 192.068 151.369 115.068 151.369C58.0684 168.869 10.0684 133.154 10.0684 124.87C10.0684 116.585 66.5684 151.529 121.068 136.371C173.068 129.87 207.068 95.0849 207.068 103.369Z" fill="#FFA664"/>
<path d="M56.5294 38.8691C16.471 53.3691 1.85912 71.2965 3.06884 97.8691C4.87366 155.825 64.0183 155.869 95.4958 155.869C178.664 146.739 208.948 133.313 206.904 80.8691C195.376 35.6093 174.134 37.4573 158.443 31.8691" stroke="black" stroke-width="4"/>
<path d="M216.293 111.085C216.293 125.325 208.299 136.869 198.438 136.869C188.578 136.869 183.559 120.998 180.584 111.085C177.609 101.171 198.452 86.3364 198.438 85.2999C198.425 84.2633 213.161 63.3872 216.293 111.085Z" fill="#F9C478"/>
<path d="M189.494 96.8389C182.934 99.4237 179.944 101.316 180.325 109.754C185.511 129.975 190.112 135.896 200.872 137.164C202.394 137.343 203.9 136.699 204.869 135.512C223.393 112.824 213.439 92.583 211.902 86.4069C210.324 80.0628 205.616 81.3266 199.17 84.42C191.858 79.4676 189.021 86.9369 189.494 96.8389Z" stroke="#B87751" stroke-width="4"/>
<path d="M143.305 62.339C104.403 100.339 83.0014 82.339 63.3047 77.839C39.9613 77.839 41.8042 37.839 56.3048 26.339C56.3048 14.5417 65.9424 48.84 89.2858 48.84C112.629 48.84 143.305 50.5417 143.305 62.339Z" fill="#F8E1D3"/>
<path d="M140.547 34.3691C163.547 72.3691 124.587 79.8691 99.9802 79.8691C75.3736 79.8691 48.3369 71.7652 54.4127 41.8821C56.9446 22.6354 70.3105 1.86914 94.9171 1.86914C119.524 1.86914 140.547 14.5084 140.547 34.3691Z" fill="#FFF8F5"/>
<path d="M154.902 34.683C154.902 40.3114 139.883 51.4254 133.026 51.4254C117.659 55.0651 116.767 42.516 131.547 30.8691C134.202 34.1735 140.047 28.999 144.227 28.999C151.083 28.999 154.902 29.0547 154.902 34.683Z" fill="#FFC67A"/>
<path d="M156.047 30.3691C158.59 36.5993 149.938 56.8691 139.263 56.8691C128.588 56.8691 119.935 55.4664 119.935 52.3384C119.935 46.6746 128.588 44.4087 139.263 44.4087C152.434 44.4087 156.047 27.2411 156.047 30.3691Z" fill="#FA9E77"/>
<path d="M143.049 28.3681C118.549 -10.1309 73.047 -5.6303 50.047 36.3691C42.8704 59.0083 41.8598 70.3072 61.0494 78.8691C98.0153 95.3624 123.047 84.8691 146.047 61.8691L147.549 53.8691M143.049 28.3681C154.066 27.4122 157.226 29.1753 157.549 36.3691C157.301 43.3208 155.508 47.1643 147.549 53.8691M143.049 28.3681L130.049 30.8691C130.049 30.8691 126.049 38.8691 124.549 40.8691C123.049 42.8691 118.549 49.8691 118.549 49.8691C123.962 60.3186 130.605 60.7261 147.549 53.8691" stroke="black" stroke-width="4"/>
<ellipse cx="91.5469" cy="61.3691" rx="7" ry="5.5" fill="#F9ADAD"/>
<path d="M107.547 55.8691C107.547 58.9067 104.413 62.8691 100.547 62.8691C95.0469 62.8691 92.5469 61.3691 92.5469 57.3691C92.5469 54.3316 96.6809 50.8691 100.547 50.8691C104.413 50.8691 107.547 52.8316 107.547 55.8691Z" fill="black"/>
<path d="M138.801 136.217C150.505 163.057 127.884 183.676 117.8 181.869C107.716 180.062 78.1653 186.319 90.5665 158.775C102.968 131.23 123.95 125.8 101.798 142.374C79.6473 158.947 127.097 109.377 138.801 136.217Z" fill="#FFC675"/>
<path d="M86.2962 169.305C91.4408 182.313 103.136 185.373 128.242 178.709C130.228 178.181 132.014 177.029 133.221 175.366C139.597 166.582 140.383 159.606 141.793 146.369C142.487 140.194 132.741 121.618 121.897 132.98C119.32 135.68 115.95 137.635 112.22 137.781C101.693 138.193 96.9588 142.07 94.5521 151.798C93.5211 155.966 89.6288 158.71 87.1835 162.238C86.9257 162.61 86.6807 163.026 86.4448 163.491C85.532 165.293 85.5533 167.426 86.2962 169.305Z" stroke="#B87751" stroke-width="4"/>
<path d="M124.295 152.369C124.295 155.407 110.54 163.869 105.293 163.869C100.046 163.869 100.293 158.369 102.793 154.369C105.292 150.369 109.548 146.869 114.795 146.869C120.042 146.869 124.295 149.332 124.295 152.369Z" fill="#FA9E77"/>
<path d="M134.793 153.369C133.426 174.528 120.888 177.57 105.255 176.601C90.6584 174.891 93.2911 164.319 98.292 162.368C103.293 160.417 115.307 151.684 118.392 144.535C121.476 137.386 136.159 132.209 134.793 153.369Z" fill="#FA9E77"/>
<path d="M212.005 113.471C211.057 117.769 205.887 131.741 201.084 132.868C196.282 133.994 188.293 119.869 187.293 109.869C186.293 99.8692 188.799 108.629 200.961 92.4193C213.124 76.2093 212.953 109.172 212.005 113.471Z" fill="#FA9E77"/>
<path d="M206.895 92.4483C205.455 94.1519 197.439 98.4878 195.488 100.426C193.538 102.364 194.383 96.4304 195.479 92.4395C196.576 88.4486 198.196 87.284 201.537 88.3102C204.877 89.3364 208.335 90.7448 206.895 92.4483Z" fill="#FA9E77"/>
</g>
<defs>
<filter id="filter0_dn_147_59" x="0" y="0" width="218.947" height="197.479" filterUnits="userSpaceOnUse" color-interpolation-filters="sRGB">
<feFlood flood-opacity="0" result="BackgroundImageFix"/>
<feColorMatrix in="SourceAlpha" type="matrix" values="0 0 0 0 0 0 0 0 0 0 0 0 0 0 0 0 0 0 127 0" result="hardAlpha"/>
<feOffset dy="2"/>
<feGaussianBlur stdDeviation="0.5"/>
<feComposite in2="hardAlpha" operator="out"/>
<feColorMatrix type="matrix" values="0 0 0 0 0 0 0 0 0 0 0 0 0 0 0 0 0 0 0.25 0"/>
<feBlend mode="normal" in2="BackgroundImageFix" result="effect1_dropShadow_147_59"/>
<feBlend mode="normal" in="SourceGraphic" in2="BackgroundImageFix" result="shape"/>
<feTurbulence type="fractalNoise" baseFrequency="4 4" stitchTiles="stitch" numOctaves="3" result="noise" seed="5363" />
<feColorMatrix in="noise" type="luminanceToAlpha" result="alphaNoise" />
<feComponentTransfer in="alphaNoise" result="coloredNoise1">
<feFuncA type="discrete" tableValues="1 1 1 1 1 1 1 1 1 1 1 1 1 1 1 1 1 1 1 1 1 1 1 1 1 1 1 1 1 1 1 1 1 1 1 1 1 1 1 1 1 1 1 1 1 1 1 1 1 1 1 0 0 0 0 0 0 0 0 0 0 0 0 0 0 0 0 0 0 0 0 0 0 0 0 0 0 0 0 0 0 0 0 0 0 0 0 0 0 0 0 0 0 0 0 0 0 0 0 0 "/>
</feComponentTransfer>
<feComposite operator="in" in2="shape" in="coloredNoise1" result="noise1Clipped" />
<feFlood flood-color="rgba(0, 0, 0, 0.1)" result="color1Flood" />
<feComposite operator="in" in2="noise1Clipped" in="color1Flood" result="color1" />
<feMerge result="effect2_noise_147_59">
<feMergeNode in="shape" />
<feMergeNode in="color1" />
</feMerge>
<feBlend mode="normal" in="effect2_noise_147_59" in2="effect1_dropShadow_147_59" result="effect2_noise_147_59"/>
</filter>
</defs>
</svg>
