<svg width="90" height="90" viewBox="0 0 90 90" fill="none" xmlns="http://www.w3.org/2000/svg">
<path d="M40.4114 19.5238C65.3315 16.0157 74.5062 30.4411 75.9785 38.0922C78.7336 39.271 90.8416 48.8483 85.2879 60.2482C79.7341 71.6481 46.1183 74.8246 43.5126 75.0935C40.9069 75.3624 12.0133 78.9294 7.25415 66.838C2.49496 54.7467 10.0248 45.4837 10.8337 44.815C11.6425 44.1463 9.26135 23.9088 40.4114 19.5238Z" fill="#C68A63"/>
<path d="M21.4527 25.6881C19.1 27.3115 16.9293 29.6197 15.3162 31.6427C14.1984 33.0445 12.0659 33.312 11.2328 31.7244C9.91312 29.2094 9.55261 25.7103 13.2489 22.4232C16.5556 19.4826 19.7124 19.7645 22.0715 20.9864C23.9209 21.9443 23.167 24.5052 21.4527 25.6881Z" fill="#C68A63"/>
<path d="M65.5259 23.1197C63.181 21.7109 60.0224 20.7097 57.4853 20.1096C56.0235 19.7639 55.0956 18.4303 55.9162 17.1722C57.6079 14.5784 61.3553 11.5266 66.9497 14.5419C71.259 16.8645 71.1801 20.0833 69.9878 22.5616C69.2237 24.1498 67.0366 24.0273 65.5259 23.1197Z" fill="#C68A63"/>
<path d="M40.4114 19.5238C65.3315 16.0157 74.5062 30.4411 75.9785 38.0922C78.7336 39.271 90.8416 48.8483 85.2879 60.2482C79.7341 71.6481 46.1183 74.8246 43.5126 75.0935C40.9069 75.3624 12.0133 78.9294 7.25415 66.838C2.49496 54.7467 10.0248 45.4837 10.8337 44.815C11.6425 44.1463 9.26135 23.9088 40.4114 19.5238Z" stroke="#2D1207" stroke-width="3.49285" stroke-linecap="round"/>
<path d="M21.4527 25.6881C19.1 27.3115 16.9293 29.6197 15.3162 31.6427C14.1984 33.0445 12.0659 33.312 11.2328 31.7244C9.91312 29.2094 9.55261 25.7103 13.2489 22.4232C16.5556 19.4826 19.7124 19.7645 22.0715 20.9864C23.9209 21.9443 23.167 24.5052 21.4527 25.6881Z" stroke="#2D1207" stroke-width="3.49285" stroke-linecap="round"/>
<path d="M65.5259 23.1197C63.181 21.7109 60.0224 20.7097 57.4853 20.1096C56.0235 19.7639 55.0956 18.4303 55.9162 17.1722C57.6079 14.5784 61.3553 11.5266 66.9497 14.5419C71.259 16.8645 71.1801 20.0833 69.9878 22.5616C69.2237 24.1498 67.0366 24.0273 65.5259 23.1197Z" stroke="#2D1207" stroke-width="3.49285" stroke-linecap="round"/>
<ellipse cx="61.9251" cy="46.2205" rx="3.78392" ry="2.24158" transform="rotate(23.1905 61.9251 46.2205)" fill="#2D1207"/>
<ellipse cx="3.78392" cy="2.24158" rx="3.78392" ry="2.24158" transform="matrix(-0.819409 0.573209 0.573209 0.819409 34.8838 46.1367)" fill="#2D1207"/>
<ellipse cx="3.0183" cy="1.21896" rx="3.0183" ry="1.21896" transform="matrix(-0.960093 0.279681 0.279681 0.960093 34.3501 53.2148)" fill="#C76A49"/>
<ellipse cx="3.0183" cy="1.21896" rx="3.0183" ry="1.21896" transform="matrix(-0.999212 0.03968 0.03968 0.999212 65.9111 49.5059)" fill="#C76A49"/>
<circle cx="48.4505" cy="52.0521" r="6.69463" transform="rotate(-5.89189 48.4505 52.0521)" fill="#A46844"/>
<path d="M44.9072 48.9062L48.3012 50.6043M48.3012 50.6043L48.9194 53.7593M48.3012 50.6043L51.277 48.2489M48.9194 53.7593C48.6427 55.2791 47.5774 55.8046 46.2333 56.0848M48.9194 53.7593C49.9507 54.9528 50.611 55.2823 51.994 55.1977" stroke="#2D1207" stroke-width="2.32857" stroke-linecap="round"/>
</svg>
