<svg width="241" height="258" viewBox="0 0 241 258" fill="none" xmlns="http://www.w3.org/2000/svg">
<g filter="url(#filter0_i_106_169)">
<path d="M20.1298 222C10.7962 203.266 3.96316 177.167 5.12983 164C80.4631 159.167 231.53 153.6 233.13 170C234.73 186.4 222.711 222.383 209.63 232C160.958 267.784 38.9978 259.871 20.1298 222Z" fill="#E1FFA7"/>
</g>
<path d="M20.1298 222C10.7962 203.266 3.96316 177.167 5.12983 164C80.4631 159.167 231.53 153.6 233.13 170C234.73 186.4 222.711 222.383 209.63 232C160.958 267.784 38.9978 259.871 20.1298 222Z" stroke="#9ABB90" stroke-width="4" stroke-linecap="round" stroke-linejoin="round"/>
<path d="M45.1355 198C45.4688 206.333 47.9355 224.3 55.1355 229.5" stroke="#8EC65B" stroke-width="4" stroke-linecap="round" stroke-linejoin="round"/>
<path d="M75.6355 206C75.9688 213.833 77.6355 230.7 81.6355 235.5" stroke="#8EC65B" stroke-width="4" stroke-linecap="round" stroke-linejoin="round"/>
<path d="M119.135 206.5C119.635 215 120.335 232.5 119.135 234.5" stroke="#8EC65B" stroke-width="4" stroke-linecap="round" stroke-linejoin="round"/>
<path d="M159.135 204C158.802 212.333 156.935 230.2 152.135 235" stroke="#8EC65B" stroke-width="4" stroke-linecap="round" stroke-linejoin="round"/>
<path d="M193.135 196C191.802 204.167 187.935 221.7 183.135 226.5" stroke="#8EC65B" stroke-width="4" stroke-linecap="round" stroke-linejoin="round"/>
<g filter="url(#filter1_ii_106_169)">
<path d="M26.4873 90.5379C3.28732 105.338 10.154 125.705 16.4873 134.038C-1.51262 137.238 0.987299 156.371 4.48725 165.538C11.8009 174.066 16.5475 176.588 26.4873 176.038C35.1859 187.257 42.5254 188.004 57.9873 184.038C70.434 194.811 78.1503 195.943 93.4873 188.538C105.751 197.127 112.637 198.074 124.987 190.038C137.276 195.305 143.554 193.821 153.987 185.538C169.394 191.046 178.035 190.744 193.487 178.038C207.535 181.535 214.652 181.276 222.987 168.038C228.487 172.371 239.187 177.938 237.987 165.538C236.787 153.138 219.821 142.038 211.487 138.038C219.487 125.205 230.687 93.5379 211.487 69.5379C187.487 39.5379 146.487 28.0379 93.4873 34.0379C51.0872 38.8379 31.154 73.7045 26.4873 90.5379Z" fill="#FEED9F"/>
</g>
<path d="M26.4873 90.5379C3.28732 105.338 10.154 125.705 16.4873 134.038C-1.51262 137.238 0.987299 156.371 4.48725 165.538C11.8009 174.066 16.5475 176.588 26.4873 176.038C35.1859 187.257 42.5254 188.004 57.9873 184.038C70.434 194.811 78.1503 195.943 93.4873 188.538C105.751 197.127 112.637 198.074 124.987 190.038C137.276 195.305 143.554 193.821 153.987 185.538C169.394 191.046 178.035 190.744 193.487 178.038C207.535 181.535 214.652 181.276 222.987 168.038C228.487 172.371 239.187 177.938 237.987 165.538C236.787 153.138 219.821 142.038 211.487 138.038C219.487 125.205 230.687 93.5379 211.487 69.5379C187.487 39.5379 146.487 28.0379 93.4873 34.0379C51.0872 38.8379 31.154 73.7045 26.4873 90.5379Z" stroke="#FFD78C" stroke-width="4" stroke-linecap="round" stroke-linejoin="round"/>
<ellipse cx="55.4873" cy="114.038" rx="14" ry="9.5" fill="#FB9E7F"/>
<path d="M49.3705 147.581C48.7113 149.398 43.7577 149.268 38.3064 147.29C32.8551 145.312 28.9704 142.236 29.6296 140.419C30.0276 139.322 33.5433 140.855 36.2668 142.242C38.4358 143.347 40.7353 144.181 43.1082 144.724C46.0876 145.406 49.7686 146.484 49.3705 147.581Z" fill="#FEDF8F"/>
<path d="M165.671 149.338C166.098 151.223 161.859 153.791 156.204 155.072C150.548 156.354 145.617 155.865 145.19 153.979C144.932 152.841 148.719 152.231 151.76 151.927C154.182 151.685 156.568 151.144 158.858 150.319C161.733 149.282 165.413 148.2 165.671 149.338Z" fill="#FEDF8F"/>
<ellipse cx="132.487" cy="121.038" rx="14" ry="9.5" fill="#FB9E7F"/>
<ellipse cx="122.487" cy="105.538" rx="6" ry="9" fill="#974A14"/>
<ellipse cx="67.5722" cy="100.222" rx="6" ry="9" transform="rotate(7.22915 67.5722 100.222)" fill="#974A14"/>
<path d="M132.276 183.478C124.635 205.452 97.8152 201.996 93.7284 182.929L132.276 183.478Z" fill="#FEED9F"/>
<path d="M132.276 183.478C124.635 205.452 97.8152 201.996 93.7284 182.929" stroke="#FFD78C" stroke-width="4" stroke-linecap="round" stroke-linejoin="round"/>
<path d="M77.2432 183.463C66.9462 204.325 40.7585 197.583 39.0581 178.157C53.4401 172.361 61.2663 165.586 77.2432 183.463Z" fill="#FEED9F"/>
<path d="M77.2432 183.463C66.9462 204.325 40.7585 197.583 39.0581 178.157" stroke="#FFD78C" stroke-width="4" stroke-linecap="round" stroke-linejoin="round"/>
<path d="M83.6814 89.284C86.1948 89.4791 87.6842 92.1875 86.5026 94.4143L79.7644 107.109C77.1047 112.121 71.5955 114.934 65.9764 114.151L37.4355 110.174C35.5832 109.916 34.2607 108.246 34.4332 106.384L36.0393 89.0434C36.2158 87.139 37.8885 85.729 39.7953 85.8771L83.6814 89.284Z" stroke="#2D1207" stroke-width="3"/>
<path d="M84.9423 95.6917C92.0594 94.4597 94.2434 94.755 101.282 96.6663L102.098 101.268C94.8479 97.0101 89.9565 96.9631 83.068 100.281L84.9423 95.6917Z" fill="#2D1207"/>
<path d="M151.773 93.7101L103.373 90.4939C100.881 90.3285 99.0229 92.7509 99.8282 95.1148L104.559 108.997C106.365 114.298 111.257 117.933 116.854 118.133L150.201 119.327C152.093 119.395 153.696 117.946 153.819 116.057L155.033 97.4296C155.159 95.5027 153.7 93.8383 151.773 93.7101Z" stroke="#2D1207" stroke-width="3"/>
<g filter="url(#filter2_i_106_169)">
<path d="M107.487 114.038C107.487 119.009 100.548 119.538 91.9873 119.538C83.4269 119.538 76.4873 118.009 76.4873 113.038C76.4873 108.068 83.4269 101.538 91.9873 101.538C100.548 101.538 107.487 109.068 107.487 114.038Z" fill="#FBBF81"/>
</g>
<path d="M127.756 49.1665C74.0869 56.9776 78.4272 35.1307 91.2203 29.9436C99.0293 20.6206 115.957 -4.11988 150.194 32.0794C168.101 58.2292 137.117 57.0997 127.756 49.1665Z" fill="white" stroke="#F6F5E4" stroke-width="4"/>
<path d="M101.72 32.5048C109.012 29.6312 126.22 26.4406 136.72 36.6665" stroke="#F6F5E4" stroke-width="4" stroke-linecap="round"/>
<ellipse cx="154.445" cy="35.4482" rx="17.2604" ry="9.82342" transform="rotate(21.6573 154.445 35.4482)" fill="#FFE2E4"/>
<path d="M151.416 2.99942C161.295 12.1096 156.904 24.4436 154.399 29.1022C147.419 41.525 122.961 25.2577 128.33 9.72893C132.625 -2.69405 140.798 4.0838 143.124 8.39728C142.695 -0.298811 149.09 0.928928 151.416 2.99942Z" fill="#FFE2E4" stroke="#FFCDD6" stroke-width="3" stroke-linejoin="round"/>
<path d="M165.009 6.09256C152.484 10.9265 155.27 25.8111 155.716 31.1378C157.176 45.4547 185.721 39.3989 186.938 22.77C187.912 9.46686 177.848 12.7524 174.049 15.9293C177.846 7.91511 167.929 5.02466 165.009 6.09256Z" fill="#FFE2E4" stroke="#FFCDD6" stroke-width="3" stroke-linejoin="round"/>
<path d="M191.893 35.0282C182.161 29.3969 170.833 34.2219 166.642 36.6378C155.497 43.2893 173.583 58.1226 187.863 52.1595C199.286 47.389 191.961 42.6229 187.597 41.6039C195.951 40.6724 194.113 36.365 191.893 35.0282Z" fill="#FFE2E4" stroke="#FFCDD6" stroke-width="3" stroke-linejoin="round"/>
<ellipse cx="154.655" cy="34.1445" rx="12.8755" ry="8.5516" transform="rotate(21.6573 154.655 34.1445)" fill="#F7FEEE"/>
<path d="M173.381 43.8781C163.503 35.1389 152.053 38.4726 147.563 41.2318C135.611 48.8749 152.312 68.7603 167.501 62.4157C179.653 57.3401 173.686 52.2925 169.183 50.4032C177.944 50.1367 175.632 45.9421 173.381 43.8781Z" fill="#FFE2E4" stroke="#FFCDD6" stroke-width="3" stroke-linejoin="round"/>
<path d="M140.278 19.9481C149.478 28.7481 147.111 39.9481 144.778 44.4481C138.278 56.4479 117.778 41.9482 122.778 26.9482C126.778 14.9482 132.111 20.2815 134.278 24.4481C133.878 16.0481 138.111 17.9481 140.278 19.9481Z" fill="#FFE2E4" stroke="#FFCDD6" stroke-width="3" stroke-linejoin="round"/>
<defs>
<filter id="filter0_i_106_169" x="3.00024" y="157.037" width="232.273" height="99.9893" filterUnits="userSpaceOnUse" color-interpolation-filters="sRGB">
<feFlood flood-opacity="0" result="BackgroundImageFix"/>
<feBlend mode="normal" in="SourceGraphic" in2="BackgroundImageFix" result="shape"/>
<feColorMatrix in="SourceAlpha" type="matrix" values="0 0 0 0 0 0 0 0 0 0 0 0 0 0 0 0 0 0 127 0" result="hardAlpha"/>
<feOffset dy="-9.47401"/>
<feComposite in2="hardAlpha" operator="arithmetic" k2="-1" k3="1"/>
<feColorMatrix type="matrix" values="0 0 0 0 0.733222 0 0 0 0 0.8908 0 0 0 0 0.428573 0 0 0 0.6 0"/>
<feBlend mode="normal" in2="shape" result="effect1_innerShadow_106_169"/>
</filter>
<filter id="filter1_ii_106_169" x="0" y="30.5015" width="240.08" height="167.055" filterUnits="userSpaceOnUse" color-interpolation-filters="sRGB">
<feFlood flood-opacity="0" result="BackgroundImageFix"/>
<feBlend mode="normal" in="SourceGraphic" in2="BackgroundImageFix" result="shape"/>
<feColorMatrix in="SourceAlpha" type="matrix" values="0 0 0 0 0 0 0 0 0 0 0 0 0 0 0 0 0 0 127 0" result="hardAlpha"/>
<feOffset dx="-20"/>
<feComposite in2="hardAlpha" operator="arithmetic" k2="-1" k3="1"/>
<feColorMatrix type="matrix" values="0 0 0 0 0.996078 0 0 0 0 0.87451 0 0 0 0 0.560784 0 0 0 0.5 0"/>
<feBlend mode="normal" in2="shape" result="effect1_innerShadow_106_169"/>
<feColorMatrix in="SourceAlpha" type="matrix" values="0 0 0 0 0 0 0 0 0 0 0 0 0 0 0 0 0 0 127 0" result="hardAlpha"/>
<feOffset dy="-9.47401"/>
<feComposite in2="hardAlpha" operator="arithmetic" k2="-1" k3="1"/>
<feColorMatrix type="matrix" values="0 0 0 0 0.996078 0 0 0 0 0.87451 0 0 0 0 0.560784 0 0 0 0.5 0"/>
<feBlend mode="normal" in2="effect1_innerShadow_106_169" result="effect2_innerShadow_106_169"/>
</filter>
<filter id="filter2_i_106_169" x="76.4873" y="101.538" width="31" height="18" filterUnits="userSpaceOnUse" color-interpolation-filters="sRGB">
<feFlood flood-opacity="0" result="BackgroundImageFix"/>
<feBlend mode="normal" in="SourceGraphic" in2="BackgroundImageFix" result="shape"/>
<feColorMatrix in="SourceAlpha" type="matrix" values="0 0 0 0 0 0 0 0 0 0 0 0 0 0 0 0 0 0 127 0" result="hardAlpha"/>
<feOffset dy="-2"/>
<feComposite in2="hardAlpha" operator="arithmetic" k2="-1" k3="1"/>
<feColorMatrix type="matrix" values="0 0 0 0 0.972627 0 0 0 0 0.695713 0 0 0 0 0.409569 0 0 0 1 0"/>
<feBlend mode="normal" in2="shape" result="effect1_innerShadow_106_169"/>
</filter>
</defs>
</svg>
