<svg width="159" height="173" viewBox="0 0 159 173" fill="none" xmlns="http://www.w3.org/2000/svg">
<g filter="url(#filter0_i_155_55)">
<path d="M14.1986 148.821C7.92755 136.234 3.33657 118.699 4.12043 109.852C54.7351 106.605 156.233 102.865 157.308 113.884C158.383 124.902 150.308 149.078 141.519 155.54C108.818 179.582 26.8755 174.266 14.1986 148.821Z" fill="#E58E48"/>
</g>
<path d="M14.1986 148.821C7.92755 136.234 3.33657 118.699 4.12043 109.852C54.7351 106.605 156.233 102.865 157.308 113.884C158.383 124.902 150.308 149.078 141.519 155.54C108.818 179.582 26.8755 174.266 14.1986 148.821Z" stroke="#C9461A" stroke-width="2.68751" stroke-linecap="round" stroke-linejoin="round"/>
<path d="M30.999 132.696C31.223 138.295 32.8803 150.367 37.7178 153.86" stroke="#C9461A" stroke-width="2.68751" stroke-linecap="round" stroke-linejoin="round"/>
<path d="M51.4922 138.071C51.7161 143.334 52.8359 154.667 55.5234 157.892" stroke="#C9461A" stroke-width="2.68751" stroke-linecap="round" stroke-linejoin="round"/>
<path d="M80.7188 138.407C81.0547 144.118 81.525 155.876 80.7188 157.22" stroke="#C9461A" stroke-width="2.68751" stroke-linecap="round" stroke-linejoin="round"/>
<path d="M107.594 136.728C107.37 142.327 106.116 154.331 102.891 157.556" stroke="#C9461A" stroke-width="2.68751" stroke-linecap="round" stroke-linejoin="round"/>
<path d="M130.438 131.353C129.542 136.84 126.944 148.62 123.719 151.845" stroke="#C9461A" stroke-width="2.68751" stroke-linecap="round" stroke-linejoin="round"/>
<g filter="url(#filter1_ii_155_55)">
<path d="M42.1022 30.6822C22.4834 32.5634 16.4588 51.8463 15.8988 61.2526C3.16585 68.2557 4.53703 78.5125 8.26869 85.44C-7.24183 104.79 6.89272 114.555 15.8988 117.018C20.5804 123.692 24.9132 124.723 36.0553 121.385C47.5158 131.657 55.9531 130.419 72.0007 124.745C86.3216 133.784 91.9514 130.701 101.563 123.737C114.415 130.016 119.715 126.338 128.438 117.018C138.884 121.331 143.283 120.652 147.923 112.651C156.629 114.055 158.212 112.857 156.993 108.284C159.412 101.834 148.595 89.0234 142.884 83.4244C157.934 47.4118 129.222 30.1222 112.985 25.979C111.373 -7.61485 87.4535 -1.23189 77.0394 12.2058C62.4093 -12.0696 45.1253 10.5259 42.1022 30.6822Z" fill="#FBF2E9"/>
</g>
<path d="M11.5316 90.1432C10.4245 88.8948 9.26281 87.2856 8.26869 85.44M77.0394 12.2058C62.4093 -12.0696 45.1253 10.5259 42.1022 30.6822C22.4834 32.5634 16.4588 51.8463 15.8988 61.2526C3.16585 68.2557 4.53703 78.5125 8.26869 85.44M77.0394 12.2058C87.4535 -1.23189 111.373 -7.61485 112.985 25.979C129.222 30.1222 157.934 47.4118 142.884 83.4244C148.595 89.0234 159.412 101.834 156.993 108.284C158.212 112.857 156.629 114.055 147.923 112.651C143.283 120.652 138.884 121.331 128.438 117.018C119.715 126.338 114.415 130.016 101.563 123.737C91.9514 130.701 86.3216 133.784 72.0007 124.745C55.9531 130.419 47.5158 131.657 36.0553 121.385C24.9132 124.723 20.5804 123.692 15.8988 117.018C6.89272 114.555 -7.24183 104.79 8.26869 85.44M77.0394 12.2058C74.4361 15.565 73.0082 19.2606 72.3363 26.3149" stroke="#AD3415" stroke-width="2.68751" stroke-linecap="round" stroke-linejoin="round"/>
<path d="M100.699 27.2587C90.5701 26.1086 96.3272 25.3302 86.0283 26.8838C88.0226 11.2635 93.7672 8.65011 99.3872 7.48178C107.111 5.87613 98.2933 15.1563 100.699 27.2587Z" fill="#FBBCB6"/>
<path d="M63.714 27.2167C53.5214 27.0747 59.1732 25.7303 49.0786 28.2955C49.5173 12.5545 54.975 9.38543 60.4518 7.66666C67.9786 5.30454 60.1228 15.4117 63.714 27.2167Z" fill="#FBBCB6"/>
<path d="M61.586 68.9785C61.586 70.0146 61.475 71.2356 61.191 72.3379M54.5312 73.3457C58.5926 77.2136 60.462 75.1668 61.191 72.3379M61.191 72.3379C61.4346 74.3535 62.9969 77.5785 67.2969 74.3535" stroke="#D4614E" stroke-width="2.01563" stroke-linecap="round" stroke-linejoin="round"/>
<ellipse cx="88.7969" cy="78.7207" rx="10.0781" ry="6.38283" fill="#FCBAA8"/>
<ellipse cx="37.7344" cy="76.0332" rx="10.0781" ry="6.38283" fill="#FCBAA8"/>
<path d="M61.5859 67.2988C62.4004 67.2988 63.1079 67.4013 63.5986 67.5986C64.0958 67.7985 64.2734 68.0476 64.2734 68.3066C64.2734 68.6141 64.0351 69.03 63.5293 69.3887C63.0378 69.7371 62.3496 69.9863 61.5859 69.9863C60.8223 69.9863 60.1341 69.7371 59.6426 69.3887C59.1367 69.03 58.8984 68.6141 58.8984 68.3066C58.8984 68.0476 59.0761 67.7985 59.5732 67.5986C60.0639 67.4013 60.7715 67.2988 61.5859 67.2988Z" fill="#D4614E" stroke="#D4614E" stroke-width="0.671877"/>
<path d="M34.2501 95.4473C33.8689 96.8124 30.5839 97.088 26.9129 96.0627C23.2419 95.0375 20.575 93.0998 20.9563 91.7346C21.3375 90.3695 23.5701 92.566 27.2411 93.5912C30.9121 94.6164 34.6314 94.0821 34.2501 95.4473Z" fill="#F0EBD5" fill-opacity="0.5"/>
<path d="M77.5301 33.8211C77.4703 32.4228 74.8739 31.3982 71.7309 31.5327C68.5879 31.6671 66.0885 32.9096 66.1483 34.3079C66.2081 35.7062 68.4045 34.1149 71.5475 33.9804C74.6905 33.846 77.5899 35.2194 77.5301 33.8211Z" fill="#F0EBD5" fill-opacity="0.5"/>
<path d="M118.626 88.2295C119.184 89.5325 116.796 91.8049 113.292 93.3051C109.788 94.8053 106.495 94.9651 105.938 93.6621C105.38 92.3592 108.496 92.673 112 91.1729C115.504 89.6727 118.068 86.9265 118.626 88.2295Z" fill="#F0EBD5" fill-opacity="0.5"/>
<path d="M11.5316 90.1432C10.4245 88.8948 9.26281 87.2856 8.26869 85.44M77.0394 12.2058C62.4093 -12.0696 45.1253 10.5259 42.1022 30.6822C22.4834 32.5634 16.4588 51.8463 15.8988 61.2526C3.16585 68.2557 4.53703 78.5125 8.26869 85.44M77.0394 12.2058C87.4535 -1.23189 111.373 -7.61485 112.985 25.979C129.222 30.1222 157.934 47.4118 142.884 83.4244C148.595 89.0234 159.412 101.834 156.993 108.284C158.212 112.857 156.629 114.055 147.923 112.651C143.283 120.652 138.884 121.331 128.438 117.018C119.715 126.338 114.415 130.016 101.563 123.737C91.9514 130.701 86.3216 133.784 72.0007 124.745C55.9531 130.419 47.5158 131.657 36.0553 121.385C24.9132 124.723 20.5804 123.692 15.8988 117.018C6.89272 114.555 -7.24183 104.79 8.26869 85.44M77.0394 12.2058C74.4361 15.565 73.0082 19.2606 72.3363 26.3149" stroke="#AD3415" stroke-width="2.68751" stroke-linecap="round" stroke-linejoin="round"/>
<path d="M30.0078 111.979C30.0078 134.486 49.1563 133.815 55.5391 119.033L30.0078 111.979Z" fill="#FBF2E9"/>
<path d="M30.0078 111.979C30.0078 134.486 49.1563 133.815 55.5391 119.033" stroke="#AD3415" stroke-width="2.68751" stroke-linecap="round" stroke-linejoin="round"/>
<path d="M61.9219 118.04C66.6722 140.041 85.2476 135.343 88.367 119.547L61.9219 118.04Z" fill="#FBF2E9"/>
<path d="M61.9219 118.04C66.6722 140.041 85.2476 135.343 88.367 119.547" stroke="#AD3415" stroke-width="2.68751" stroke-linecap="round" stroke-linejoin="round"/>
<ellipse cx="83.7578" cy="67.9707" rx="4.3672" ry="6.38283" fill="#8A1E01"/>
<ellipse cx="42.9951" cy="66.3337" rx="4.03126" ry="5.71095" transform="rotate(5.80849 42.9951 66.3337)" fill="#8A1E01"/>
<path d="M53.4161 64.1645C59.5036 63.3915 64.5047 63.497 70.5491 64.8364L70.068 67.1257C64.7438 65.1569 60.2985 64.7154 53.7574 66.315L53.4161 64.1645Z" fill="#2D1207"/>
<circle cx="86.3379" cy="68.8682" r="16.125" stroke="#2D1207" stroke-width="2.01563"/>
<path d="M37.9629 50.7266C46.4598 50.7266 53.416 57.9076 53.416 66.8516C53.416 75.7956 46.4598 82.9766 37.9629 82.9766C29.466 82.9765 22.5098 75.7955 22.5098 66.8516C22.5098 57.9076 29.466 50.7266 37.9629 50.7266Z" stroke="#2D1207" stroke-width="2.01563"/>
<defs>
<filter id="filter0_i_155_55" x="2.68945" y="105.174" width="156.059" height="67.1807" filterUnits="userSpaceOnUse" color-interpolation-filters="sRGB">
<feFlood flood-opacity="0" result="BackgroundImageFix"/>
<feBlend mode="normal" in="SourceGraphic" in2="BackgroundImageFix" result="shape"/>
<feColorMatrix in="SourceAlpha" type="matrix" values="0 0 0 0 0 0 0 0 0 0 0 0 0 0 0 0 0 0 127 0" result="hardAlpha"/>
<feOffset dy="-6.36536"/>
<feComposite in2="hardAlpha" operator="arithmetic" k2="-1" k3="1"/>
<feColorMatrix type="matrix" values="0 0 0 0 0.926056 0 0 0 0 0.49832 0 0 0 0 0.218493 0 0 0 0.6 0"/>
<feBlend mode="normal" in2="shape" result="effect1_innerShadow_155_55"/>
</filter>
<filter id="filter1_ii_155_55" x="0" y="0" width="158.698" height="131.682" filterUnits="userSpaceOnUse" color-interpolation-filters="sRGB">
<feFlood flood-opacity="0" result="BackgroundImageFix"/>
<feBlend mode="normal" in="SourceGraphic" in2="BackgroundImageFix" result="shape"/>
<feColorMatrix in="SourceAlpha" type="matrix" values="0 0 0 0 0 0 0 0 0 0 0 0 0 0 0 0 0 0 127 0" result="hardAlpha"/>
<feOffset dy="-6.36536"/>
<feComposite in2="hardAlpha" operator="arithmetic" k2="-1" k3="1"/>
<feColorMatrix type="matrix" values="0 0 0 0 0.960107 0 0 0 0 0.893479 0 0 0 0 0.82685 0 0 0 1 0"/>
<feBlend mode="normal" in2="shape" result="effect1_innerShadow_155_55"/>
<feColorMatrix in="SourceAlpha" type="matrix" values="0 0 0 0 0 0 0 0 0 0 0 0 0 0 0 0 0 0 127 0" result="hardAlpha"/>
<feOffset dx="-6.71877"/>
<feComposite in2="hardAlpha" operator="arithmetic" k2="-1" k3="1"/>
<feColorMatrix type="matrix" values="0 0 0 0 0.960784 0 0 0 0 0.894118 0 0 0 0 0.827451 0 0 0 0.5 0"/>
<feBlend mode="normal" in2="effect1_innerShadow_155_55" result="effect2_innerShadow_155_55"/>
</filter>
</defs>
</svg>
