<svg width="237" height="257" viewBox="0 0 237 257" fill="none" xmlns="http://www.w3.org/2000/svg">
<g filter="url(#filter0_i_92_47)">
<path d="M21.1332 221.501C11.7996 202.767 4.96658 176.668 6.13324 163.501C81.4666 158.668 232.533 153.101 234.133 169.501C235.733 185.901 223.714 221.884 210.633 231.501C161.961 267.285 40.0012 259.372 21.1332 221.501Z" fill="#E58E48"/>
</g>
<path d="M21.1332 221.501C11.7996 202.767 4.96658 176.668 6.13324 163.501C81.4666 158.668 232.533 153.101 234.133 169.501C235.733 185.901 223.714 221.884 210.633 231.501C161.961 267.285 40.0012 259.372 21.1332 221.501Z" stroke="#C9461A" stroke-width="4" stroke-linecap="round" stroke-linejoin="round"/>
<path d="M46.1392 197.501C46.4725 205.834 48.9392 223.801 56.1392 229.001" stroke="#C9461A" stroke-width="4" stroke-linecap="round" stroke-linejoin="round"/>
<path d="M76.6392 205.501C76.9725 213.334 78.6392 230.201 82.6392 235.001" stroke="#C9461A" stroke-width="4" stroke-linecap="round" stroke-linejoin="round"/>
<path d="M120.139 206.001C120.639 214.501 121.339 232.001 120.139 234.001" stroke="#C9461A" stroke-width="4" stroke-linecap="round" stroke-linejoin="round"/>
<path d="M160.139 203.501C159.806 211.834 157.939 229.701 153.139 234.501" stroke="#C9461A" stroke-width="4" stroke-linecap="round" stroke-linejoin="round"/>
<path d="M194.139 195.501C192.806 203.668 188.939 221.201 184.139 226.001" stroke="#C9461A" stroke-width="4" stroke-linecap="round" stroke-linejoin="round"/>
<g filter="url(#filter1_ii_92_47)">
<path d="M62.6641 45.6659C33.4641 48.4659 24.4972 77.1659 23.6638 91.1659C4.71247 101.589 6.75328 116.855 12.3074 127.166C-10.778 155.966 10.2594 170.499 23.6638 174.166C30.6317 184.099 37.0806 185.633 53.6641 180.666C70.7216 195.954 83.2794 194.111 107.164 185.666C128.479 199.119 136.858 194.53 151.164 184.166C170.292 193.512 178.181 188.037 191.164 174.166C206.711 180.584 213.258 179.574 220.164 167.666C233.122 169.756 235.478 167.973 233.664 161.166C237.264 151.566 221.164 132.499 212.664 124.166C235.064 70.5658 192.331 44.8325 168.164 38.6658C165.764 -11.3342 130.164 -1.83398 114.664 18.1663C92.8885 -17.9644 67.1636 15.666 62.6641 45.6659Z" fill="#FBF2E9"/>
</g>
<path d="M17.1638 134.166C15.516 132.308 13.787 129.913 12.3074 127.166M114.664 18.1663C92.8885 -17.9644 67.1636 15.666 62.6641 45.6659C33.4641 48.4659 24.4972 77.1659 23.6638 91.1659C4.71247 101.589 6.75328 116.855 12.3074 127.166M114.664 18.1663C130.164 -1.83398 165.764 -11.3342 168.164 38.6658C192.331 44.8325 235.064 70.5658 212.664 124.166C221.164 132.499 237.264 151.566 233.664 161.166C235.478 167.973 233.122 169.756 220.164 167.666C213.258 179.574 206.711 180.584 191.164 174.166C178.181 188.037 170.292 193.512 151.164 184.166C136.858 194.53 128.479 199.119 107.164 185.666C83.2794 194.111 70.7216 195.954 53.6641 180.666C37.0806 185.633 30.6317 184.099 23.6638 174.166C10.2594 170.499 -10.778 155.966 12.3074 127.166M114.664 18.1663C110.789 23.166 108.664 28.6663 107.664 39.1659" stroke="#AD3415" stroke-width="4" stroke-linecap="round" stroke-linejoin="round"/>
<path d="M149.877 40.5705C134.802 38.8587 143.37 37.7002 128.042 40.0125C131.01 16.7637 139.56 12.874 147.925 11.1351C159.421 8.74532 146.297 22.5576 149.877 40.5705Z" fill="#FBBCB6"/>
<path d="M94.8308 40.5094C79.6605 40.298 88.0724 38.2971 73.048 42.115C73.7009 18.6866 81.824 13.9699 89.9755 11.4117C101.178 7.89601 89.4859 22.9392 94.8308 40.5094Z" fill="#FBBCB6"/>
<path d="M91.6636 102.666C91.6636 104.208 91.4985 106.025 91.0757 107.666M81.1636 109.166C87.2083 114.923 89.9907 111.877 91.0757 107.666M91.0757 107.666C91.4383 110.666 93.7636 115.466 100.164 110.666" stroke="#D4614E" stroke-width="3" stroke-linecap="round" stroke-linejoin="round"/>
<ellipse cx="132.164" cy="117.166" rx="15" ry="9.5" fill="#FCBAA8"/>
<ellipse cx="56.1636" cy="113.166" rx="15" ry="9.5" fill="#FCBAA8"/>
<path d="M91.6636 100.166C92.8757 100.166 93.9284 100.319 94.6587 100.612C95.3987 100.91 95.6636 101.28 95.6636 101.666C95.6636 102.124 95.309 102.743 94.5562 103.276C93.8245 103.795 92.8002 104.166 91.6636 104.166C90.5269 104.166 89.5026 103.795 88.771 103.276C88.0181 102.743 87.6636 102.124 87.6636 101.666C87.6636 101.28 87.9284 100.91 88.6685 100.612C89.3988 100.319 90.4515 100.166 91.6636 100.166Z" fill="#D4614E" stroke="#D4614E"/>
<path d="M50.9769 142.06C50.4094 144.092 45.5201 144.502 40.0563 142.976C34.5925 141.45 30.6232 138.566 31.1907 136.534C31.7581 134.502 35.081 137.771 40.5448 139.297C46.0086 140.823 51.5443 140.028 50.9769 142.06Z" fill="#F0EBD5" fill-opacity="0.5"/>
<path d="M115.394 50.3381C115.305 48.2569 111.441 46.7319 106.763 46.932C102.085 47.132 98.3647 48.9813 98.4537 51.0625C98.5427 53.1437 101.812 50.7752 106.49 50.5752C111.168 50.3751 115.483 52.4192 115.394 50.3381Z" fill="#F0EBD5" fill-opacity="0.5"/>
<path d="M176.56 131.318C177.39 133.257 173.836 136.639 168.621 138.872C163.406 141.105 158.505 141.343 157.675 139.404C156.844 137.464 161.482 137.932 166.697 135.699C171.912 133.466 175.729 129.379 176.56 131.318Z" fill="#F0EBD5" fill-opacity="0.5"/>
<path d="M17.1638 134.166C15.516 132.308 13.787 129.913 12.3074 127.166M114.664 18.1663C92.8885 -17.9644 67.1636 15.666 62.6641 45.6659C33.4641 48.4659 24.4972 77.1659 23.6638 91.1659C4.71247 101.589 6.75328 116.855 12.3074 127.166M114.664 18.1663C130.164 -1.83398 165.764 -11.3342 168.164 38.6658C192.331 44.8325 235.064 70.5658 212.664 124.166C221.164 132.499 237.264 151.566 233.664 161.166C235.478 167.973 233.122 169.756 220.164 167.666C213.258 179.574 206.711 180.584 191.164 174.166C178.181 188.037 170.292 193.512 151.164 184.166C136.858 194.53 128.479 199.119 107.164 185.666C83.2794 194.111 70.7216 195.954 53.6641 180.666C37.0806 185.633 30.6317 184.099 23.6638 174.166C10.2594 170.499 -10.778 155.966 12.3074 127.166M114.664 18.1663C110.789 23.166 108.664 28.6663 107.664 39.1659" stroke="#AD3415" stroke-width="4" stroke-linecap="round" stroke-linejoin="round"/>
<path d="M44.6636 166.666C44.6636 200.166 73.1636 199.166 82.6636 177.166L44.6636 166.666Z" fill="#FBF2E9"/>
<path d="M44.6636 166.666C44.6636 200.166 73.1636 199.166 82.6636 177.166" stroke="#AD3415" stroke-width="4" stroke-linecap="round" stroke-linejoin="round"/>
<path d="M92.1636 175.686C99.2339 208.431 126.881 201.439 131.524 177.929L92.1636 175.686Z" fill="#FBF2E9"/>
<path d="M92.1636 175.686C99.2339 208.431 126.881 201.439 131.524 177.929" stroke="#AD3415" stroke-width="4" stroke-linecap="round" stroke-linejoin="round"/>
<ellipse cx="124.664" cy="101.166" rx="6.5" ry="9.5" fill="#8A1E01"/>
<ellipse cx="63.9932" cy="98.7296" rx="6" ry="8.5" transform="rotate(5.80849 63.9932 98.7296)" fill="#8A1E01"/>
<path d="M79.5034 95.501C88.5638 94.3504 96.0074 94.5075 105.004 96.501L104.288 99.9083C96.3632 96.9779 89.7469 96.3209 80.0114 98.7017L79.5034 95.501Z" fill="#2D1207"/>
<defs>
<filter id="filter0_i_92_47" x="4.00391" y="156.538" width="232.272" height="99.9893" filterUnits="userSpaceOnUse" color-interpolation-filters="sRGB">
<feFlood flood-opacity="0" result="BackgroundImageFix"/>
<feBlend mode="normal" in="SourceGraphic" in2="BackgroundImageFix" result="shape"/>
<feColorMatrix in="SourceAlpha" type="matrix" values="0 0 0 0 0 0 0 0 0 0 0 0 0 0 0 0 0 0 127 0" result="hardAlpha"/>
<feOffset dy="-9.47401"/>
<feComposite in2="hardAlpha" operator="arithmetic" k2="-1" k3="1"/>
<feColorMatrix type="matrix" values="0 0 0 0 0.926056 0 0 0 0 0.49832 0 0 0 0 0.218493 0 0 0 0.6 0"/>
<feBlend mode="normal" in2="shape" result="effect1_innerShadow_92_47"/>
</filter>
<filter id="filter1_ii_92_47" x="0" y="0" width="236.202" height="195.99" filterUnits="userSpaceOnUse" color-interpolation-filters="sRGB">
<feFlood flood-opacity="0" result="BackgroundImageFix"/>
<feBlend mode="normal" in="SourceGraphic" in2="BackgroundImageFix" result="shape"/>
<feColorMatrix in="SourceAlpha" type="matrix" values="0 0 0 0 0 0 0 0 0 0 0 0 0 0 0 0 0 0 127 0" result="hardAlpha"/>
<feOffset dy="-9.47401"/>
<feComposite in2="hardAlpha" operator="arithmetic" k2="-1" k3="1"/>
<feColorMatrix type="matrix" values="0 0 0 0 0.960107 0 0 0 0 0.893479 0 0 0 0 0.82685 0 0 0 1 0"/>
<feBlend mode="normal" in2="shape" result="effect1_innerShadow_92_47"/>
<feColorMatrix in="SourceAlpha" type="matrix" values="0 0 0 0 0 0 0 0 0 0 0 0 0 0 0 0 0 0 127 0" result="hardAlpha"/>
<feOffset dx="-10"/>
<feComposite in2="hardAlpha" operator="arithmetic" k2="-1" k3="1"/>
<feColorMatrix type="matrix" values="0 0 0 0 0.960784 0 0 0 0 0.894118 0 0 0 0 0.827451 0 0 0 0.5 0"/>
<feBlend mode="normal" in2="effect1_innerShadow_92_47" result="effect2_innerShadow_92_47"/>
</filter>
</defs>
</svg>
