<svg width="233" height="242" viewBox="0 0 233 242" fill="none" xmlns="http://www.w3.org/2000/svg">
<g filter="url(#filter0_i_92_60)">
<path d="M17.5019 206.831C8.16829 188.096 1.33523 161.997 2.5019 148.831C77.8352 143.997 228.902 138.431 230.502 154.831C232.102 171.231 220.083 207.213 207.002 216.831C158.33 252.614 36.3699 244.702 17.5019 206.831Z" fill="#F0C5A3"/>
</g>
<path d="M17.5019 206.831C8.16829 188.096 1.33523 161.997 2.5019 148.831C77.8352 143.997 228.902 138.431 230.502 154.831C232.102 171.231 220.083 207.213 207.002 216.831C158.33 252.614 36.3699 244.702 17.5019 206.831Z" stroke="#743D25" stroke-width="4" stroke-linecap="round" stroke-linejoin="round"/>
<path d="M42.5076 182.831C42.8409 191.164 45.3076 209.131 52.5076 214.331" stroke="#743D25" stroke-width="4" stroke-linecap="round" stroke-linejoin="round"/>
<path d="M73.0076 190.831C73.3409 198.664 75.0076 215.531 79.0076 220.331" stroke="#743D25" stroke-width="4" stroke-linecap="round" stroke-linejoin="round"/>
<path d="M116.508 191.331C117.008 199.831 117.708 217.331 116.508 219.331" stroke="#743D25" stroke-width="4" stroke-linecap="round" stroke-linejoin="round"/>
<path d="M156.508 188.831C156.174 197.164 154.308 215.031 149.508 219.831" stroke="#743D25" stroke-width="4" stroke-linecap="round" stroke-linejoin="round"/>
<path d="M190.508 180.831C189.174 188.997 185.308 206.531 180.508 211.331" stroke="#743D25" stroke-width="4" stroke-linecap="round" stroke-linejoin="round"/>
<g filter="url(#filter1_ii_92_60)">
<path d="M68.5075 26.3307C33.3075 36.3307 25.1742 63.4974 25.5075 75.8307C-0.892529 84.6309 5.1742 109.164 11.5076 120.331C-1.69242 125.931 1.67424 142.331 5.00758 149.831C9.03426 159.09 13.4216 161.046 23.0076 161.831C33.4646 172.944 41.7662 173.322 58.5076 169.331C76.6968 179.83 87.3812 180.591 107.508 171.331C126.596 182.867 136.037 182.045 151.008 169.831C166.573 179.484 175.191 175.275 190.508 162.331C202.18 169.213 221.478 161.504 219.508 154.331C219.399 153.936 227.274 156.397 230.008 154.331C232.808 141.931 218.174 120.831 210.508 111.831C230.908 62.6306 198.674 38.3306 180.008 32.3306C183.008 30.3306 188.008 15.3306 172.008 7.33057C159.208 0.930566 148.008 15.6639 144.008 23.8306C137.208 18.6306 114.174 18.9974 103.508 19.8307C104.008 13.3307 94.0076 -1.66925 80.0076 2.83075C68.8076 6.43075 67.6742 19.9974 68.5075 26.3307Z" fill="#BE8C71"/>
</g>
<path d="M68.5075 26.3307C33.3075 36.3307 25.1742 63.4974 25.5075 75.8307C-0.892529 84.6309 5.1742 109.164 11.5076 120.331C-1.69242 125.931 1.67424 142.331 5.00758 149.831C9.03426 159.09 13.4216 161.046 23.0076 161.831C33.4646 172.944 41.7662 173.322 58.5076 169.331C76.6968 179.83 87.3812 180.591 107.508 171.331C126.596 182.867 136.037 182.045 151.008 169.831C166.573 179.484 175.191 175.275 190.508 162.331C202.18 169.213 221.478 161.504 219.508 154.331C219.399 153.936 227.274 156.397 230.008 154.331C232.808 141.931 218.174 120.831 210.508 111.831C230.908 62.6306 198.674 38.3306 180.008 32.3306C183.008 30.3306 188.008 15.3306 172.008 7.33057C159.208 0.930566 148.008 15.6639 144.008 23.8306C137.208 18.6306 114.174 18.9974 103.508 19.8307C104.008 13.3307 94.0076 -1.66925 80.0076 2.83075C68.8076 6.43075 67.6742 19.9974 68.5075 26.3307Z" stroke="#743D25" stroke-width="4" stroke-linecap="round" stroke-linejoin="round"/>
<path d="M57.5482 175.926C67.49 178.282 77.0983 173.658 79.0089 165.597C70.6649 153.316 63.0835 150.957 43.0064 157.063C41.0958 165.124 47.6063 173.569 57.5482 175.926Z" fill="#82553E"/>
<path d="M79.0089 165.597C77.0982 173.658 67.49 178.283 57.5481 175.926C47.6063 173.57 41.0957 165.125 43.0063 157.064" stroke="#743D25" stroke-width="4" stroke-linecap="round"/>
<path d="M110.001 178.792C120.215 179.05 128.664 172.545 128.873 164.263C114.238 157.799 106.151 157.819 91.8848 163.331C91.6762 171.613 99.7872 178.535 110.001 178.792Z" fill="#82553E"/>
<path d="M128.874 164.262C128.665 172.544 120.216 179.049 110.002 178.792C99.7876 178.534 91.6766 171.612 91.8853 163.331" stroke="#743D25" stroke-width="4" stroke-linecap="round"/>
<path d="M90.0664 83.1468C104.008 83.8306 108.776 102.412 107.606 114.837C106.437 127.262 96.6253 127.83 86.0076 126.83C75.3899 125.831 66.937 121.762 68.1065 109.337C69.276 96.9118 79.4487 82.1473 90.0664 83.1468Z" fill="#7D4F38"/>
<path d="M88.5076 100.331C88.2755 102.265 87.7416 105.162 86.8761 107.831M82.5076 114.331C84.4364 113.688 85.8772 110.911 86.8761 107.831M86.8761 107.831C87.9199 110.664 90.3076 116.331 91.5076 116.331" stroke="#5D270D" stroke-width="4" stroke-linecap="round" stroke-linejoin="round"/>
<path d="M116.508 86.8306C119.674 88.3306 126.908 91.2306 130.508 90.8306" stroke="#5D270D" stroke-width="4" stroke-linecap="round" stroke-linejoin="round"/>
<path d="M71.0571 84.4814C67.6341 85.2303 59.9337 86.4279 56.5161 85.2279" stroke="#5D270D" stroke-width="4" stroke-linecap="round" stroke-linejoin="round"/>
<ellipse cx="128.008" cy="106.831" rx="16.5" ry="12.5" fill="#FD9A7A" fill-opacity="0.5"/>
<ellipse cx="52.0076" cy="99.3306" rx="14.5" ry="11" fill="#FD9A7A" fill-opacity="0.5"/>
<ellipse cx="84.3706" cy="92.0297" rx="1.5" ry="2.5" transform="rotate(-8.75466 84.3706 92.0297)" fill="#5D270D"/>
<ellipse cx="94.7913" cy="93.1985" rx="1.5" ry="2.5" transform="rotate(20.6001 94.7913 93.1985)" fill="#5D270D"/>
<path d="M95.5078 21.3305C87.9611 24.7658 83.8177 25.2589 76.5078 24.8305C76.0076 23.3306 74.2972 10.9854 83.0078 9.33048C92.4408 7.53836 95.5078 18.8306 95.5078 21.3305Z" fill="#7D4F38"/>
<path d="M175.008 30.3306C165.565 31.5646 160.585 30.2616 152.026 25.8083C152.354 23.8717 157.695 9.33937 168.211 12.617C179.599 16.1665 176.469 27.5902 175.008 30.3306Z" fill="#7D4F38"/>
<path d="M172.508 27.8306C172.508 30.3158 170.352 32.3306 167.693 32.3306C165.034 32.3306 162.508 30.3158 162.508 27.8306C162.508 25.3453 165.034 23.3306 167.693 23.3306C170.352 23.3306 172.508 25.3453 172.508 27.8306Z" fill="#BBB1B1"/>
<path d="M177.258 27.8306C177.258 31.4204 174.347 34.3306 170.758 34.3306C167.168 34.3306 163.758 31.4204 163.758 27.8306C163.758 24.2407 167.168 21.3306 170.758 21.3306C174.347 21.3306 177.258 24.2407 177.258 27.8306Z" fill="#D9D9D9"/>
<path d="M88.0076 21.8306C88.0076 25.4204 85.0974 28.3306 81.5076 28.3306C77.9177 28.3306 74.5076 25.4204 74.5076 21.8306C74.5076 18.2407 77.9177 15.3306 81.5076 15.3306C85.0974 15.3306 88.0076 18.2407 88.0076 21.8306Z" fill="#D9D9D9"/>
<path d="M170.508 32.8306V49.8306" stroke="#D9D9D9" stroke-width="4"/>
<path d="M170.508 42.3306V53.3306" stroke="#D9D9D9" stroke-width="2"/>
<path d="M75.3499 32.0669L69.5077 41.3872" stroke="#D9D9D9" stroke-width="2"/>
<path d="M80.741 24.3306L71.4469 38.565" stroke="#D9D9D9" stroke-width="4"/>
<path d="M69.5076 41.3306C60.0076 51.9972 44.0074 70.3306 35.0075 76.8306C22.915 85.564 20.0076 95.3306 19.0076 105.331C18.0902 114.504 25.0075 123.831 35.0075 129.831C41.0252 133.441 80.0075 147.331 85.0075 159.831C90.0075 172.331 85.0075 171.664 85.0075 175.831" stroke="#D9D9D9"/>
<path d="M170.508 52.8306C179.008 64.8306 173.008 87.3306 184.508 95.3306C196.754 103.848 198.508 126.331 191.008 136.331C185.476 143.706 180.008 148.331 168.507 150.331C157.007 152.331 133.007 149.331 114.007 148.331C95.0075 147.331 85.5076 157.164 85.5076 161.331" stroke="#D9D9D9"/>
<defs>
<filter id="filter0_i_92_60" x="0.372314" y="141.867" width="232.273" height="99.9893" filterUnits="userSpaceOnUse" color-interpolation-filters="sRGB">
<feFlood flood-opacity="0" result="BackgroundImageFix"/>
<feBlend mode="normal" in="SourceGraphic" in2="BackgroundImageFix" result="shape"/>
<feColorMatrix in="SourceAlpha" type="matrix" values="0 0 0 0 0 0 0 0 0 0 0 0 0 0 0 0 0 0 127 0" result="hardAlpha"/>
<feOffset dy="-9.47401"/>
<feComposite in2="hardAlpha" operator="arithmetic" k2="-1" k3="1"/>
<feColorMatrix type="matrix" values="0 0 0 0 0.981181 0 0 0 0 0.826823 0 0 0 0 0.525458 0 0 0 0.6 0"/>
<feBlend mode="normal" in2="shape" result="effect1_innerShadow_92_60"/>
</filter>
<filter id="filter1_ii_92_60" x="0" y="0" width="232.359" height="181.508" filterUnits="userSpaceOnUse" color-interpolation-filters="sRGB">
<feFlood flood-opacity="0" result="BackgroundImageFix"/>
<feBlend mode="normal" in="SourceGraphic" in2="BackgroundImageFix" result="shape"/>
<feColorMatrix in="SourceAlpha" type="matrix" values="0 0 0 0 0 0 0 0 0 0 0 0 0 0 0 0 0 0 127 0" result="hardAlpha"/>
<feOffset dy="-9.47401"/>
<feComposite in2="hardAlpha" operator="arithmetic" k2="-1" k3="1"/>
<feColorMatrix type="matrix" values="0 0 0 0 0.74062 0 0 0 0 0.486208 0 0 0 0 0.348826 0 0 0 0.5 0"/>
<feBlend mode="normal" in2="shape" result="effect1_innerShadow_92_60"/>
<feColorMatrix in="SourceAlpha" type="matrix" values="0 0 0 0 0 0 0 0 0 0 0 0 0 0 0 0 0 0 127 0" result="hardAlpha"/>
<feOffset dx="-5" dy="5"/>
<feComposite in2="hardAlpha" operator="arithmetic" k2="-1" k3="1"/>
<feColorMatrix type="matrix" values="0 0 0 0 0.74062 0 0 0 0 0.486208 0 0 0 0 0.348826 0 0 0 0.5 0"/>
<feBlend mode="normal" in2="effect1_innerShadow_92_60" result="effect2_innerShadow_92_60"/>
</filter>
</defs>
</svg>
