<svg width="254" height="284" viewBox="0 0 254 284" fill="none" xmlns="http://www.w3.org/2000/svg">
<g filter="url(#filter0_i_106_81)">
<path d="M21.1313 248.5C11.7977 229.766 4.96462 203.667 6.13129 190.5C81.4646 185.667 232.531 180.1 234.131 196.5C235.731 212.9 223.712 248.883 210.631 258.5C161.959 294.284 39.9993 286.371 21.1313 248.5Z" fill="#FEFAB3"/>
</g>
<path d="M21.1313 248.5C11.7977 229.766 4.96462 203.667 6.13129 190.5C81.4646 185.667 232.531 180.1 234.131 196.5C235.731 212.9 223.712 248.883 210.631 258.5C161.959 294.284 39.9993 286.371 21.1313 248.5Z" stroke="#EABA62" stroke-width="4" stroke-linecap="round" stroke-linejoin="round"/>
<path d="M46.137 224.5C46.4703 232.833 48.937 250.8 56.137 256" stroke="#EABA62" stroke-width="4" stroke-linecap="round" stroke-linejoin="round"/>
<path d="M76.637 232.5C76.9703 240.333 78.637 257.2 82.637 262" stroke="#EABA62" stroke-width="4" stroke-linecap="round" stroke-linejoin="round"/>
<path d="M120.137 233C120.637 241.5 121.337 259 120.137 261" stroke="#EABA62" stroke-width="4" stroke-linecap="round" stroke-linejoin="round"/>
<path d="M160.137 230.5C159.804 238.833 157.937 256.7 153.137 261.5" stroke="#EABA62" stroke-width="4" stroke-linecap="round" stroke-linejoin="round"/>
<path d="M194.137 222.5C192.804 230.667 188.937 248.2 184.137 253" stroke="#EABA62" stroke-width="4" stroke-linecap="round" stroke-linejoin="round"/>
<g filter="url(#filter1_ii_106_81)">
<path d="M24.7882 108.368C5.18816 116.368 8.28816 137.702 12.2882 147.368C-7.85489 182.22 9.11788 199.682 22.2883 196.868C32.2151 209.83 41.1997 209.79 58.7883 206.368C76.4993 219.076 87.2786 218.882 107.288 211.868C127.169 219.427 137.037 218.811 151.788 206.868C169.383 215.199 177.536 211.584 190.788 198.868C203.802 203.591 210.39 203.692 218.788 191.868C226.922 195.091 230.906 194.538 236.788 188.368C267.788 160.368 244.788 146.368 241.288 145.368C238.488 144.568 228.769 155.368 224.259 160.868C222.416 155.075 218.989 152.207 216.788 151.368C224.788 122.568 212.455 94.2015 203.288 84.8682C185.788 29.8682 156.455 47.0348 144.788 60.8682C134.788 50.4682 113.955 53.8682 104.788 56.8682C111.588 42.0682 95.6216 40.3682 86.7883 41.3682C43.9883 45.3682 27.6215 87.7016 24.7882 108.368Z" fill="#FDFFF4"/>
</g>
<g filter="url(#filter2_i_106_81)">
<path d="M153.288 207.368C149.288 162.568 194.288 151.701 217.288 151.868L223.788 159.368L240.788 145.368C247.788 148.201 258.888 158.468 247.288 176.868C235.688 195.268 223.455 194.868 218.788 192.368C211.988 205.568 197.288 202.535 190.788 199.368C175.188 214.168 159.288 210.868 153.288 207.368Z" fill="#EAAE78"/>
</g>
<g filter="url(#filter3_i_106_81)">
<path d="M29.7883 202.868C44.1883 178.468 23.1217 158.368 10.7883 151.368C-7.21167 184.968 10.2883 195.701 21.2883 196.868L29.7883 202.868Z" fill="#EAAE78"/>
</g>
<g filter="url(#filter4_i_106_81)">
<path d="M97.2883 105.868C62.0883 157.468 18.7883 144.368 11.7883 120.368C11.7883 116.769 21.1217 110.535 25.7883 107.868C24.2883 88.3682 47.2883 49.3685 80.2883 42.3685C106.688 36.7685 108.622 49.7019 106.288 56.8685C124.288 49.6685 139.788 56.5351 145.288 60.8684C177.288 28.0684 196.955 63.5351 202.788 85.3684C211.588 93.3684 215.788 107.368 216.788 113.368C152.388 178.168 110.288 135.368 97.2883 105.868Z" fill="#EAAE78"/>
</g>
<path d="M77.7883 131.368C79.955 135.035 85.5883 139.568 90.7883 128.368C93.1217 134.868 99.2883 145.268 105.288 134.868" stroke="#D07641" stroke-width="4" stroke-linecap="round" stroke-linejoin="round"/>
<path d="M224.288 174.233C224.882 168.591 224.346 164.152 223.259 160.733M223.259 160.733C221.416 154.94 217.989 152.071 215.788 151.233C223.788 122.433 211.455 94.0662 202.288 84.7329C184.788 29.7329 155.455 46.8996 143.788 60.7329C133.788 50.3329 112.955 53.733 103.788 56.733C110.588 41.933 94.6216 40.233 85.7883 41.233C42.9883 45.233 26.6215 87.5663 23.7882 108.233C4.18816 116.233 7.28816 137.566 11.2882 147.233C-8.85489 182.085 8.11788 199.546 21.2883 196.733C31.2151 209.695 40.1997 209.654 57.7883 206.233C75.4993 218.941 86.2786 218.747 106.288 211.733C126.169 219.292 136.037 218.675 150.788 206.733C168.383 215.064 176.536 211.449 189.788 198.733C202.802 203.456 209.39 203.556 217.788 191.733C225.922 194.956 229.906 194.403 235.788 188.233C266.788 160.233 243.788 146.233 240.288 145.233C237.488 144.433 227.769 155.233 223.259 160.733Z" stroke="#D07641" stroke-width="4" stroke-linecap="round" stroke-linejoin="round"/>
<path d="M178.288 64.3682C178.288 67.958 174.483 68.8682 169.788 68.8682C165.094 68.8682 161.288 67.958 161.288 64.3682C161.288 60.7783 165.094 55.8682 169.788 55.8682C174.483 55.8682 178.288 60.7783 178.288 64.3682Z" fill="#F0865C"/>
<path d="M131.788 68.8681C131.788 76.6001 119.811 90.8681 114.288 90.8681C105.259 90.9199 102.691 75.3351 105.788 66.3682C108.313 59.06 116.282 58.4445 121.788 58.8681C128.288 59.3681 131.788 61.1361 131.788 68.8681Z" fill="#D1955F" fill-opacity="0.5"/>
<path d="M155.789 90.7217C154.209 80.2032 164.842 67.5325 173.288 68.7218C182.229 69.9806 184.886 84.2548 181.788 93.2217C179.264 100.53 171.295 101.145 165.789 100.722C159.289 100.222 156.936 98.368 155.789 90.7217Z" fill="#D1955F" fill-opacity="0.5"/>
<path d="M58.2232 78.4956C58.6729 67.9464 70.4691 57.2812 77.8411 59.8208C85.6451 62.5092 85.4959 76.9086 81.1226 85.1775C77.5583 91.9169 70.2947 91.2209 65.4259 89.9093C59.6788 88.361 57.8962 86.1641 58.2232 78.4956Z" fill="#D1955F" fill-opacity="0.5"/>
<path d="M87.2883 59.3682C87.2883 62.958 83.4827 63.8682 78.7883 63.8682C74.0939 63.8682 70.2883 62.958 70.2883 59.3682C70.2883 55.7783 77.5939 50.3682 82.2883 50.3682C86.9827 50.3682 87.2883 55.7783 87.2883 59.3682Z" fill="#F0865C"/>
<ellipse cx="29.0051" cy="124.089" rx="2.5" ry="4" transform="rotate(-58.5238 29.0051 124.089)" fill="#D4834E"/>
<ellipse cx="2.5" cy="4" rx="2.5" ry="4" transform="matrix(-0.164653 -0.986352 -0.986352 0.164653 162.649 135.861)" fill="#D4834E"/>
<ellipse cx="27.0051" cy="132.089" rx="2.5" ry="4" transform="rotate(-85.5312 27.0051 132.089)" fill="#D4834E"/>
<ellipse cx="2.5" cy="4" rx="2.5" ry="4" transform="matrix(0.30121 -0.953558 -0.953558 -0.30121 160.21 145.81)" fill="#D4834E"/>
<path d="M44.2884 186.368C41.2883 224.368 72.2884 218.368 80.7884 200.368L44.2884 186.368Z" fill="#FDFFF4"/>
<path d="M44.2884 186.368C41.2883 224.368 72.2884 218.368 80.7884 200.368" stroke="#D07641" stroke-width="4" stroke-linecap="round" stroke-linejoin="round"/>
<path d="M131.587 195.123C128.861 233.143 99.1094 222.567 93.402 203.497L131.587 195.123Z" fill="#FDFFF4"/>
<path d="M131.587 195.123C128.861 233.143 99.1094 222.567 93.402 203.497" stroke="#D07641" stroke-width="4" stroke-linecap="round" stroke-linejoin="round"/>
<ellipse cx="63.7883" cy="191.368" rx="12.5" ry="8.5" fill="#D09460" fill-opacity="0.5"/>
<ellipse cx="12.5" cy="8.5" rx="12.5" ry="8.5" transform="matrix(-0.988714 -0.149813 -0.149813 0.988714 125.191 190.613)" fill="#D09460" fill-opacity="0.5"/>
<ellipse cx="200.789" cy="181.868" rx="12.5" ry="12" fill="#D09460" fill-opacity="0.5"/>
<ellipse cx="130.788" cy="137.368" rx="9.5" ry="7.5" fill="#F0865C"/>
<ellipse cx="61.7883" cy="130.368" rx="9.5" ry="7.5" fill="#F0865C"/>
<ellipse cx="165.59" cy="158.538" rx="8" ry="5" transform="rotate(-22.3857 165.59 158.538)" fill="#F0EBD5" fill-opacity="0.5"/>
<path d="M57.726 165.04C57.1586 167.072 53.2488 167.756 48.9934 166.567C44.7379 165.379 41.7482 162.768 42.3157 160.736C42.8831 158.704 45.337 161.731 49.5924 162.919C53.8479 164.108 58.2934 163.008 57.726 165.04Z" fill="#F0EBD5" fill-opacity="0.5"/>
<path d="M140.295 169.769C140.31 171.879 136.741 173.616 132.323 173.648C127.905 173.681 124.311 171.997 124.295 169.888C124.279 167.778 127.474 170.009 131.892 169.977C136.31 169.944 140.279 167.66 140.295 169.769Z" fill="#F0EBD5" fill-opacity="0.5"/>
<path d="M89.736 184.123C92.0129 184.495 93.486 189.955 92.8894 193.598C92.2927 197.241 89.8522 197.688 87.5754 197.315C85.2985 196.942 84.0476 195.891 84.6443 192.248C85.2409 188.605 87.4592 183.75 89.736 184.123Z" fill="#F0EBD5" fill-opacity="0.5"/>
<path d="M239.788 169.368C237.697 172.286 232.598 172.955 230.353 171.347C228.109 169.738 227.984 166.069 230.075 163.151C232.166 160.233 235.958 156.76 238.203 158.368C240.447 159.977 241.879 166.45 239.788 169.368Z" fill="#D09460" fill-opacity="0.5"/>
<ellipse cx="16.7339" cy="178.142" rx="12.5" ry="8.5" transform="rotate(75 16.7339 178.142)" fill="#D09762" fill-opacity="0.5"/>
<ellipse cx="68.1502" cy="119.572" rx="7.5" ry="10" transform="rotate(4.99613 68.1502 119.572)" fill="#7B2F0F"/>
<ellipse cx="124.426" cy="125.164" rx="7.5" ry="10" transform="rotate(4.99613 124.426 125.164)" fill="#7B2F0F"/>
<path d="M133.037 60.4999C79.3682 68.3111 83.7084 46.4641 96.5015 41.277C106.353 25.5716 147.962 23.0888 155.475 43.4129C173.382 69.5626 142.398 68.4331 133.037 60.4999Z" fill="white" stroke="#F6F5E4" stroke-width="4"/>
<path d="M124.49 10.4975C124.772 8.78968 126.943 8.22207 128.025 9.57339L134.677 17.8836C135.123 18.4409 135.833 18.7182 136.538 18.6111L147.063 17.0145C148.774 16.7549 149.985 18.6443 149.034 20.0906L143.186 28.9851C142.794 29.5817 142.749 30.342 143.069 30.9802L147.84 40.4961C148.616 42.0434 147.193 43.7787 145.524 43.3213L135.257 40.5082C134.569 40.3195 133.832 40.5122 133.324 41.0137L125.748 48.4914C124.516 49.7074 122.426 48.8905 122.345 47.1614L121.848 36.5283C121.815 35.8152 121.404 35.1739 120.77 34.8456L111.317 29.9513C109.78 29.1555 109.911 26.9153 111.53 26.3041L121.489 22.5455C122.157 22.2935 122.64 21.7045 122.757 21.0001L124.49 10.4975Z" fill="#FEFAB3" stroke="#FFE990" stroke-width="3"/>
<path d="M107.001 48.8383C114.293 45.9647 131.501 42.7741 142.001 53" stroke="white" stroke-width="10" stroke-linecap="round"/>
<path d="M107.001 43.8383C114.293 40.9647 131.501 37.7741 142.001 48" stroke="#F6F5E4" stroke-width="4" stroke-linecap="round"/>
<path d="M109.838 36.6925C110.263 36.1373 111.145 36.348 111.274 37.0355L112.064 41.2635C112.117 41.5471 112.317 41.7809 112.589 41.877L116.645 43.31C117.304 43.5431 117.377 44.4469 116.762 44.7816L112.986 46.8399C112.732 46.9779 112.572 47.2405 112.564 47.5289L112.455 51.8288C112.437 52.528 111.6 52.8759 111.091 52.3952L107.967 49.4393C107.757 49.241 107.458 49.1695 107.181 49.2516L103.058 50.4761C102.388 50.6752 101.798 49.9863 102.098 49.3546L103.944 45.4694C104.068 45.2089 104.043 44.9021 103.879 44.6645L101.441 41.1213C101.044 40.5452 101.517 39.7715 102.211 39.8617L106.476 40.4166C106.762 40.4538 107.046 40.3357 107.222 40.1067L109.838 36.6925Z" fill="#FEFAB3" stroke="#FFE990" stroke-width="2"/>
<defs>
<filter id="filter0_i_106_81" x="4.00171" y="183.537" width="232.273" height="99.9893" filterUnits="userSpaceOnUse" color-interpolation-filters="sRGB">
<feFlood flood-opacity="0" result="BackgroundImageFix"/>
<feBlend mode="normal" in="SourceGraphic" in2="BackgroundImageFix" result="shape"/>
<feColorMatrix in="SourceAlpha" type="matrix" values="0 0 0 0 0 0 0 0 0 0 0 0 0 0 0 0 0 0 127 0" result="hardAlpha"/>
<feOffset dy="-9.47401"/>
<feComposite in2="hardAlpha" operator="arithmetic" k2="-1" k3="1"/>
<feColorMatrix type="matrix" values="0 0 0 0 0.93093 0 0 0 0 0.904059 0 0 0 0 0.427094 0 0 0 0.6 0"/>
<feBlend mode="normal" in2="shape" result="effect1_innerShadow_106_81"/>
</filter>
<filter id="filter1_ii_106_81" x="3.00146" y="41.1353" width="249.777" height="175.699" filterUnits="userSpaceOnUse" color-interpolation-filters="sRGB">
<feFlood flood-opacity="0" result="BackgroundImageFix"/>
<feBlend mode="normal" in="SourceGraphic" in2="BackgroundImageFix" result="shape"/>
<feColorMatrix in="SourceAlpha" type="matrix" values="0 0 0 0 0 0 0 0 0 0 0 0 0 0 0 0 0 0 127 0" result="hardAlpha"/>
<feOffset dy="-9.47401"/>
<feComposite in2="hardAlpha" operator="arithmetic" k2="-1" k3="1"/>
<feColorMatrix type="matrix" values="0 0 0 0 0.996078 0 0 0 0 0.87451 0 0 0 0 0.560784 0 0 0 0.25 0"/>
<feBlend mode="normal" in2="shape" result="effect1_innerShadow_106_81"/>
<feColorMatrix in="SourceAlpha" type="matrix" values="0 0 0 0 0 0 0 0 0 0 0 0 0 0 0 0 0 0 127 0" result="hardAlpha"/>
<feOffset dx="-20"/>
<feComposite in2="hardAlpha" operator="arithmetic" k2="-1" k3="1"/>
<feColorMatrix type="matrix" values="0 0 0 0 0.996078 0 0 0 0 0.87451 0 0 0 0 0.560784 0 0 0 0.25 0"/>
<feBlend mode="normal" in2="effect1_innerShadow_106_81" result="effect2_innerShadow_106_81"/>
</filter>
<filter id="filter2_i_106_81" x="153.038" y="145.368" width="99.2927" height="64.981" filterUnits="userSpaceOnUse" color-interpolation-filters="sRGB">
<feFlood flood-opacity="0" result="BackgroundImageFix"/>
<feBlend mode="normal" in="SourceGraphic" in2="BackgroundImageFix" result="shape"/>
<feColorMatrix in="SourceAlpha" type="matrix" values="0 0 0 0 0 0 0 0 0 0 0 0 0 0 0 0 0 0 127 0" result="hardAlpha"/>
<feOffset dy="-5"/>
<feComposite in2="hardAlpha" operator="arithmetic" k2="-1" k3="1"/>
<feColorMatrix type="matrix" values="0 0 0 0 0.996078 0 0 0 0 0.87451 0 0 0 0 0.560784 0 0 0 0.25 0"/>
<feBlend mode="normal" in2="shape" result="effect1_innerShadow_106_81"/>
</filter>
<filter id="filter3_i_106_81" x="3.03174" y="151.368" width="31.6072" height="51.5" filterUnits="userSpaceOnUse" color-interpolation-filters="sRGB">
<feFlood flood-opacity="0" result="BackgroundImageFix"/>
<feBlend mode="normal" in="SourceGraphic" in2="BackgroundImageFix" result="shape"/>
<feColorMatrix in="SourceAlpha" type="matrix" values="0 0 0 0 0 0 0 0 0 0 0 0 0 0 0 0 0 0 127 0" result="hardAlpha"/>
<feOffset dy="-5"/>
<feComposite in2="hardAlpha" operator="arithmetic" k2="-1" k3="1"/>
<feColorMatrix type="matrix" values="0 0 0 0 0.996078 0 0 0 0 0.87451 0 0 0 0 0.560784 0 0 0 0.5 0"/>
<feBlend mode="normal" in2="shape" result="effect1_innerShadow_106_81"/>
</filter>
<filter id="filter4_i_106_81" x="11.7883" y="41" width="205" height="106.265" filterUnits="userSpaceOnUse" color-interpolation-filters="sRGB">
<feFlood flood-opacity="0" result="BackgroundImageFix"/>
<feBlend mode="normal" in="SourceGraphic" in2="BackgroundImageFix" result="shape"/>
<feColorMatrix in="SourceAlpha" type="matrix" values="0 0 0 0 0 0 0 0 0 0 0 0 0 0 0 0 0 0 127 0" result="hardAlpha"/>
<feOffset dx="-5" dy="5"/>
<feComposite in2="hardAlpha" operator="arithmetic" k2="-1" k3="1"/>
<feColorMatrix type="matrix" values="0 0 0 0 0.996078 0 0 0 0 0.87451 0 0 0 0 0.560784 0 0 0 0.25 0"/>
<feBlend mode="normal" in2="shape" result="effect1_innerShadow_106_81"/>
</filter>
</defs>
</svg>
