<svg width="124" height="33" viewBox="0 0 124 33" fill="none" xmlns="http://www.w3.org/2000/svg">
<path d="M121 20.0593C115.043 17.1333 111.718 17.1854 105.759 20.0593C99.1018 24.0287 95.44 23.9315 89.0422 20.0593C82.0051 16.2765 78.117 15.8935 71.3422 20.0593C64.8127 23.333 61.1526 23.4589 54.6255 20.0593C47.8252 16.4174 44.191 16.4869 37.9088 20.0593C30.9894 23.7445 27.3293 23.7438 21.1922 20.0593C14.08 15.983 10.1205 15.978 3.00049 20.0593" stroke="#A96C8D" stroke-width="6" stroke-linecap="round"/>
<path d="M4.40625 6C4.40625 2.68629 7.09254 0 10.4062 0H113.406C116.72 0 119.406 2.68629 119.406 6V20H4.40625V6Z" fill="#A96C8D"/>
<path d="M3.99609 15H118.996" stroke="#D8424B" stroke-width="2" stroke-linecap="round"/>
<path d="M17.2862 16.5864C20.7169 15.0837 26.0907 14.5061 26.0471 19.5971C25.9926 25.9608 20.0903 19.439 17.2862 16.5864ZM17.2862 16.5864C16.4865 13.6332 14.7055 9.12705 12.1672 8.25674C8.99447 7.16886 2.81823 13.2803 16.9357 16.2298C15.0279 18.8063 5.95865 19.9984 2.5792 18.2724M17.2862 16.5864C15.9646 19.5215 8.12769 25.3465 10.371 27.6286" stroke="#D8424B" stroke-width="2" stroke-linecap="round"/>
</svg>
