<svg width="141" height="32" viewBox="0 0 141 32" fill="none" xmlns="http://www.w3.org/2000/svg">
<path d="M3.00098 19.5494C9.81626 17.1111 13.621 17.1545 20.4385 19.5494C28.0546 22.8572 32.2439 22.7763 39.5635 19.5494C47.6144 16.3971 52.0626 16.0779 59.8135 19.5494C67.2836 22.2775 71.4711 22.3824 78.9385 19.5494C86.7185 16.5145 90.8762 16.5724 98.0635 19.5494C105.98 22.6204 110.167 22.6199 117.188 19.5494C125.325 16.1525 129.855 16.1483 138.001 19.5494" stroke="#E58E48" stroke-width="6" stroke-linecap="round"/>
<path d="M4.00098 6C4.00098 2.68629 6.68727 0 10.001 0H130.001C133.315 0 136.001 2.68629 136.001 6V20H4.00098V6Z" fill="#E58E48"/>
<path d="M4.00098 15H136.001" stroke="#566793" stroke-width="2" stroke-linecap="round"/>
<path d="M116.461 14.9007C116.262 11.1606 117.613 5.9274 122.363 7.76013C128.3 10.051 120.118 13.2801 116.461 14.9007ZM116.461 14.9007C113.415 14.6098 108.571 14.6908 106.863 16.7603C104.728 19.3471 108.274 27.2792 116.004 15.1033C117.744 17.7958 115.668 26.7044 112.863 29.26M116.461 14.9007C118.743 17.1708 121.437 26.5565 124.363 25.26" stroke="#566793" stroke-width="2" stroke-linecap="round"/>
</svg>
