<svg width="122" height="26" viewBox="0 0 122 26" fill="none" xmlns="http://www.w3.org/2000/svg">
<path d="M3.00049 20.0593C8.85658 17.1333 12.1258 17.1854 17.9838 20.0593C24.528 24.0287 28.1277 23.9315 34.4172 20.0593C41.3349 16.2765 45.1571 15.8935 51.8172 20.0593C58.2359 23.333 61.834 23.4589 68.2505 20.0593C74.9356 16.4174 78.5081 16.4869 84.6838 20.0593C91.486 23.7445 95.084 23.7438 101.117 20.0593C108.109 15.983 112.001 15.978 119 20.0593" stroke="#AC9FC2" stroke-width="6" stroke-linecap="round"/>
<path d="M4.00049 6C4.00049 2.68629 6.68678 0 10.0005 0H111C114.314 0 117 2.68629 117 6V20H4.00049V6Z" fill="#AC9FC2"/>
<path d="M4.00049 15H117" stroke="#DD4947" stroke-width="2" stroke-linecap="round"/>
</svg>
