<svg width="111" height="26" viewBox="0 0 111 26" fill="none" xmlns="http://www.w3.org/2000/svg">
<path d="M108 20.0593C102.7 17.1333 99.7405 17.1854 94.438 20.0593C88.5144 24.0287 85.256 23.9315 79.563 20.0593C73.3012 16.2765 69.8415 15.8935 63.813 20.0593C58.0029 23.333 54.746 23.4589 48.938 20.0593C42.8868 16.4174 39.6531 16.4869 34.063 20.0593C27.9059 23.7445 24.649 23.7438 19.188 20.0593C12.8594 15.983 9.33609 15.978 3.00049 20.0593" stroke="#E8ADE3" stroke-width="6" stroke-linecap="round"/>
<path d="M5.00049 6C5.00049 2.68629 7.68678 0 11.0005 0H101C104.314 0 107 2.68629 107 6V20H5.00049V6Z" fill="#E8ADE3"/>
<path d="M5.00049 15H107" stroke="#A96C8D" stroke-width="2" stroke-linecap="round"/>
</svg>
