<svg width="300" height="564" viewBox="0 0 300 564" fill="none" xmlns="http://www.w3.org/2000/svg">
<g filter="url(#filter0_i_54_729)">
<path d="M20 51H250L228.418 177.68C227.599 182.485 223.434 186 218.56 186H51.4404C46.5656 186 42.4012 182.485 41.5824 177.68L20 51Z" fill="#C76A49"/>
</g>
<g filter="url(#filter1_iii_54_729)">
<path d="M101 272C101 293.815 76.5 317.5 76.5 317.5C76.5 317.5 51 293.815 51 272C51 250.185 76.5 238.5 76.5 238.5C76.5 238.5 101 250.185 101 272Z" fill="#193505"/>
</g>
<path d="M76.5488 239.083C76.7245 239.172 76.9846 239.306 77.3154 239.484C77.9772 239.842 78.9252 240.379 80.0635 241.091C82.3413 242.515 85.3773 244.639 88.4111 247.437C94.4873 253.04 100.5 261.291 100.5 272C100.5 282.744 94.4545 294.011 88.3418 302.642C85.293 306.946 82.2437 310.574 79.9561 313.125C78.8126 314.4 77.8602 315.406 77.1943 316.092C76.9035 316.391 76.6656 316.628 76.4922 316.802C76.3111 316.628 76.0622 316.387 75.7559 316.084C75.0627 315.398 74.071 314.392 72.8809 313.117C70.4997 310.566 67.3255 306.938 64.1523 302.634C57.7891 294.002 51.5 282.738 51.5 272C51.5 261.299 57.7545 253.049 64.082 247.443C67.2407 244.645 70.4016 242.52 72.7734 241.095C73.9587 240.383 74.9456 239.846 75.6348 239.488C75.9793 239.309 76.2495 239.175 76.4326 239.086C76.4544 239.075 76.4748 239.065 76.4941 239.056C76.5113 239.064 76.5296 239.073 76.5488 239.083Z" stroke="#172F06"/>
<path d="M74.6041 154.743C74.0001 160.194 74.1059 165.55 75.6779 171.121C77.5952 177.983 81.1306 185.051 81.8983 192.981C82.2694 196.579 82.2134 200.219 81.7489 203.805C81.2453 207.685 80.7974 211.652 80.3769 215.595C79.6 222.914 78.9116 230.24 78.2911 237.596C77.6745 244.935 77.1259 252.296 76.7113 259.659C76.4333 264.643 76.2104 269.672 76.1422 274.67C76.1133 276.834 76.1173 279.075 76.1873 281.253C76.2379 282.838 76.3309 284.546 76.5229 286.148C76.5508 286.378 76.5522 286.594 76.5244 286.755C76.4964 286.915 76.4416 287.011 76.3682 287.025C76.2949 287.039 76.2075 286.97 76.1241 286.826C76.0409 286.682 75.9692 286.473 75.9236 286.241C75.6042 284.614 75.3877 282.884 75.2138 281.276C75.0186 279.437 74.8722 277.594 74.7507 275.75C75.0485 275.453 75.2689 275.054 75.354 274.291C75.3974 273.899 75.4087 273.369 75.3449 272.959C75.2877 272.594 75.1925 272.316 75.1021 272.051C75.0075 271.771 74.9181 271.511 74.8843 271.183C74.827 270.623 74.6931 270.082 74.554 269.506C74.5033 269.298 74.4519 269.078 74.4034 268.868C74.3371 267.124 74.285 265.365 74.2445 263.586C74.285 262.917 74.3202 262.294 74.316 261.762C74.3122 261.286 74.2553 260.836 74.1827 260.41C74.1783 260.14 74.1742 259.869 74.1703 259.598C74.1456 257.83 74.1304 256.082 74.1237 254.318C74.2459 252.955 74.3716 251.514 74.4748 249.651C74.5195 248.842 74.5941 248.055 74.6671 247.294C74.7748 246.169 74.8789 245.11 74.876 244.181C74.8741 243.559 74.9472 242.906 75.0208 242.257C75.1195 241.386 75.2196 240.517 75.1414 239.721C75.0922 239.221 75.0255 238.759 74.964 238.332C74.866 237.652 74.781 237.058 74.8017 236.526C74.8407 235.525 74.7926 234.651 74.7508 233.885C74.7003 232.967 74.6603 232.182 74.7936 231.513C74.8138 231.412 74.8395 231.296 74.8688 231.165C75.0227 230.481 75.2702 229.369 75.2748 227.771C75.2762 227.205 75.2206 226.661 75.1663 226.129C75.0873 225.355 75.0109 224.616 75.1225 223.826C75.1393 223.707 75.1832 223.585 75.2234 223.474C75.2745 223.333 75.3191 223.21 75.2932 223.133C75.2175 222.909 75.1413 222.556 75.0585 222.175C74.9977 221.895 74.9334 221.599 74.8632 221.327C74.9638 219.257 75.0745 217.199 75.1973 215.151C75.2555 214.189 75.3124 213.275 75.3761 212.318C75.556 211.841 75.7234 211.358 75.8633 210.852C76.0444 210.211 76.1674 209.283 76.323 208.176C76.4384 207.353 76.5789 206.358 76.7808 205.251C76.9017 204.576 77.0041 203.913 77.0896 203.288C77.2758 201.933 77.3121 200.691 77.2817 199.788C77.2724 199.513 77.2595 199.232 77.2421 198.928C77.1664 197.79 77.0871 196.378 76.6932 193.724C76.3083 191.215 75.8275 189.103 75.4231 187.516C75.2143 186.699 75.0279 186.034 74.869 185.516C74.5995 184.637 74.2568 183.556 73.8933 182.467C73.3255 180.765 72.7132 179.03 72.3435 178.048C72.2113 177.699 72.0694 177.332 71.9171 176.934C71.4967 175.831 70.9816 174.49 70.3953 172.565C69.7853 170.54 69.5226 169.223 69.3225 167.853C69.2423 167.295 69.2678 166.779 69.3036 166.257C69.3545 165.511 69.4198 164.742 69.2536 163.73C69.2149 163.493 69.1608 163.237 69.1075 162.978C69.009 162.497 68.9103 161.968 68.905 161.415C68.9034 161.225 68.927 161.058 68.9509 160.894C68.9773 160.713 69.0041 160.535 68.9999 160.334C68.9839 159.577 68.9754 158.86 68.9819 158.208C68.9906 157.357 69.0227 156.681 69.08 156.242C69.1829 155.455 69.2151 154.642 69.2788 153.771C69.3272 153.11 69.3863 152.473 69.501 151.834C69.748 150.454 70.0669 148.71 70.5048 146.81C70.6128 146.322 70.7166 145.799 70.8147 145.246C70.9633 144.391 71.1958 143.653 71.4717 142.725C71.64 142.163 71.8373 141.457 72.0246 140.633C72.1311 140.164 72.1328 139.743 72.1334 139.349C72.1341 138.985 72.1333 138.646 72.2088 138.327C72.276 138.041 72.4097 137.871 72.5367 137.708C72.678 137.527 72.8109 137.355 72.8325 137.037C72.844 136.867 72.8174 136.655 72.7852 136.4C72.7722 136.302 72.758 136.201 72.745 136.092C72.7662 136.1 72.7855 136.104 72.8003 136.106C72.9048 136.12 72.9999 135.814 73.0923 135.509C73.1291 135.387 73.1656 135.265 73.2023 135.166C73.337 134.805 73.4384 134.063 73.4929 133.53C73.5164 133.301 73.5716 133.097 73.6356 132.857C73.6924 132.644 73.7563 132.403 73.8108 132.09C73.8419 131.911 73.8863 131.775 73.9233 131.663C73.95 131.581 73.9728 131.512 73.9834 131.446C73.9927 131.389 73.9672 131.34 73.9384 131.285C73.9177 131.245 73.8953 131.202 73.8827 131.152C73.8528 131.033 73.8548 130.884 73.878 130.781C73.8888 130.733 73.9041 130.696 73.9194 130.659C73.9372 130.616 73.955 130.574 73.9655 130.514C74.0138 130.238 74.0047 129.962 73.9949 129.675C73.984 129.359 73.9724 129.028 74.0345 128.664C74.054 128.55 74.0868 128.425 74.1177 128.313C74.1503 128.194 74.1818 128.077 74.1959 127.977C74.2533 127.57 74.2094 127.177 74.1685 126.814C74.1413 126.572 74.1155 126.343 74.1215 126.133C74.1326 125.747 74.058 125.528 74.0021 125.377C73.9733 125.297 73.9495 125.232 73.9457 125.165C73.9527 125.105 73.9601 125.043 73.9677 124.983C73.9784 124.928 73.9893 124.871 73.991 124.817C73.9911 124.813 73.991 124.809 73.9911 124.805C74.0372 124.468 74.0915 124.135 74.1452 123.803C74.2657 123.057 74.3825 122.314 74.3907 121.537C74.3926 121.368 74.3656 121.194 74.338 121.017C74.3042 120.8 74.2695 120.578 74.2857 120.354C74.3245 119.818 74.4156 119.282 74.5038 118.761C74.6368 117.973 74.7643 117.196 74.7002 116.469C74.679 116.231 74.6356 116.001 74.5918 115.768C74.5673 115.638 74.5426 115.507 74.5217 115.376C74.57 115.406 74.6157 115.423 74.6584 115.438C74.7464 115.47 74.8217 115.498 74.881 115.626C75.0211 115.929 75.2167 116.273 75.3723 116.243C75.4145 116.235 75.4607 116.245 75.5071 116.256C75.6236 116.284 75.7426 116.312 75.8094 116.04C75.8544 115.857 75.9596 115.384 75.8828 115.076C75.8661 115.008 75.829 114.966 75.7878 114.92C75.7137 114.836 75.6261 114.736 75.6168 114.446C75.6152 114.398 75.6142 114.344 75.6134 114.29C75.6104 114.071 75.6069 113.826 75.5483 113.732C75.4807 113.624 75.3976 113.643 75.3007 113.665C75.1745 113.695 75.0246 113.729 74.8549 113.495C74.8213 113.449 74.8126 113.363 74.806 113.298C74.8013 113.252 74.7974 113.217 74.7869 113.213C74.7749 113.209 74.7489 113.222 74.716 113.239C74.6 113.301 74.3977 113.403 74.4073 112.935C74.41 112.808 74.4249 112.663 74.4383 112.533C74.4581 112.341 74.4743 112.182 74.4426 112.16C74.4306 112.151 74.4175 112.145 74.4038 112.14C74.4134 111.987 74.4228 111.834 74.4321 111.68C74.4778 111.485 74.4842 111.208 74.4916 110.862C74.4934 110.778 74.4955 110.69 74.498 110.598C74.5161 110.294 74.5339 109.989 74.5516 109.689C74.5755 109.45 74.61 109.196 74.6605 108.927C74.7616 108.39 74.9151 107.923 75.0646 107.465C75.1276 107.273 75.19 107.081 75.2474 106.887C75.2519 106.964 75.2577 107.032 75.2667 107.086C75.3287 107.45 75.4655 107.599 75.5915 107.736C75.6753 107.827 75.7542 107.913 75.8028 108.053C75.8917 108.31 76.0048 108.288 76.0884 108.272C76.1318 108.263 76.1673 108.257 76.1873 108.291C76.2034 108.319 76.2095 108.382 76.2158 108.447C76.2213 108.504 76.227 108.563 76.2395 108.601C76.3906 109.06 76.4901 108.926 76.635 108.731C76.7149 108.624 76.8086 108.499 76.9323 108.443C77.063 108.397 77.1003 108.415 77.1449 108.655C77.2141 108.471 77.2833 108.287 77.3524 108.102C77.3503 108.029 77.3119 107.973 77.2478 107.893C77.1333 107.751 77.1024 107.297 77.0777 106.942C77.0663 106.777 77.0562 106.636 77.0401 106.555C76.9542 106.126 76.8166 106.247 76.6956 106.353C76.629 106.412 76.5673 106.465 76.522 106.421C76.5027 106.402 76.4823 106.428 76.4616 106.454C76.4456 106.474 76.4293 106.495 76.413 106.495C76.295 106.498 76.2139 106.244 76.1384 106.008C76.0952 105.873 76.0536 105.744 76.0082 105.673C75.9944 105.651 75.9802 105.633 75.9664 105.617C75.9463 105.593 75.927 105.57 75.911 105.534C75.8744 105.451 75.8523 105.283 75.8281 105.099C75.8158 105.004 75.8028 104.906 75.787 104.812C75.7666 104.691 75.7209 104.646 75.6733 104.6C75.6396 104.566 75.6049 104.532 75.577 104.469C75.5267 104.355 75.5125 104.126 75.4992 103.914C75.4934 103.821 75.4875 103.732 75.4792 103.656C75.4758 103.626 75.4681 103.611 75.4571 103.607C75.4272 103.259 75.3959 102.927 75.365 102.604C75.2093 100.983 75.0705 99.5793 75.2089 97.4903C75.2349 97.0959 75.2346 96.6702 75.2206 96.2404C75.2784 94.8661 75.3336 93.4961 75.3861 92.1201C75.493 91.8486 75.5829 91.5166 75.6534 91.124C75.7857 90.3907 75.8137 89.6199 75.8451 88.724C75.8683 88.0593 75.8934 87.3296 75.963 86.4605C76.0799 85.0114 76.1739 83.525 76.2105 81.849C76.2473 80.1793 76.2603 78.2822 76.2513 76.9127C76.2466 76.1698 76.3279 75.4091 76.4022 74.6817C76.5065 73.6512 76.5983 72.7439 76.4243 72.1995C76.3688 72.0285 76.2751 71.8514 76.1841 71.6852C76.1192 71.5662 76.0559 71.449 76.008 71.3342C76.0148 71.0252 76.0212 70.7177 76.0278 70.412C76.1221 69.8678 76.2162 69.0287 76.0732 68.2022C76.0793 67.8844 76.0852 67.5687 76.0914 67.2661C76.1041 66.6171 76.1156 65.9418 76.1269 65.2847C76.1307 65.0696 76.1345 64.8537 76.1382 64.6385C76.1382 64.6365 76.1383 64.6345 76.1383 64.6324C76.1459 64.2026 76.1528 63.7623 76.1594 63.3186C76.1622 63.1303 76.165 62.9431 76.1678 62.757C76.1746 62.2813 76.1817 61.8249 76.1881 61.3534C76.1913 61.0993 76.1943 60.8452 76.1974 60.5931C76.2025 60.1841 76.2074 59.7785 76.2123 59.3817C76.2197 58.7243 76.2253 58.043 76.2318 57.4051C76.2329 57.3001 76.2464 57.1992 76.2703 57.1247C76.2942 57.0503 76.3264 57.0077 76.3616 57.0062C76.3967 57.0048 76.4328 57.0447 76.4631 57.117C76.4934 57.1893 76.5153 57.2885 76.5255 57.3931C76.5871 58.0287 76.649 58.7089 76.7084 59.3643C76.7448 59.7598 76.7813 60.164 76.8171 60.572C76.8391 60.8235 76.8609 61.0768 76.8826 61.3303C76.9233 61.8004 76.9628 62.2566 77.0023 62.7314C77.0178 62.917 77.0333 63.1038 77.0488 63.2917C77.0851 63.7359 77.1206 64.1761 77.1554 64.6065C77.1556 64.6092 77.1558 64.6118 77.156 64.6144C77.1731 64.8277 77.1902 65.042 77.2071 65.2552C77.2588 65.9117 77.3098 66.5862 77.3588 67.2349C77.385 67.5759 77.4111 67.9341 77.4372 68.2927C77.4516 68.4923 77.4661 68.6925 77.4803 68.8898C77.488 68.9977 77.4956 69.1075 77.5033 69.2177C77.68 71.6715 77.8423 74.1872 77.988 76.6547C78.1342 79.1496 78.2646 81.6202 78.3798 84.1196C78.4947 86.5957 78.5942 89.0938 78.6773 91.58C79.1395 107.381 79.371 123.278 77.4623 139.309C77.1618 141.624 76.791 143.968 76.2863 146.279C76.1347 146.97 75.9745 147.639 75.8072 148.277C75.4131 149.787 75.1026 151.252 74.8648 152.767C74.7629 153.42 74.679 154.049 74.6041 154.743Z" fill="#224509"/>
<g filter="url(#filter2_iii_54_729)">
<path d="M106.5 205.5C119.5 222 123 240 123 240C123 240 89.8117 235.523 80.4587 223.251C71.1058 210.979 80.4412 193.473 80.4412 193.473C80.4412 193.473 96.9506 193.38 106.5 205.5Z" fill="#193505"/>
</g>
<path d="M81.1466 193.992C81.6074 194.013 82.2795 194.055 83.1168 194.145C84.7922 194.323 87.1265 194.686 89.7548 195.423C95.0162 196.898 101.421 199.861 106.107 205.809C112.567 214.008 116.669 222.586 119.157 229.116C120.401 232.38 121.24 235.13 121.768 237.062C122.031 238.027 122.217 238.789 122.337 239.307C122.344 239.339 122.35 239.37 122.357 239.4C122.156 239.369 121.913 239.334 121.634 239.289C120.712 239.144 119.384 238.922 117.76 238.617C114.513 238.007 110.086 237.067 105.371 235.746C100.654 234.424 95.6597 232.723 91.2695 230.595C86.8704 228.463 83.1246 225.924 80.8563 222.947C76.3055 216.976 76.2809 209.705 77.4333 203.856C78.0083 200.939 78.8723 198.397 79.5933 196.584C79.9535 195.679 80.2772 194.957 80.5104 194.462C80.6045 194.263 80.6842 194.1 80.7451 193.978C80.8522 193.981 80.9867 193.985 81.1466 193.992Z" stroke="#172F06"/>
<g filter="url(#filter3_iii_54_729)">
<path d="M34.0694 156.78C14.561 181.54 9.30876 208.552 9.30876 208.552C9.30876 208.552 59.1122 201.833 73.1476 183.417C87.183 165.001 73.1739 138.731 73.1739 138.731C73.1739 138.731 48.3993 138.592 34.0694 156.78Z" fill="#193505"/>
</g>
<path d="M72.1035 139.259C71.4073 139.291 70.3935 139.356 69.1315 139.491C66.6066 139.759 63.0904 140.306 59.1305 141.416C51.205 143.638 41.5385 148.107 34.462 157.089C24.7477 169.418 18.5798 182.313 14.8405 192.129C12.9713 197.036 11.7101 201.17 10.9166 204.076C10.5199 205.529 10.2396 206.674 10.0593 207.455C10.0161 207.642 9.98157 207.809 9.94955 207.954C10.3073 207.901 10.7952 207.828 11.3984 207.733C12.7834 207.514 14.7788 207.18 17.2175 206.722C22.0961 205.806 28.7451 204.394 35.8298 202.408C42.9165 200.422 50.4273 197.866 57.0337 194.664C63.6487 191.457 69.3107 187.627 72.7497 183.114C79.6418 174.071 79.6692 163.072 77.9337 154.265C77.0672 149.867 75.7644 146.038 74.6784 143.308C74.1357 141.943 73.6478 140.854 73.296 140.108C73.1204 139.736 72.9786 139.449 72.8813 139.255C72.8778 139.249 72.8749 139.241 72.8715 139.234C72.6916 139.238 72.4329 139.245 72.1035 139.259Z" stroke="#172F06"/>
<path d="M60.0401 162.492C58.839 163.114 59.36 165.073 58.059 165.993C56.7578 166.911 55.9427 166.4 54.7961 167.799C53.6496 169.197 51.9077 169.972 51.5908 170.802C51.2748 171.63 50.4132 170.846 49.7657 171.809C49.1122 172.776 48.5011 173.137 47.5196 173.529C46.5376 173.928 44.0586 175.737 43.5187 176.81C42.9804 177.895 41.4711 178.106 40.7602 178.417C40.5257 178.526 40.3299 178.573 40.1699 178.587C40.1021 178.593 40.0364 178.549 39.9919 178.489C39.9919 178.489 39.9918 178.489 39.9918 178.489C39.9366 178.415 39.9141 178.319 39.9657 178.265C40.2223 178.001 40.5755 177.533 40.8695 176.857C41.4156 175.589 41.9517 176.04 42.9941 174.698C44.0254 173.355 44.3308 172.21 46.049 171.188C47.7686 170.156 46.9119 168.584 49.5921 167.396C52.2761 166.194 51.2313 164.679 53.0423 162.589C54.855 160.495 58.0334 158.769 59.1614 157.531C60.1755 156.418 61.4436 154.908 62.9862 153.534C63.0099 153.534 63.1246 153.428 63.244 153.301C64.5387 151.848 65.3173 148.838 66.7849 146.731C68.2705 144.582 70.2447 141.431 71.2481 140.008C72.2512 138.589 72.4913 138.232 72.9199 136.64C73.167 135.721 73.7738 134.568 74.6207 133.725C75.0432 133.31 75.3033 133.54 75.2379 134.117C75.1439 134.955 74.7431 135.524 74.9627 136.064C75.3935 137.159 75.5482 137.604 74.6955 138.403C73.844 139.197 74.6428 140.079 74.2846 140.6C73.9216 141.123 73.3538 140.859 72.5341 143.943C71.7066 147.026 71.0728 148.661 70.6592 149.803C70.2372 150.952 68.6679 152.95 67.7598 154.862C67.4891 155.385 67.2395 155.959 66.4249 156.877C65.0414 158.355 63.3096 160.023 62.6412 161.026C61.7419 162.378 61.2361 161.873 60.0401 162.492Z" fill="#224509"/>
<g filter="url(#filter4_iii_54_729)">
<path d="M102.78 111.818C112.345 133.461 111.125 154.081 111.125 154.081C111.125 154.081 76.1652 139.905 69.3956 123.896C62.626 107.886 77.7132 91.3985 77.7132 91.3985C77.7132 91.3985 95.7532 95.9194 102.78 111.818Z" fill="#193505"/>
</g>
<path d="M78.3563 92.102C78.8545 92.254 79.5774 92.4898 80.4674 92.822C82.2481 93.4867 84.6963 94.537 87.3612 96.0788C92.696 99.1654 98.8668 104.201 102.322 112.019C107.079 122.782 109.156 133.296 110.043 141.122C110.486 145.034 110.631 148.272 110.666 150.529C110.683 151.658 110.673 152.541 110.658 153.141C110.656 153.212 110.652 153.279 110.651 153.341C110.423 153.245 110.14 153.126 109.807 152.982C108.842 152.565 107.455 151.95 105.768 151.163C102.394 149.588 97.8261 147.322 93.0492 144.559C88.2706 141.794 83.2931 138.539 79.0945 134.985C74.8885 131.424 71.5035 127.597 69.856 123.701C66.552 115.887 68.5687 107.925 71.4669 101.859C72.9131 98.8326 74.5701 96.2979 75.8659 94.5197C76.5133 93.6312 77.0697 92.9325 77.4632 92.4574C77.6362 92.2485 77.7781 92.0829 77.882 91.9633C78.0042 91.9979 78.1636 92.0433 78.3563 92.102Z" stroke="#172F06"/>
<path d="M85.4988 116.176C86.3196 116.95 85.8099 118.319 86.6878 119.353C87.5677 120.387 88.1954 120.207 88.93 121.568C89.6646 122.928 90.8772 123.967 91.0491 124.678C91.2198 125.388 91.9027 125.016 92.3076 125.916C92.7138 126.816 93.1294 127.242 93.8247 127.803C94.516 128.365 96.1911 130.363 96.5157 131.316C96.8298 132.268 97.9265 132.818 98.4363 133.238C98.6038 133.381 98.7482 133.468 98.8667 133.52C98.9169 133.542 98.9693 133.526 99.0068 133.494C99.0069 133.494 99.0069 133.494 99.0069 133.494C99.0535 133.454 99.0773 133.389 99.0424 133.336C98.8684 133.073 98.6328 132.626 98.4695 132.051C98.1593 130.963 97.722 131.147 97.0535 129.865C96.3889 128.578 96.2502 127.637 95.0632 126.409C93.8789 125.178 94.6184 124.212 92.7452 122.607C90.8748 120.997 91.7422 120.115 90.5708 118.051C89.4005 115.987 87.2057 113.836 86.4855 112.615C86.0286 111.84 85.4701 110.846 84.8559 109.858C84.6814 109.567 84.3662 108.834 84.0764 108.211C83.2518 106.422 82.9028 103.909 81.998 101.862C81.0897 99.8088 79.8882 96.8602 79.2689 95.5139C78.6485 94.167 78.5031 93.839 78.279 92.4393C78.1512 91.6371 77.7875 90.5795 77.2481 89.7465C76.9786 89.3348 76.7926 89.4869 76.8123 89.9754C76.8414 90.69 77.0867 91.2167 76.9166 91.639C76.5738 92.4703 76.4531 92.8291 76.9951 93.6195C77.5388 94.4144 76.9556 95.0148 77.177 95.5085C77.3978 95.9941 77.8003 95.8779 78.2132 98.5604C78.631 101.245 78.9757 102.692 79.1948 103.697C79.4155 104.706 80.3929 106.645 80.8205 108.291C81.0601 109.116 81.3194 110.143 82.0998 111.58C82.7636 112.662 83.4285 113.731 83.7182 114.39C84.2756 115.656 84.6718 115.391 85.4988 116.176Z" fill="#224509"/>
<path d="M90.8827 210.985C91.9499 211.458 91.3573 213.333 92.5053 214.082C93.6553 214.832 94.4405 214.289 95.4169 215.5C96.3934 216.711 97.9568 217.294 98.1985 218.043C98.4391 218.79 99.2834 217.989 99.8239 218.838C100.366 219.688 100.902 219.972 101.792 220.269C102.678 220.568 104.834 222.056 105.267 223.029C105.691 224.005 107.062 224.093 107.693 224.337C107.902 224.423 108.079 224.454 108.223 224.455C108.285 224.456 108.347 224.408 108.391 224.349C108.391 224.349 108.391 224.349 108.391 224.348C108.445 224.274 108.472 224.181 108.428 224.134C108.212 223.903 107.912 223.482 107.696 222.874C107.284 221.727 106.753 222.183 105.884 221.007C105.018 219.824 104.816 218.783 103.292 217.96C101.768 217.132 102.663 215.6 100.256 214.703C97.8475 213.8 98.9067 212.303 97.3573 210.502C95.809 208.701 92.956 207.345 91.9986 206.3C91.3921 205.638 90.6457 204.768 89.834 203.951C89.8113 203.93 89.5984 203.679 89.412 203.445C89.2167 203.203 88.9997 202.933 88.7779 202.674C87.5215 201.19 86.7885 198.723 85.3252 197.013C83.8555 195.295 81.8618 192.784 80.8484 191.67C79.8339 190.557 79.5939 190.283 79.1243 188.936C78.856 188.164 78.2277 187.236 77.376 186.619C76.9511 186.316 76.7075 186.556 76.7911 187.052C76.9137 187.778 77.317 188.212 77.1265 188.726C76.74 189.741 76.6119 190.168 77.459 190.741C78.3085 191.318 77.559 192.206 77.9233 192.618C78.2852 193.022 78.8375 192.716 79.7045 195.317C80.5774 197.921 81.2067 199.278 81.615 200.23C82.0267 201.186 83.5796 202.766 84.3217 204.324C84.7358 205.115 85.1575 206.002 86.3915 207.403C87.2866 208.32 88.1668 209.217 88.5602 209.835C89.3152 211.022 89.8067 210.503 90.8827 210.985Z" fill="#224509"/>
<g filter="url(#filter5_iii_54_729)">
<path d="M142.787 158.464C142.787 174.543 160.845 192 160.845 192C160.845 192 179.639 174.543 179.639 158.464C179.639 142.386 160.845 133.773 160.845 133.773C160.845 133.773 142.787 142.386 142.787 158.464Z" fill="#193505"/>
</g>
<path d="M160.808 134.203C160.679 134.269 160.487 134.367 160.244 134.499C159.756 134.763 159.057 135.158 158.218 135.683C156.539 136.732 154.302 138.298 152.066 140.36C147.588 144.49 143.156 150.572 143.156 158.465C143.156 166.384 147.611 174.688 152.117 181.049C154.364 184.221 156.611 186.895 158.297 188.775C159.14 189.715 159.843 190.456 160.333 190.962C160.548 191.183 160.722 191.358 160.85 191.485C160.984 191.357 161.167 191.18 161.393 190.956C161.904 190.45 162.635 189.709 163.512 188.77C165.267 186.889 167.606 184.216 169.945 181.043C174.635 174.681 179.271 166.379 179.271 158.465C179.271 150.578 174.661 144.497 169.998 140.365C167.669 138.303 165.339 136.737 163.591 135.687C162.718 135.162 161.99 134.766 161.482 134.502C161.228 134.37 161.029 134.271 160.894 134.205C160.878 134.197 160.863 134.19 160.848 134.183C160.836 134.189 160.822 134.196 160.808 134.203Z" stroke="#172F06" stroke-width="0.737044"/>
<path d="M162.242 72.0411C162.687 76.0582 162.609 80.0061 161.45 84.1119C160.037 89.1698 157.431 94.3794 156.866 100.224C156.592 102.876 156.633 105.559 156.976 108.202C157.347 111.061 157.677 113.985 157.987 116.891C158.56 122.286 159.067 127.685 159.524 133.107C159.979 138.516 160.383 143.942 160.689 149.369C160.894 153.042 161.058 156.748 161.108 160.432C161.129 162.027 161.126 163.679 161.075 165.284C161.038 166.452 160.969 167.711 160.828 168.892C160.807 169.062 160.806 169.221 160.826 169.339C160.847 169.458 160.887 169.528 160.942 169.539C160.996 169.549 161.06 169.498 161.121 169.392C161.183 169.286 161.236 169.132 161.269 168.961C161.505 167.761 161.664 166.487 161.792 165.302C161.936 163.946 162.044 162.588 162.134 161.228C161.914 161.009 161.752 160.716 161.689 160.153C161.657 159.864 161.649 159.474 161.696 159.171C161.738 158.902 161.808 158.698 161.875 158.502C161.944 158.296 162.01 158.104 162.035 157.863C162.078 157.449 162.176 157.051 162.279 156.627C162.316 156.473 162.354 156.311 162.39 156.156C162.439 154.871 162.477 153.574 162.507 152.263C162.477 151.77 162.451 151.311 162.454 150.918C162.457 150.568 162.499 150.236 162.552 149.922C162.556 149.723 162.559 149.524 162.562 149.323C162.58 148.02 162.591 146.733 162.596 145.432C162.506 144.428 162.413 143.366 162.337 141.992C162.304 141.396 162.249 140.816 162.195 140.255C162.116 139.426 162.039 138.646 162.041 137.96C162.043 137.502 161.989 137.021 161.935 136.542C161.862 135.901 161.788 135.26 161.846 134.674C161.882 134.305 161.931 133.964 161.977 133.649C162.049 133.148 162.111 132.711 162.096 132.319C162.067 131.58 162.103 130.937 162.134 130.372C162.171 129.695 162.2 129.117 162.102 128.624C162.087 128.549 162.068 128.464 162.047 128.367C161.933 127.863 161.751 127.044 161.747 125.866C161.746 125.449 161.787 125.047 161.827 124.656C161.886 124.085 161.942 123.54 161.86 122.958C161.847 122.87 161.815 122.78 161.785 122.699C161.748 122.595 161.715 122.504 161.734 122.448C161.79 122.282 161.846 122.022 161.907 121.742C161.952 121.535 161.999 121.317 162.051 121.116C161.977 119.591 161.895 118.074 161.805 116.564C161.762 115.855 161.72 115.182 161.673 114.476C161.54 114.125 161.417 113.769 161.314 113.396C161.18 112.923 161.09 112.239 160.975 111.424C160.89 110.817 160.786 110.083 160.637 109.268C160.548 108.77 160.473 108.281 160.41 107.821C160.273 106.822 160.246 105.906 160.268 105.241C160.275 105.038 160.285 104.831 160.297 104.607C160.353 103.768 160.412 102.728 160.702 100.771C160.986 98.9227 161.34 97.3661 161.638 96.1958C161.792 95.5941 161.929 95.1041 162.047 94.7221C162.245 94.0743 162.498 93.2776 162.766 92.4748C163.184 91.22 163.635 89.9412 163.908 89.2178C164.005 88.9602 164.11 88.69 164.222 88.3968C164.532 87.5836 164.912 86.5954 165.344 85.1763C165.793 83.6843 165.987 82.7135 166.135 81.7038C166.194 81.292 166.175 80.9116 166.148 80.5274C166.111 79.9773 166.063 79.4109 166.185 78.6648C166.214 78.4903 166.254 78.3015 166.293 78.1101C166.366 77.7558 166.438 77.3663 166.442 76.9584C166.443 76.8188 166.426 76.6956 166.408 76.5742C166.389 76.4407 166.369 76.3099 166.372 76.1619C166.384 75.6038 166.39 75.0756 166.386 74.5951C166.379 73.9674 166.356 73.4691 166.313 73.1459C166.237 72.5659 166.214 71.9668 166.167 71.3248C166.131 70.8372 166.088 70.368 166.003 69.8968C165.821 68.8794 165.586 67.594 165.263 66.1939C165.184 65.8343 165.107 65.4484 165.035 65.0412C164.925 64.4107 164.754 63.8668 164.551 63.1834C164.426 62.7689 164.281 62.2486 164.143 61.6411C164.064 61.2955 164.063 60.9851 164.063 60.6948C164.062 60.4264 164.063 60.1764 164.007 59.9414C163.958 59.7306 163.859 59.6051 163.766 59.4853C163.661 59.3517 163.563 59.2251 163.548 58.9904C163.539 58.8655 163.559 58.7091 163.582 58.5217C163.592 58.4493 163.602 58.3746 163.612 58.2943C163.596 58.3003 163.582 58.3031 163.571 58.3046C163.494 58.3147 163.424 58.0892 163.356 57.8645C163.329 57.7748 163.302 57.6851 163.275 57.6117C163.176 57.3461 163.101 56.7989 163.061 56.4059C163.043 56.2376 163.003 56.087 162.956 55.9101C162.914 55.753 162.867 55.5752 162.826 55.3443C162.804 55.2127 162.771 55.1126 162.744 55.0297C162.724 54.9696 162.707 54.9184 162.699 54.8701C162.692 54.8283 162.711 54.792 162.732 54.7513C162.748 54.722 162.764 54.6899 162.773 54.6535C162.795 54.5657 162.794 54.4556 162.777 54.3796C162.769 54.3445 162.758 54.3172 162.746 54.2901C162.733 54.2586 162.72 54.2272 162.712 54.1829C162.677 53.9794 162.684 53.7766 162.691 53.5648C162.699 53.332 162.707 53.0881 162.662 52.8194C162.647 52.7354 162.623 52.6437 162.6 52.561C162.576 52.4729 162.553 52.3872 162.543 52.3133C162.5 52.0135 162.533 51.7236 162.563 51.4558C162.583 51.2777 162.602 51.109 162.597 50.9538C162.589 50.6699 162.644 50.5081 162.685 50.3968C162.707 50.338 162.724 50.2899 162.727 50.2407C162.722 50.196 162.716 50.1507 162.711 50.1064C162.703 50.0659 162.695 50.024 162.694 49.9842C162.694 49.9812 162.694 49.9782 162.694 49.9752C162.66 49.7266 162.62 49.4816 162.58 49.237C162.491 48.6867 162.405 48.1396 162.399 47.5663C162.398 47.442 162.418 47.3139 162.438 47.1833C162.463 47.0234 162.488 46.8595 162.476 46.6943C162.448 46.2998 162.381 45.9046 162.316 45.5203C162.218 44.9397 162.124 44.3669 162.171 43.8312C162.187 43.6556 162.219 43.486 162.251 43.3143C162.269 43.2187 162.287 43.1226 162.302 43.0257C162.267 43.0477 162.233 43.06 162.202 43.0715C162.137 43.0953 162.081 43.1157 162.038 43.2101C161.934 43.4331 161.79 43.6866 161.676 43.6645C161.644 43.6585 161.61 43.6661 161.576 43.6742C161.49 43.6947 161.403 43.7157 161.353 43.5151C161.32 43.38 161.243 43.0313 161.299 42.8042C161.312 42.7548 161.339 42.7238 161.369 42.6894C161.424 42.6274 161.489 42.5539 161.495 42.3404C161.497 42.3045 161.497 42.2654 161.498 42.225C161.5 42.064 161.503 41.8833 161.546 41.814C161.596 41.7342 161.657 41.7484 161.728 41.7649C161.821 41.7864 161.932 41.8119 162.057 41.6395C162.082 41.6054 162.088 41.5418 162.093 41.4938C162.096 41.4599 162.099 41.4343 162.107 41.4314C162.116 41.4283 162.135 41.4381 162.159 41.4507C162.245 41.4963 162.394 41.5717 162.387 41.2265C162.385 41.1329 162.374 41.0262 162.364 40.9303C162.349 40.7891 162.337 40.6717 162.361 40.655C162.37 40.6488 162.379 40.6442 162.389 40.6404C162.382 40.5276 162.375 40.4147 162.369 40.3017C162.335 40.1577 162.33 39.9539 162.325 39.6989C162.323 39.6371 162.322 39.5718 162.32 39.504C162.307 39.2803 162.293 39.0554 162.28 38.8339C162.263 38.6579 162.237 38.4705 162.2 38.2728C162.126 37.8766 162.013 37.5323 161.902 37.1952C161.856 37.0531 161.81 36.9122 161.768 36.7691C161.764 36.8254 161.76 36.8762 161.753 36.9154C161.708 37.1836 161.607 37.2934 161.514 37.3945C161.452 37.4617 161.394 37.5252 161.358 37.6286C161.293 37.8178 161.209 37.8014 161.148 37.7894C161.116 37.7832 161.09 37.7785 161.075 37.8038C161.063 37.8243 161.059 37.8709 161.054 37.919C161.05 37.9609 161.046 38.0042 161.036 38.032C160.925 38.3702 160.852 38.2718 160.745 38.1284C160.686 38.0493 160.617 37.9568 160.526 37.916C160.429 37.8815 160.402 37.8948 160.369 38.0717C160.318 37.9362 160.267 37.8005 160.216 37.6646C160.218 37.6108 160.246 37.5691 160.293 37.5104C160.378 37.4056 160.4 37.0711 160.419 36.8094C160.427 36.6881 160.434 36.5838 160.446 36.5242C160.51 36.2083 160.611 36.2973 160.7 36.3755C160.749 36.4186 160.795 36.4582 160.828 36.4256C160.842 36.4117 160.857 36.4307 160.873 36.4498C160.885 36.4646 160.897 36.4798 160.909 36.4801C160.995 36.482 161.055 36.2948 161.111 36.1211C161.143 36.0216 161.173 35.9267 161.207 35.8739C161.217 35.8578 161.228 35.8449 161.238 35.8329C161.253 35.8152 161.267 35.7981 161.279 35.7715C161.306 35.7108 161.322 35.5869 161.34 35.4509C161.349 35.3813 161.358 35.3085 161.37 35.2396C161.385 35.1503 161.419 35.1176 161.454 35.083C161.479 35.0585 161.504 35.0329 161.525 34.9865C161.562 34.9024 161.572 34.7339 161.582 34.5774C161.586 34.5093 161.591 34.4434 161.597 34.3878C161.599 34.3651 161.605 34.3542 161.613 34.3517C161.635 34.0951 161.658 33.8506 161.681 33.6123C161.796 32.4177 161.898 31.3828 161.796 29.8432C161.777 29.5524 161.777 29.2387 161.787 28.9219C161.745 27.909 161.704 26.8992 161.665 25.8851C161.587 25.685 161.52 25.4402 161.468 25.1509C161.371 24.6104 161.35 24.0423 161.327 23.382C161.31 22.892 161.292 22.3543 161.24 21.7137C161.154 20.6456 161.085 19.5501 161.058 18.3148C161.031 17.0842 161.021 15.6859 161.028 14.6766C161.031 14.129 160.971 13.5683 160.917 13.0322C160.84 12.2727 160.772 11.604 160.9 11.2027C160.941 11.0767 161.01 10.9461 161.077 10.8237C161.125 10.7359 161.172 10.6495 161.207 10.5649C161.202 10.3372 161.197 10.1105 161.192 9.88524C161.123 9.48414 161.054 8.86567 161.159 8.25648C161.154 8.02228 161.15 7.78962 161.146 7.56657C161.136 7.08822 161.128 6.5905 161.119 6.10619C161.117 5.94767 161.114 5.78852 161.111 5.62993C161.111 5.62843 161.111 5.62693 161.111 5.62542C161.105 5.30861 161.1 4.98411 161.095 4.65706C161.093 4.51828 161.091 4.38032 161.089 4.24319C161.084 3.89257 161.079 3.55618 161.074 3.20863C161.072 3.02138 161.07 2.83407 161.067 2.64825C161.064 2.34679 161.06 2.04786 161.056 1.75543C161.051 1.27092 161.047 0.768718 161.042 0.298597C161.041 0.221171 161.031 0.146841 161.014 0.0919403C160.996 0.0370573 160.972 0.00564565 160.946 0.00455937C160.921 0.00351361 160.894 0.0329316 160.872 0.0862393C160.849 0.139513 160.833 0.212658 160.826 0.289712C160.78 0.758197 160.735 1.25951 160.691 1.74258C160.664 2.0341 160.637 2.33202 160.611 2.63271C160.594 2.8181 160.578 3.00475 160.562 3.19162C160.532 3.53808 160.503 3.87438 160.474 4.22426C160.463 4.3611 160.451 4.49878 160.44 4.63728C160.413 4.96469 160.387 5.2891 160.361 5.60635C160.361 5.60828 160.361 5.61021 160.361 5.61214C160.348 5.76935 160.336 5.92728 160.323 6.08444C160.285 6.56832 160.248 7.06542 160.211 7.54358C160.192 7.79488 160.173 8.05893 160.154 8.32321C160.143 8.47035 160.132 8.61786 160.122 8.76332C160.116 8.8428 160.111 8.92376 160.105 9.00495C159.975 10.8135 159.855 12.6677 159.748 14.4864C159.64 16.3252 159.544 18.1461 159.459 19.9883C159.374 21.8133 159.301 23.6546 159.24 25.487C158.899 37.1328 158.728 48.8497 160.135 60.6653C160.357 62.3717 160.63 64.0993 161.002 65.8029C161.114 66.3117 161.232 66.8048 161.355 67.2748C161.645 68.388 161.874 69.4682 162.05 70.5842C162.125 71.0657 162.187 71.5291 162.242 72.0411Z" fill="#224509"/>
<g filter="url(#filter6_iii_54_729)">
<path d="M138.733 109.451C129.152 121.612 126.572 134.879 126.572 134.879C126.572 134.879 151.033 131.579 157.927 122.534C164.82 113.489 157.94 100.586 157.94 100.586C157.94 100.586 145.772 100.518 138.733 109.451Z" fill="#193505"/>
</g>
<path d="M157.42 100.968C157.08 100.983 156.585 101.016 155.968 101.082C154.733 101.213 153.013 101.48 151.076 102.023C147.198 103.11 142.477 105.295 139.023 109.679C134.262 115.722 131.237 122.044 129.404 126.857C128.487 129.262 127.87 131.289 127.481 132.713C127.287 133.425 127.149 133.986 127.061 134.368C127.055 134.392 127.051 134.415 127.046 134.437C127.195 134.415 127.373 134.388 127.579 134.355C128.258 134.248 129.238 134.084 130.434 133.86C132.828 133.411 136.09 132.718 139.565 131.744C143.042 130.769 146.722 129.515 149.958 127.947C153.2 126.376 155.962 124.504 157.634 122.311C160.988 117.91 161.006 112.55 160.156 108.239C159.733 106.089 159.096 104.216 158.565 102.88C158.299 102.212 158.06 101.68 157.888 101.315C157.819 101.169 157.761 101.049 157.717 100.959C157.637 100.961 157.538 100.963 157.42 100.968Z" stroke="#172F06" stroke-width="0.737044"/>
<g filter="url(#filter7_iii_54_729)">
<path d="M192.118 73.5419C206.497 91.7915 210.368 111.7 210.368 111.7C210.368 111.7 173.66 106.748 163.316 93.1749C152.971 79.6014 163.296 60.2391 163.296 60.2391C163.296 60.2391 181.556 60.1365 192.118 73.5419Z" fill="#193505"/>
</g>
<path d="M164.085 60.6288C164.598 60.6519 165.345 60.7 166.275 60.799C168.136 60.9972 170.728 61.4002 173.647 62.2186C179.489 63.8563 186.613 67.1498 191.829 73.7697C198.989 82.8571 203.535 92.3612 206.291 99.5956C207.668 103.212 208.598 106.26 209.183 108.401C209.475 109.472 209.681 110.316 209.814 110.892C209.846 111.03 209.872 111.153 209.895 111.26C209.632 111.221 209.273 111.167 208.828 111.097C207.807 110.935 206.336 110.69 204.538 110.352C200.943 109.677 196.042 108.637 190.82 107.173C185.597 105.709 180.062 103.824 175.193 101.464C170.317 99.1007 166.143 96.2774 163.608 92.9516C158.529 86.2862 158.509 78.1794 159.788 71.6881C160.427 68.4472 161.387 65.625 162.187 63.6127C162.587 62.6069 162.947 61.8043 163.206 61.2543C163.336 60.9798 163.44 60.7684 163.512 60.626C163.515 60.6208 163.517 60.6153 163.52 60.6103C163.652 60.6129 163.843 60.6179 164.085 60.6288Z" stroke="#172F06" stroke-width="0.737044"/>
<path d="M172.976 77.752C173.861 78.2106 173.477 79.6544 174.436 80.3325C175.395 81.0095 175.996 80.6324 176.841 81.6635C177.686 82.6939 178.97 83.2654 179.204 83.8767C179.437 84.4873 180.072 83.9096 180.549 84.6191C181.031 85.3318 181.481 85.5981 182.204 85.887C182.928 86.1808 184.755 87.514 185.153 88.305C185.55 89.1046 186.662 89.2601 187.186 89.4899C187.359 89.5697 187.503 89.6042 187.621 89.615C187.671 89.6195 187.72 89.5865 187.753 89.5428C187.753 89.5428 187.753 89.5427 187.753 89.5427C187.793 89.4881 187.81 89.4171 187.772 89.3776C187.583 89.1828 187.322 88.8384 187.106 88.3396C186.703 87.4053 186.308 87.7378 185.54 86.7484C184.78 85.7584 184.555 84.9149 183.288 84.1613C182.021 83.4012 182.652 82.2421 180.677 81.3664C178.699 80.481 179.469 79.3643 178.134 77.8235C176.798 76.2799 174.455 75.0083 173.624 74.096C172.876 73.2755 171.942 72.1628 170.805 71.1497C170.787 71.1494 170.703 71.0717 170.615 70.9779C169.66 69.907 169.087 67.6889 168.005 66.1354C166.91 64.5519 165.455 62.2291 164.715 61.1805C163.976 60.1349 163.799 59.8712 163.483 58.6977C163.301 58.0206 162.854 57.1712 162.23 56.5499C161.918 56.2435 161.726 56.4134 161.775 56.8385C161.844 57.4562 162.139 57.8758 161.978 58.2733C161.66 59.0808 161.546 59.4087 162.174 59.9974C162.802 60.5824 162.213 61.2331 162.477 61.6166C162.745 62.0025 163.163 61.8079 163.768 64.0811C164.377 66.3532 164.845 67.5582 165.149 68.3998C165.46 69.2466 166.617 70.7191 167.286 72.1282C167.486 72.5139 167.67 72.9374 168.27 73.6138C169.29 74.703 170.566 75.9327 171.059 76.6718C171.722 77.6682 172.095 77.2961 172.976 77.752Z" fill="#224509"/>
<g filter="url(#filter8_iii_54_729)">
<path d="M141.476 40.403C134.426 56.3551 135.325 71.5533 135.325 71.5533C135.325 71.5533 161.092 61.1045 166.081 49.3051C171.071 37.5056 159.951 25.3533 159.951 25.3533C159.951 25.3533 146.654 28.6854 141.476 40.403Z" fill="#193505"/>
</g>
<path d="M159.477 25.8719C159.11 25.984 158.577 26.1577 157.921 26.4025C156.609 26.8924 154.804 27.667 152.84 28.8035C148.908 31.0784 144.36 34.7897 141.813 40.5519C138.307 48.4845 136.776 56.2336 136.122 62.0018C135.796 64.8849 135.689 67.2711 135.663 68.9348C135.65 69.7667 135.658 70.4183 135.668 70.8605C135.67 70.9126 135.673 70.9618 135.674 71.008C135.841 70.9372 136.05 70.8492 136.296 70.743C137.007 70.4355 138.03 69.9823 139.273 69.4021C141.76 68.2413 145.126 66.5715 148.647 64.5349C152.169 62.4975 155.838 60.0972 158.932 57.4776C162.032 54.8534 164.528 52.0332 165.742 49.1616C168.177 43.4027 166.691 37.5345 164.555 33.0638C163.489 30.8329 162.267 28.9637 161.312 27.653C160.835 26.9983 160.425 26.4834 160.135 26.1333C160.008 25.9795 159.903 25.8577 159.827 25.7696C159.737 25.7951 159.619 25.8286 159.477 25.8719Z" stroke="#172F06" stroke-width="0.737044"/>
<path d="M154.212 43.6154C153.607 44.1857 153.983 45.1952 153.336 45.9569C152.687 46.7195 152.225 46.5867 151.683 47.5896C151.142 48.5917 150.248 49.3576 150.121 49.882C149.996 50.4053 149.492 50.1308 149.194 50.7942C148.894 51.4579 148.588 51.7718 148.076 52.1853C147.566 52.5991 146.332 54.0722 146.092 54.7744C145.861 55.4758 145.052 55.8817 144.677 56.1912C144.553 56.2963 144.447 56.3606 144.36 56.3989C144.322 56.4152 144.284 56.4034 144.256 56.3797C144.256 56.3797 144.256 56.3797 144.256 56.3797C144.222 56.35 144.204 56.3021 144.23 56.263C144.358 56.0696 144.532 55.7401 144.652 55.3159C144.881 54.5139 145.203 54.65 145.696 53.7051C146.186 52.7561 146.288 52.0629 147.163 51.1579C148.036 50.2501 147.491 49.5384 148.871 48.3558C150.25 47.1691 149.611 46.5189 150.474 44.9977C151.336 43.4765 152.954 41.891 153.485 40.9908C153.822 40.4199 154.233 39.6869 154.686 38.9586C154.815 38.7446 155.047 38.2044 155.261 37.7452C155.868 36.426 156.126 34.5741 156.792 33.0654C157.462 31.5521 158.347 29.3789 158.804 28.3866C159.261 27.3939 159.368 27.1521 159.534 26.1205C159.628 25.5293 159.896 24.7497 160.293 24.1358C160.492 23.8324 160.629 23.9444 160.615 24.3045C160.593 24.8312 160.412 25.2194 160.538 25.5306C160.79 26.1433 160.879 26.4078 160.48 26.9904C160.079 27.5762 160.509 28.0188 160.346 28.3827C160.183 28.7405 159.886 28.6549 159.582 30.632C159.274 32.611 159.02 33.6775 158.859 34.4179C158.696 35.1614 157.975 36.5904 157.66 37.804C157.484 38.4122 157.293 39.1691 156.717 40.2282C156.228 41.0255 155.738 41.8137 155.525 42.2993C155.114 43.2322 154.822 43.037 154.212 43.6154Z" fill="#224509"/>
<path d="M150.244 113.494C149.458 113.843 149.894 115.224 149.048 115.777C148.201 116.33 147.622 115.929 146.902 116.822C146.182 117.714 145.03 118.144 144.852 118.696C144.675 119.247 144.052 118.656 143.654 119.282C143.255 119.908 142.859 120.118 142.203 120.337C141.55 120.557 139.961 121.653 139.642 122.371C139.33 123.091 138.319 123.155 137.854 123.335C137.7 123.398 137.57 123.421 137.463 123.422C137.418 123.423 137.372 123.388 137.34 123.344C137.34 123.343 137.34 123.343 137.34 123.343C137.3 123.288 137.28 123.22 137.312 123.185C137.472 123.015 137.692 122.705 137.852 122.257C138.155 121.412 138.547 121.747 139.187 120.88C139.825 120.009 139.974 119.241 141.098 118.635C142.221 118.025 141.561 116.895 143.336 116.235C145.111 115.568 144.33 114.465 145.472 113.138C146.613 111.81 148.716 110.811 149.422 110.041C149.869 109.553 150.419 108.912 151.017 108.31C151.034 108.294 151.191 108.109 151.328 107.937C151.472 107.758 151.632 107.559 151.795 107.369C152.721 106.275 153.262 104.457 154.34 103.196C155.423 101.929 156.893 100.079 157.64 99.2583C158.388 98.4377 158.564 98.2357 158.911 97.243C159.108 96.674 159.571 95.9898 160.199 95.5353C160.512 95.3116 160.692 95.489 160.63 95.8545C160.54 96.3891 160.243 96.709 160.383 97.0877C160.668 97.8362 160.762 98.1509 160.138 98.5735C159.512 98.9987 160.064 99.6533 159.796 99.9569C159.529 100.255 159.122 100.029 158.483 101.946C157.84 103.865 157.376 104.865 157.075 105.567C156.771 106.272 155.627 107.436 155.08 108.584C154.775 109.168 154.464 109.821 153.554 110.854C152.895 111.53 152.246 112.191 151.956 112.647C151.399 113.521 151.037 113.139 150.244 113.494Z" fill="#224509"/>
<g filter="url(#filter9_ii_54_729)">
<path d="M261.669 176.237C247.821 204.555 225.761 221.004 225.761 221.004C225.761 221.004 210.212 173.216 220.717 152.581C233.821 122.352 256.561 141.926 256.561 141.926C256.561 141.926 271.841 155.437 261.669 176.237Z" fill="#193505"/>
</g>
<path d="M221.169 152.795L221.176 152.78C224.424 145.287 228.245 140.937 232.106 138.59C235.962 136.247 239.909 135.869 243.478 136.412C247.056 136.957 250.246 138.427 252.551 139.771C253.702 140.442 254.627 141.08 255.262 141.547C255.58 141.781 255.825 141.972 255.989 142.104L256.222 142.293C256.227 142.297 256.23 142.301 256.232 142.303L256.233 142.303C256.234 142.304 256.236 142.306 256.237 142.308C256.244 142.313 256.254 142.322 256.267 142.334C256.293 142.358 256.333 142.395 256.386 142.444C256.491 142.544 256.645 142.695 256.839 142.895C257.227 143.295 257.774 143.892 258.399 144.674C259.651 146.239 261.217 148.539 262.469 151.477C264.969 157.339 266.234 165.764 261.22 176.018C254.324 190.119 245.381 201.269 238.159 208.896C234.549 212.709 231.371 215.639 229.097 217.615C227.96 218.602 227.049 219.351 226.424 219.852C226.274 219.972 226.138 220.076 226.022 220.167C225.914 219.822 225.768 219.352 225.592 218.767C225.189 217.424 224.624 215.481 223.979 213.085C222.688 208.292 221.076 201.688 219.792 194.443C218.508 187.197 217.555 179.32 217.574 171.979C217.593 164.628 218.588 157.864 221.162 152.808L221.169 152.795Z" stroke="#172F06"/>
<g filter="url(#filter10_ii_54_729)">
<path d="M253.705 376.679C234.996 402.049 210.34 414.269 210.34 414.269C210.34 414.269 203.627 364.464 217.668 346.052C235.988 318.668 254.843 342.008 254.843 342.008C254.843 342.008 267.447 358.044 253.705 376.679Z" fill="#193505"/>
</g>
<path d="M218.074 346.343L218.083 346.33C222.624 339.542 227.164 335.95 231.384 334.334C235.598 332.721 239.55 333.059 242.963 334.234C246.384 335.413 249.259 337.432 251.285 339.168C252.296 340.035 253.092 340.828 253.633 341.402C253.903 341.689 254.11 341.921 254.248 342.08L254.443 342.308C254.447 342.313 254.449 342.318 254.451 342.32L254.452 342.32C254.453 342.322 254.454 342.324 254.456 342.325C254.461 342.332 254.469 342.342 254.48 342.356C254.502 342.385 254.534 342.429 254.577 342.487C254.662 342.604 254.787 342.78 254.942 343.012C255.252 343.475 255.682 344.16 256.157 345.042C257.108 346.806 258.235 349.35 258.939 352.465C260.345 358.681 260.076 367.196 253.302 376.382C243.986 389.015 233.185 398.379 224.711 404.584C220.475 407.686 216.822 409.998 214.23 411.533C212.935 412.3 211.904 412.873 211.199 413.254C211.03 413.345 210.878 413.423 210.747 413.492C210.703 413.133 210.643 412.644 210.575 412.037C210.42 410.644 210.214 408.631 210.009 406.158C209.6 401.211 209.201 394.425 209.239 387.067C209.277 379.708 209.754 371.788 211.092 364.57C212.431 357.342 214.625 350.867 218.065 346.356L218.074 346.343Z" stroke="#172F06"/>
<g filter="url(#filter11_ii_54_729)">
<path d="M272.459 218.868C276.679 240.271 250.492 269.574 250.492 269.574C250.492 269.574 213.887 252.65 209.668 231.246C205.448 209.843 235.212 192.066 235.212 192.066C235.212 192.066 268.24 197.464 272.459 218.868Z" fill="#193505"/>
</g>
<path d="M235.494 192.623C235.733 192.668 236.086 192.735 236.538 192.829C237.441 193.017 238.739 193.31 240.31 193.727C243.454 194.563 247.686 195.897 252.045 197.895C260.792 201.903 269.908 208.51 271.969 218.964C273.001 224.201 272.178 229.954 270.331 235.666C268.485 241.374 265.627 247.008 262.629 251.989C259.633 256.968 256.504 261.283 254.123 264.354C252.933 265.889 251.93 267.113 251.226 267.951C250.874 268.371 250.596 268.694 250.407 268.912C250.392 268.929 250.378 268.945 250.365 268.96C250.343 268.95 250.32 268.939 250.297 268.928C250.03 268.8 249.636 268.609 249.134 268.358C248.13 267.856 246.69 267.114 244.948 266.157C241.462 264.242 236.772 261.468 231.953 258.03C227.132 254.59 222.194 250.493 218.203 245.935C214.21 241.375 211.19 236.382 210.158 231.15C208.099 220.704 214.327 211.073 221.216 203.978C224.648 200.444 228.214 197.571 230.924 195.581C232.278 194.586 233.417 193.813 234.216 193.289C234.615 193.028 234.93 192.828 235.144 192.694C235.209 192.654 235.265 192.619 235.311 192.591C235.362 192.6 235.423 192.61 235.494 192.623Z" stroke="#172F06"/>
<g filter="url(#filter12_iii_54_729)">
<path d="M258.368 505.076C251.196 525.679 220.271 539.992 220.271 539.992C220.271 539.992 203.975 509.24 211.147 488.638C218.32 468.035 246.244 465.384 246.244 465.384C246.244 465.384 265.54 484.474 258.368 505.076Z" fill="#193505"/>
</g>
<path d="M246.098 465.95C246.235 466.092 246.436 466.304 246.69 466.581C247.197 467.137 247.916 467.955 248.757 469.002C250.44 471.096 252.609 474.1 254.555 477.739C258.451 485.029 261.416 494.798 257.896 504.912C254.363 515.059 244.95 523.711 236.339 529.853C232.045 532.916 227.972 535.339 224.973 536.996C223.474 537.825 222.244 538.461 221.39 538.89C221.017 539.078 220.714 539.223 220.493 539.33C220.379 539.106 220.223 538.797 220.034 538.41C219.605 537.534 218.999 536.259 218.294 534.663C216.884 531.471 215.079 527.001 213.497 521.893C210.326 511.648 208.089 498.943 211.62 488.802C215.138 478.696 223.757 472.961 231.576 469.747C235.479 468.143 239.163 467.175 241.871 466.609C243.225 466.326 244.333 466.144 245.102 466.032C245.486 465.977 245.785 465.939 245.987 465.915C246.011 465.912 246.034 465.909 246.055 465.906C246.069 465.92 246.083 465.935 246.098 465.95Z" stroke="#172F06"/>
<path d="M230.158 240.605C232.219 252.845 236.992 264.98 240.328 277.9C244.732 293.888 247.461 310.8 247.064 327.57C246.721 344.147 244.13 360.755 240.198 376.726C240.005 377.509 239.808 378.297 239.606 379.089C235.785 394.106 233.586 409.45 235.197 424.673C236.657 440.778 243.608 455.712 249.167 471.212C252.92 481.763 255.358 492.882 255.657 504.083C255.812 509.083 255.621 513.818 255.146 518.791C254.803 522.338 254.294 526.023 253.67 529.599C253.582 530.105 253.467 530.59 253.352 530.943C253.236 531.297 253.13 531.491 253.056 531.478C252.983 531.465 252.947 531.245 252.951 530.873C252.956 530.501 253.001 530.006 253.072 529.499C253.578 525.888 253.965 522.181 254.185 518.613C254.442 514.486 254.496 510.488 254.324 506.443C254.612 505.791 254.822 504.892 254.834 503.269C254.843 502.47 254.774 501.173 254.639 500.289C254.517 499.484 254.366 498.893 254.22 498.336C254.068 497.765 253.914 497.179 253.791 496.447C253.58 495.195 253.283 494.064 252.945 492.857C252.821 492.411 252.692 491.96 252.56 491.499C251.826 487.763 250.839 483.973 249.687 480.33C249.289 478.881 248.898 477.579 248.52 476.484C248.177 475.491 247.803 474.608 247.41 473.743C247.202 473.187 246.99 472.628 246.773 472.066C245.388 468.47 243.878 464.893 242.365 461.312C241.305 458.466 240.165 455.479 238.736 451.572C238.119 449.88 237.566 448.207 237.057 446.568C236.312 444.174 235.673 441.881 235.076 439.885C234.669 438.525 234.358 437.138 234.064 435.689C233.668 433.736 233.351 431.871 232.924 430.1C232.664 429.033 232.419 428.04 232.202 427.103C231.855 425.591 231.593 424.327 231.466 423.129C231.225 420.851 231.014 418.962 230.857 417.224C230.669 415.085 230.573 413.454 230.678 411.893C230.694 411.659 230.716 411.391 230.742 411.088C230.883 409.484 231.12 407.055 231.308 403.439C231.373 402.188 231.396 400.984 231.435 399.784C231.5 397.978 231.567 396.444 231.88 394.656C231.927 394.392 232.002 394.119 232.072 393.871C232.161 393.554 232.24 393.277 232.235 393.104C232.221 392.598 232.247 391.789 232.273 390.975C232.293 390.366 232.32 389.714 232.338 389.106C232.988 385.271 233.71 381.714 234.604 377.871C234.789 377.077 234.969 376.288 235.145 375.503C235.604 373.454 236.013 371.527 236.432 369.447C236.788 368.427 237.128 367.388 237.44 366.291C237.846 364.874 238.253 362.96 238.731 360.498C239.079 358.703 239.466 356.608 239.915 354.133C240.738 349.641 241.221 344.904 241.402 341.837C241.441 341.196 241.475 340.555 241.508 339.874C241.623 337.264 241.793 333.978 241.803 327.818C241.799 321.93 241.571 316.997 241.305 313.264C241.172 311.392 241.024 309.764 240.896 308.582C240.676 306.524 240.372 304.012 239.994 301.458C239.423 297.539 238.649 293.535 238.149 291.328C237.975 290.555 237.775 289.705 237.557 288.811C236.957 286.364 236.177 283.348 235.029 279.284C233.804 274.981 233.017 272.324 232.231 269.55C231.91 268.427 231.7 267.38 231.493 266.34C231.188 264.827 230.879 263.298 230.153 261.235C229.986 260.759 229.797 260.267 229.597 259.741C229.221 258.753 228.831 257.727 228.508 256.615C228.394 256.225 228.318 255.876 228.245 255.536C228.165 255.161 228.087 254.796 227.967 254.396C227.504 252.854 227.072 251.395 226.698 250.044C226.225 248.347 225.862 246.853 225.688 245.934C225.412 244.492 225.082 242.93 224.821 241.331C224.782 241.097 224.746 240.857 224.713 240.613C224.511 239.09 224.427 237.671 224.426 236.247C224.421 232.261 224.785 226.887 225.355 221.391C225.564 219.362 225.891 217.567 226.319 215.388C226.592 213.986 226.901 212.465 227.281 210.504C227.5 209.372 227.59 208.475 227.686 207.591C227.772 206.788 227.858 206.021 228.023 205.275C228.168 204.62 228.352 204.219 228.528 203.839C228.723 203.415 228.908 203.016 229.02 202.307C229.08 201.931 229.115 201.453 229.153 200.913C229.168 200.697 229.185 200.467 229.205 200.222C229.224 200.239 229.243 200.246 229.258 200.249C229.361 200.269 229.552 199.57 229.743 198.879C229.82 198.603 229.896 198.328 229.965 198.103C230.222 197.262 230.55 195.699 230.795 194.478C230.898 193.962 231.026 193.501 231.176 192.961C231.31 192.481 231.458 191.956 231.624 191.268C231.719 190.877 231.813 190.58 231.891 190.335C231.947 190.157 231.995 190.006 232.029 189.863C232.059 189.74 232.051 189.633 232.041 189.513C232.035 189.427 232.027 189.333 232.033 189.221C232.048 188.953 232.107 188.616 232.17 188.385C232.199 188.278 232.229 188.195 232.258 188.114C232.292 188.019 232.326 187.924 232.36 187.791C232.513 187.181 232.609 186.574 232.709 185.942C232.82 185.248 232.936 184.522 233.142 183.729C233.206 183.48 233.286 183.22 233.364 182.967C233.445 182.702 233.525 182.445 233.58 182.223C233.803 181.323 233.921 180.454 234.03 179.653C234.103 179.119 234.171 178.62 234.265 178.162C234.436 177.323 234.451 176.854 234.461 176.509C234.467 176.329 234.471 176.183 234.497 176.034C234.53 175.9 234.564 175.765 234.598 175.632C234.633 175.511 234.668 175.385 234.694 175.266C234.696 175.257 234.697 175.248 234.699 175.239C234.893 174.495 235.093 173.769 235.293 173.047C235.741 171.426 236.189 169.826 236.557 168.108C236.637 167.738 236.69 167.354 236.744 166.964C236.81 166.487 236.879 165.998 236.999 165.513C237.286 164.355 237.63 163.195 237.969 162.06C238.478 160.359 238.986 158.67 239.275 157.1C239.371 156.581 239.443 156.071 239.516 155.551C239.557 155.263 239.598 154.973 239.644 154.682C239.677 154.755 239.714 154.798 239.748 154.838C239.819 154.922 239.88 154.994 239.875 155.283C239.862 155.967 239.885 156.748 240.055 156.703C240.101 156.692 240.142 156.721 240.182 156.751C240.285 156.828 240.388 156.908 240.59 156.324C240.726 155.927 241.068 154.909 241.146 154.23C241.163 154.082 241.147 153.985 241.129 153.878C241.098 153.685 241.061 153.455 241.197 152.829C241.22 152.724 241.245 152.609 241.272 152.491C241.378 152.023 241.5 151.489 241.489 151.275C241.478 151.03 241.386 151.058 241.278 151.091C241.138 151.134 240.972 151.186 240.923 150.651C240.914 150.545 240.949 150.357 240.976 150.215C240.995 150.114 241.009 150.038 241.001 150.028C240.991 150.016 240.958 150.041 240.917 150.073C240.771 150.187 240.516 150.382 240.769 149.358C240.837 149.081 240.927 148.768 241.007 148.488C241.126 148.075 241.224 147.733 241.205 147.679C241.197 147.659 241.188 147.643 241.177 147.629C241.265 147.303 241.355 146.967 241.445 146.633C241.593 146.213 241.745 145.61 241.934 144.863C241.98 144.682 242.028 144.491 242.079 144.293C242.257 143.64 242.431 143.004 242.613 142.337C242.766 141.817 242.937 141.268 243.131 140.696C243.52 139.551 243.92 138.584 244.32 137.611C244.488 137.205 244.653 136.805 244.815 136.4C244.778 136.565 244.746 136.714 244.726 136.83C244.588 137.627 244.641 137.98 244.689 138.303C244.722 138.518 244.752 138.721 244.723 139.038C244.673 139.604 244.796 139.578 244.887 139.559C244.934 139.55 244.972 139.543 244.973 139.62C244.974 139.683 244.947 139.819 244.918 139.96C244.893 140.082 244.867 140.209 244.859 140.293C244.763 141.308 244.932 141.04 245.178 140.649C245.314 140.434 245.473 140.184 245.624 140.089C245.778 140.015 245.805 140.06 245.721 140.582C245.887 140.201 246.052 139.824 246.219 139.445C246.257 139.286 246.25 139.155 246.23 138.969C246.195 138.637 246.413 137.649 246.581 136.886C246.659 136.533 246.726 136.227 246.754 136.052C246.903 135.122 246.702 135.351 246.526 135.551C246.429 135.662 246.339 135.764 246.319 135.66C246.31 135.616 246.277 135.667 246.242 135.718C246.216 135.757 246.188 135.798 246.172 135.796C246.056 135.773 246.11 135.231 246.171 134.691C246.205 134.386 246.236 134.097 246.232 133.932C246.23 133.882 246.226 133.841 246.222 133.802C246.215 133.746 246.21 133.692 246.214 133.61C246.224 133.424 246.296 133.055 246.375 132.654C246.416 132.449 246.458 132.235 246.494 132.032C246.541 131.769 246.521 131.665 246.5 131.555C246.486 131.477 246.471 131.396 246.479 131.257C246.49 131.013 246.611 130.495 246.718 130.034C246.765 129.832 246.81 129.637 246.845 129.472C246.859 129.405 246.86 129.371 246.851 129.361C247.02 128.602 247.176 127.886 247.327 127.197C248.07 123.841 248.707 120.979 249.937 116.957L249.932 116.973C250.003 116.736 250.076 116.488 250.149 116.228C250.385 115.399 250.578 114.536 250.752 113.602C251.395 110.693 251.871 107.719 252.275 104.728C252.452 104.134 252.622 103.427 252.782 102.573C253.085 100.941 253.268 99.2816 253.461 97.3132C253.604 95.8419 253.749 94.2306 253.943 92.3176C254.268 89.127 254.534 85.8489 254.725 82.1307C254.916 78.4308 255.055 74.1893 255.116 71.1904C255.15 69.5536 255.265 67.8384 255.367 66.2351C255.511 63.9841 255.627 61.9549 255.466 60.7257C255.415 60.3338 255.325 59.9477 255.238 59.5767C255.175 59.312 255.114 59.0513 255.069 58.7964C255.081 58.115 255.093 57.4471 255.104 56.7586C255.207 55.5444 255.31 53.6702 255.17 51.8555C255.177 51.1613 255.184 50.4519 255.189 49.7722C255.201 48.3004 255.21 46.8367 255.215 45.3889C255.217 44.9233 255.218 44.4263 255.218 43.9433C255.218 43.9387 255.218 43.9341 255.218 43.9295C255.22 42.9509 255.22 41.996 255.219 41.0152C255.218 40.6009 255.217 40.1897 255.216 39.7819C255.213 38.7492 255.207 37.6575 255.201 36.6472C255.197 36.0942 255.192 35.5273 255.187 34.9762C255.18 34.0962 255.169 33.1575 255.158 32.2652C255.14 30.8118 255.119 29.3735 255.089 27.8911C255.085 27.6543 255.093 27.4294 255.113 27.2647C255.133 27.1001 255.163 27.0076 255.198 27.0062C255.233 27.005 255.271 27.0953 255.306 27.2581C255.34 27.4208 255.367 27.6441 255.383 27.8804C255.48 29.3619 255.57 30.8005 255.655 32.2533C255.707 33.1453 255.759 34.0825 255.807 34.9623C255.837 35.5134 255.867 36.0799 255.895 36.6324C255.948 37.6424 256.002 38.7362 256.051 39.7683C256.07 40.1762 256.089 40.5874 256.108 41.0018C256.153 41.9856 256.195 42.9427 256.236 43.9246C256.236 43.9305 256.236 43.9364 256.237 43.9423C256.257 44.4224 256.277 44.9158 256.295 45.3785C256.353 46.8279 256.407 48.2931 256.457 49.7672C256.484 50.5366 256.509 51.3359 256.534 52.1227C256.547 52.5624 256.561 53.0031 256.573 53.4374C256.58 53.6745 256.587 53.9172 256.594 54.1579C256.749 59.6725 256.845 65.1706 256.864 70.7115C256.883 76.2373 256.828 81.7619 256.657 87.2912C256.482 92.8283 256.202 98.3643 255.682 103.889C255.224 108.574 254.658 113.279 253.468 117.951L253.464 117.965C245.697 147.246 238.493 176.868 233.192 206.697C232.347 211.602 231.553 216.659 230.941 221.573C230.337 226.504 229.842 231.489 229.871 236.28C229.885 237.746 229.962 239.255 230.155 240.585C230.156 240.592 230.157 240.598 230.158 240.605Z" fill="#224509"/>
<g filter="url(#filter13_iii_54_729)">
<path d="M264.592 288C277.592 304.5 281.092 322.5 281.092 322.5C281.092 322.5 247.904 318.023 238.551 305.751C229.198 293.479 238.534 275.973 238.534 275.973C238.534 275.973 255.043 275.88 264.592 288Z" fill="#193505"/>
</g>
<path d="M239.239 276.492C239.7 276.513 240.372 276.555 241.209 276.645C242.884 276.823 245.219 277.186 247.847 277.923C253.108 279.398 259.513 282.361 264.199 288.309C270.659 296.508 274.762 305.086 277.249 311.616C278.493 314.88 279.332 317.63 279.86 319.562C280.124 320.527 280.31 321.289 280.429 321.807C280.437 321.839 280.443 321.87 280.45 321.9C280.248 321.869 280.005 321.834 279.726 321.789C278.804 321.644 277.476 321.422 275.853 321.117C272.605 320.507 268.179 319.567 263.464 318.246C258.747 316.924 253.752 315.223 249.362 313.095C244.963 310.963 241.217 308.424 238.949 305.447C234.398 299.476 234.373 292.205 235.526 286.356C236.101 283.439 236.965 280.897 237.686 279.084C238.046 278.179 238.37 277.457 238.603 276.962C238.697 276.763 238.777 276.6 238.837 276.478C238.944 276.481 239.079 276.485 239.239 276.492Z" stroke="#172F06"/>
<path d="M248.711 290.761C249.677 291.344 249.473 292.794 250.547 293.617C251.624 294.442 252.202 294.136 253.206 295.311C254.21 296.485 255.617 297.25 255.932 297.908C256.25 298.569 256.837 298.059 257.423 298.855C258.009 299.651 258.509 299.984 259.303 300.384C260.088 300.78 262.164 302.401 262.676 303.259C263.186 304.125 264.376 304.432 264.962 304.728C265.162 304.835 265.32 304.886 265.447 304.91C265.5 304.92 265.547 304.892 265.577 304.852C265.577 304.852 265.577 304.852 265.577 304.852C265.613 304.802 265.622 304.734 265.577 304.691C265.35 304.476 265.024 304.091 264.74 303.562C264.201 302.561 263.823 302.842 262.896 301.726C261.979 300.61 261.637 299.71 260.221 298.761C258.802 297.802 259.327 296.706 257.156 295.528C254.987 294.344 255.651 293.3 254.069 291.527C252.488 289.753 249.893 288.122 248.913 287.068C247.935 286.017 246.676 284.561 245.129 283.237C244.681 282.854 244.21 282.379 243.771 281.914C243.118 281.132 242.349 279.391 241.47 278.157C240.192 276.337 238.485 273.636 237.623 272.428C236.762 271.218 236.557 270.92 236.062 269.591C235.777 268.827 235.2 267.858 234.487 267.164C234.129 266.818 233.986 267.013 234.113 267.484C234.297 268.171 234.647 268.637 234.565 269.08C234.401 269.967 234.347 270.327 235.033 270.999C235.719 271.671 235.259 272.372 235.566 272.81C235.874 273.249 236.248 273.052 237.142 275.617C238.039 278.184 238.659 279.557 239.085 280.511C239.493 281.332 240.285 282.573 241.625 284.066C241.819 284.257 242.034 284.485 242.221 284.704C243.29 285.966 245.775 288.278 246.589 289.393C247.401 290.509 247.74 290.174 248.711 290.761Z" fill="#224509"/>
<g filter="url(#filter14_iii_54_729)">
<path d="M274.859 402.373C289.065 426.842 290.317 451.509 290.317 451.509C290.317 451.509 246.91 439.243 236.766 421.104C226.622 402.965 242.391 381.391 242.391 381.391C242.391 381.391 264.424 384.399 274.859 402.373Z" fill="#193505"/>
</g>
<path d="M243.233 382.217C243.844 382.332 244.732 382.517 245.832 382.795C248.032 383.351 251.076 384.278 254.441 385.759C261.178 388.724 269.156 393.891 274.276 402.711C281.336 414.871 285.18 427.086 287.259 436.265C288.298 440.853 288.894 444.68 289.232 447.356C289.4 448.694 289.504 449.745 289.565 450.459C289.569 450.503 289.57 450.546 289.574 450.587C289.311 450.508 288.995 450.414 288.63 450.302C287.429 449.933 285.7 449.385 283.593 448.671C279.377 447.242 273.654 445.149 267.617 442.492C261.577 439.834 255.24 436.619 249.789 432.949C244.328 429.271 239.815 425.174 237.354 420.775C232.418 411.949 233.765 402.247 236.411 394.667C237.731 390.886 239.366 387.661 240.671 385.38C241.323 384.241 241.891 383.339 242.296 382.724C242.459 382.476 242.597 382.275 242.701 382.124C242.843 382.148 243.022 382.178 243.233 382.217Z" stroke="#172F06" stroke-width="1.34692"/>
<path d="M253.158 403.043C254.336 404.003 253.788 405.898 255.064 407.199C256.344 408.503 257.173 408.205 258.289 409.962C259.404 411.719 261.136 413.006 261.431 413.943C261.73 414.884 262.61 414.316 263.24 415.489C263.87 416.661 264.474 417.201 265.457 417.884C266.428 418.561 268.889 421.117 269.41 422.357C269.925 423.61 271.454 424.245 272.179 424.751C272.425 424.931 272.627 425.03 272.791 425.085C272.861 425.108 272.928 425.08 272.975 425.032C272.975 425.032 272.975 425.032 272.975 425.032C273.033 424.973 273.058 424.884 273.006 424.817C272.744 424.487 272.383 423.913 272.104 423.154C271.575 421.716 271.017 422.019 269.993 420.356C268.982 418.693 268.696 417.429 266.99 415.894C265.279 414.345 266.187 412.985 263.515 411.001C260.847 409.011 261.93 407.745 260.157 405.08C258.385 402.415 255.235 399.747 254.128 398.156C253.023 396.57 251.62 394.389 249.809 392.33C249.284 391.734 248.746 391.011 248.249 390.308C247.526 389.141 246.831 386.674 245.893 384.862C244.534 382.193 242.769 378.267 241.85 376.492C240.931 374.715 240.714 374.279 240.306 372.413C240.071 371.341 239.485 369.939 238.666 368.878C238.255 368.349 238.026 368.582 238.106 369.233C238.222 370.185 238.6 370.872 238.407 371.447C238.02 372.6 237.88 373.069 238.668 374.095C239.454 375.121 238.708 375.969 239.034 376.611C239.362 377.255 239.898 377.064 240.604 380.654C241.313 384.247 241.878 386.195 242.266 387.548C242.654 388.721 243.475 390.526 244.979 392.771C245.201 393.062 245.445 393.406 245.652 393.734C246.839 395.621 249.714 399.175 250.587 400.816C251.459 402.458 251.974 402.075 253.158 403.043Z" fill="#224509"/>
<g filter="url(#filter15_iii_54_729)">
<path d="M229.901 92.0379C219.89 113.479 211.689 128 211.689 128C211.689 128 243.689 133.5 263.028 104.804C270.128 88.9384 255.385 72.1419 255.385 72.1419C255.385 72.1419 237.255 76.2885 229.901 92.0379Z" fill="#193505"/>
</g>
<path d="M254.727 72.832C254.226 72.9736 253.498 73.1944 252.602 73.5081C250.808 74.1358 248.338 75.1352 245.642 76.6216C240.244 79.5971 233.971 84.5041 230.354 92.2492C225.345 102.978 220.788 111.975 217.484 118.291C215.832 121.449 214.492 123.937 213.565 125.636C213.102 126.485 212.742 127.137 212.497 127.577C212.492 127.587 212.487 127.597 212.482 127.606C212.671 127.63 212.895 127.656 213.153 127.683C214.053 127.776 215.365 127.878 217.001 127.911C220.273 127.978 224.839 127.771 230.002 126.674C240.314 124.485 253.01 118.752 262.588 104.564C266.031 96.8314 264.181 88.8448 261.413 82.7298C260.03 79.6737 258.426 77.1053 257.167 75.3007C256.538 74.3989 255.996 73.6889 255.613 73.2058C255.444 72.9933 255.306 72.8248 255.204 72.7031C255.081 72.7351 254.921 72.7772 254.727 72.832Z" stroke="#172F06"/>
<path d="M248.163 97.9407C247.965 98.1596 247.845 98.3999 247.763 98.6569C247.504 99.4663 247.633 100.475 246.912 101.311C245.959 102.394 245.339 102.196 244.462 103.562C243.574 104.928 242.167 105.856 241.866 106.55C241.561 107.249 240.948 106.774 240.36 107.61C239.763 108.447 239.242 108.8 238.427 109.211C237.613 109.63 235.462 111.235 234.962 112.118C234.462 112.991 233.316 113.359 232.77 113.759C232.6 113.881 232.45 113.965 232.325 114.019C232.272 114.042 232.218 114.027 232.182 113.994C232.182 113.994 232.182 113.994 232.182 113.994C232.136 113.953 232.116 113.884 232.156 113.828C232.352 113.555 232.619 113.124 232.883 112.548C233.385 111.474 233.792 111.724 234.747 110.573C235.704 109.427 236.089 108.533 237.524 107.577C238.957 106.596 238.428 105.534 240.507 104.238C242.576 102.873 241.808 101.892 243.052 99.9241C243.639 98.9733 244.422 97.99 245.146 97.0575C245.904 96.0939 246.575 95.1184 246.865 94.4394C247.425 93.137 248.035 91.3143 248.884 89.4524C249.741 87.5827 250.143 85.0456 251.068 82.9478C252 80.8497 253.203 77.8266 253.824 76.4329C254.445 75.0458 254.589 74.7078 254.818 73.2707C254.949 72.4482 255.321 71.3563 255.882 70.5059C256.162 70.0876 256.344 70.2464 256.313 70.7445C256.27 71.4722 256.02 72.0116 256.187 72.4423C256.525 73.2892 256.645 73.6534 256.101 74.4654C255.556 75.2847 256.141 75.8922 255.919 76.3995C255.697 76.903 255.298 76.7829 254.879 79.5402C254.453 82.3001 254.088 83.7877 253.855 84.8205C253.622 85.8563 252.603 87.8448 252.149 89.5185C251.719 91.1983 250.291 94.447 249.839 95.8418C249.401 97.2459 248.962 97.0498 248.163 97.9407Z" fill="#224509"/>
<g filter="url(#filter16_iii_54_729)">
<path d="M240.312 523.065C240.312 553.5 255.689 563 255.689 563C255.689 563 267.878 540.315 268.416 523.993C268.955 507.67 254.91 498.455 254.91 498.455C254.91 498.455 240.85 506.743 240.312 523.065Z" fill="#193505"/>
</g>
<path d="M254.584 499.258C254.207 499.511 253.665 499.891 253.012 500.399C251.705 501.416 249.955 502.94 248.19 504.967C244.768 508.895 241.3 514.694 240.846 522.337L240.812 523.082C240.815 538.201 244.633 548.087 248.424 554.181C250.322 557.232 252.217 559.337 253.63 560.677C254.337 561.347 254.923 561.825 255.33 562.134C255.394 562.183 255.456 562.224 255.51 562.264C255.583 562.125 255.669 561.959 255.768 561.766C256.101 561.117 256.578 560.17 257.152 558.983C258.299 556.608 259.835 553.273 261.387 549.43C264.497 541.729 267.65 532.045 267.916 523.977C268.181 515.97 264.87 509.698 261.473 505.413C259.776 503.272 258.061 501.633 256.771 500.53C256.127 499.979 255.59 499.562 255.215 499.285C255.09 499.192 254.983 499.116 254.896 499.054C254.811 499.109 254.706 499.176 254.584 499.258Z" stroke="#172F06"/>
<defs>
<filter id="filter0_i_54_729" x="20" y="51" width="230" height="135" filterUnits="userSpaceOnUse" color-interpolation-filters="sRGB">
<feFlood flood-opacity="0" result="BackgroundImageFix"/>
<feBlend mode="normal" in="SourceGraphic" in2="BackgroundImageFix" result="shape"/>
<feColorMatrix in="SourceAlpha" type="matrix" values="0 0 0 0 0 0 0 0 0 0 0 0 0 0 0 0 0 0 127 0" result="hardAlpha"/>
<feOffset dx="-3" dy="-3"/>
<feComposite in2="hardAlpha" operator="arithmetic" k2="-1" k3="1"/>
<feColorMatrix type="matrix" values="0 0 0 0 0.658824 0 0 0 0 0.329412 0 0 0 0 0.219608 0 0 0 1 0"/>
<feBlend mode="normal" in2="shape" result="effect1_innerShadow_54_729"/>
</filter>
<filter id="filter1_iii_54_729" x="51" y="238.5" width="50" height="79" filterUnits="userSpaceOnUse" color-interpolation-filters="sRGB">
<feFlood flood-opacity="0" result="BackgroundImageFix"/>
<feBlend mode="normal" in="SourceGraphic" in2="BackgroundImageFix" result="shape"/>
<feColorMatrix in="SourceAlpha" type="matrix" values="0 0 0 0 0 0 0 0 0 0 0 0 0 0 0 0 0 0 127 0" result="hardAlpha"/>
<feOffset dx="2" dy="-6"/>
<feComposite in2="hardAlpha" operator="arithmetic" k2="-1" k3="1"/>
<feColorMatrix type="matrix" values="0 0 0 0 0.305882 0 0 0 0 0.423529 0 0 0 0 0.0392157 0 0 0 0.5 0"/>
<feBlend mode="normal" in2="shape" result="effect1_innerShadow_54_729"/>
<feColorMatrix in="SourceAlpha" type="matrix" values="0 0 0 0 0 0 0 0 0 0 0 0 0 0 0 0 0 0 127 0" result="hardAlpha"/>
<feOffset dy="-2"/>
<feComposite in2="hardAlpha" operator="arithmetic" k2="-1" k3="1"/>
<feColorMatrix type="matrix" values="0 0 0 0 0 0 0 0 0 0 0 0 0 0 0 0 0 0 0.25 0"/>
<feBlend mode="normal" in2="effect1_innerShadow_54_729" result="effect2_innerShadow_54_729"/>
<feColorMatrix in="SourceAlpha" type="matrix" values="0 0 0 0 0 0 0 0 0 0 0 0 0 0 0 0 0 0 127 0" result="hardAlpha"/>
<feOffset dy="4"/>
<feComposite in2="hardAlpha" operator="arithmetic" k2="-1" k3="1"/>
<feColorMatrix type="matrix" values="0 0 0 0 0 0 0 0 0 0 0 0 0 0 0 0 0 0 0.25 0"/>
<feBlend mode="normal" in2="effect2_innerShadow_54_729" result="effect3_innerShadow_54_729"/>
</filter>
<filter id="filter2_iii_54_729" x="76.2974" y="193.473" width="46.7026" height="46.5273" filterUnits="userSpaceOnUse" color-interpolation-filters="sRGB">
<feFlood flood-opacity="0" result="BackgroundImageFix"/>
<feBlend mode="normal" in="SourceGraphic" in2="BackgroundImageFix" result="shape"/>
<feColorMatrix in="SourceAlpha" type="matrix" values="0 0 0 0 0 0 0 0 0 0 0 0 0 0 0 0 0 0 127 0" result="hardAlpha"/>
<feOffset dx="2" dy="-6"/>
<feComposite in2="hardAlpha" operator="arithmetic" k2="-1" k3="1"/>
<feColorMatrix type="matrix" values="0 0 0 0 0.305882 0 0 0 0 0.423529 0 0 0 0 0.0392157 0 0 0 0.5 0"/>
<feBlend mode="normal" in2="shape" result="effect1_innerShadow_54_729"/>
<feColorMatrix in="SourceAlpha" type="matrix" values="0 0 0 0 0 0 0 0 0 0 0 0 0 0 0 0 0 0 127 0" result="hardAlpha"/>
<feOffset dy="-2"/>
<feComposite in2="hardAlpha" operator="arithmetic" k2="-1" k3="1"/>
<feColorMatrix type="matrix" values="0 0 0 0 0 0 0 0 0 0 0 0 0 0 0 0 0 0 0.25 0"/>
<feBlend mode="normal" in2="effect1_innerShadow_54_729" result="effect2_innerShadow_54_729"/>
<feColorMatrix in="SourceAlpha" type="matrix" values="0 0 0 0 0 0 0 0 0 0 0 0 0 0 0 0 0 0 127 0" result="hardAlpha"/>
<feOffset dy="4"/>
<feComposite in2="hardAlpha" operator="arithmetic" k2="-1" k3="1"/>
<feColorMatrix type="matrix" values="0 0 0 0 0 0 0 0 0 0 0 0 0 0 0 0 0 0 0.25 0"/>
<feBlend mode="normal" in2="effect2_innerShadow_54_729" result="effect3_innerShadow_54_729"/>
</filter>
<filter id="filter3_iii_54_729" x="9.30859" y="138.73" width="70.084" height="69.8213" filterUnits="userSpaceOnUse" color-interpolation-filters="sRGB">
<feFlood flood-opacity="0" result="BackgroundImageFix"/>
<feBlend mode="normal" in="SourceGraphic" in2="BackgroundImageFix" result="shape"/>
<feColorMatrix in="SourceAlpha" type="matrix" values="0 0 0 0 0 0 0 0 0 0 0 0 0 0 0 0 0 0 127 0" result="hardAlpha"/>
<feOffset dx="2" dy="-6"/>
<feComposite in2="hardAlpha" operator="arithmetic" k2="-1" k3="1"/>
<feColorMatrix type="matrix" values="0 0 0 0 0.305882 0 0 0 0 0.423529 0 0 0 0 0.0392157 0 0 0 0.5 0"/>
<feBlend mode="normal" in2="shape" result="effect1_innerShadow_54_729"/>
<feColorMatrix in="SourceAlpha" type="matrix" values="0 0 0 0 0 0 0 0 0 0 0 0 0 0 0 0 0 0 127 0" result="hardAlpha"/>
<feOffset dy="-2"/>
<feComposite in2="hardAlpha" operator="arithmetic" k2="-1" k3="1"/>
<feColorMatrix type="matrix" values="0 0 0 0 0 0 0 0 0 0 0 0 0 0 0 0 0 0 0.25 0"/>
<feBlend mode="normal" in2="effect1_innerShadow_54_729" result="effect2_innerShadow_54_729"/>
<feColorMatrix in="SourceAlpha" type="matrix" values="0 0 0 0 0 0 0 0 0 0 0 0 0 0 0 0 0 0 127 0" result="hardAlpha"/>
<feOffset dy="4"/>
<feComposite in2="hardAlpha" operator="arithmetic" k2="-1" k3="1"/>
<feColorMatrix type="matrix" values="0 0 0 0 0 0 0 0 0 0 0 0 0 0 0 0 0 0 0.25 0"/>
<feBlend mode="normal" in2="effect2_innerShadow_54_729" result="effect3_innerShadow_54_729"/>
</filter>
<filter id="filter4_iii_54_729" x="67.6484" y="91.3984" width="43.5269" height="62.6826" filterUnits="userSpaceOnUse" color-interpolation-filters="sRGB">
<feFlood flood-opacity="0" result="BackgroundImageFix"/>
<feBlend mode="normal" in="SourceGraphic" in2="BackgroundImageFix" result="shape"/>
<feColorMatrix in="SourceAlpha" type="matrix" values="0 0 0 0 0 0 0 0 0 0 0 0 0 0 0 0 0 0 127 0" result="hardAlpha"/>
<feOffset dx="2" dy="-4"/>
<feComposite in2="hardAlpha" operator="arithmetic" k2="-1" k3="1"/>
<feColorMatrix type="matrix" values="0 0 0 0 0.305882 0 0 0 0 0.423529 0 0 0 0 0.0392157 0 0 0 0.5 0"/>
<feBlend mode="normal" in2="shape" result="effect1_innerShadow_54_729"/>
<feColorMatrix in="SourceAlpha" type="matrix" values="0 0 0 0 0 0 0 0 0 0 0 0 0 0 0 0 0 0 127 0" result="hardAlpha"/>
<feOffset dy="-2"/>
<feComposite in2="hardAlpha" operator="arithmetic" k2="-1" k3="1"/>
<feColorMatrix type="matrix" values="0 0 0 0 0 0 0 0 0 0 0 0 0 0 0 0 0 0 0.25 0"/>
<feBlend mode="normal" in2="effect1_innerShadow_54_729" result="effect2_innerShadow_54_729"/>
<feColorMatrix in="SourceAlpha" type="matrix" values="0 0 0 0 0 0 0 0 0 0 0 0 0 0 0 0 0 0 127 0" result="hardAlpha"/>
<feOffset dy="4"/>
<feComposite in2="hardAlpha" operator="arithmetic" k2="-1" k3="1"/>
<feColorMatrix type="matrix" values="0 0 0 0 0 0 0 0 0 0 0 0 0 0 0 0 0 0 0.25 0"/>
<feBlend mode="normal" in2="effect2_innerShadow_54_729" result="effect3_innerShadow_54_729"/>
</filter>
<filter id="filter5_iii_54_729" x="142.787" y="133.773" width="36.8521" height="58.2266" filterUnits="userSpaceOnUse" color-interpolation-filters="sRGB">
<feFlood flood-opacity="0" result="BackgroundImageFix"/>
<feBlend mode="normal" in="SourceGraphic" in2="BackgroundImageFix" result="shape"/>
<feColorMatrix in="SourceAlpha" type="matrix" values="0 0 0 0 0 0 0 0 0 0 0 0 0 0 0 0 0 0 127 0" result="hardAlpha"/>
<feOffset dx="1.47409" dy="-4.42227"/>
<feComposite in2="hardAlpha" operator="arithmetic" k2="-1" k3="1"/>
<feColorMatrix type="matrix" values="0 0 0 0 0.305882 0 0 0 0 0.423529 0 0 0 0 0.0392157 0 0 0 0.5 0"/>
<feBlend mode="normal" in2="shape" result="effect1_innerShadow_54_729"/>
<feColorMatrix in="SourceAlpha" type="matrix" values="0 0 0 0 0 0 0 0 0 0 0 0 0 0 0 0 0 0 127 0" result="hardAlpha"/>
<feOffset dy="-1.47409"/>
<feComposite in2="hardAlpha" operator="arithmetic" k2="-1" k3="1"/>
<feColorMatrix type="matrix" values="0 0 0 0 0 0 0 0 0 0 0 0 0 0 0 0 0 0 0.25 0"/>
<feBlend mode="normal" in2="effect1_innerShadow_54_729" result="effect2_innerShadow_54_729"/>
<feColorMatrix in="SourceAlpha" type="matrix" values="0 0 0 0 0 0 0 0 0 0 0 0 0 0 0 0 0 0 127 0" result="hardAlpha"/>
<feOffset dy="2.94818"/>
<feComposite in2="hardAlpha" operator="arithmetic" k2="-1" k3="1"/>
<feColorMatrix type="matrix" values="0 0 0 0 0 0 0 0 0 0 0 0 0 0 0 0 0 0 0.25 0"/>
<feBlend mode="normal" in2="effect2_innerShadow_54_729" result="effect3_innerShadow_54_729"/>
</filter>
<filter id="filter6_iii_54_729" x="126.572" y="100.586" width="34.4219" height="34.293" filterUnits="userSpaceOnUse" color-interpolation-filters="sRGB">
<feFlood flood-opacity="0" result="BackgroundImageFix"/>
<feBlend mode="normal" in="SourceGraphic" in2="BackgroundImageFix" result="shape"/>
<feColorMatrix in="SourceAlpha" type="matrix" values="0 0 0 0 0 0 0 0 0 0 0 0 0 0 0 0 0 0 127 0" result="hardAlpha"/>
<feOffset dx="1.47409" dy="-4.42227"/>
<feComposite in2="hardAlpha" operator="arithmetic" k2="-1" k3="1"/>
<feColorMatrix type="matrix" values="0 0 0 0 0.305882 0 0 0 0 0.423529 0 0 0 0 0.0392157 0 0 0 0.5 0"/>
<feBlend mode="normal" in2="shape" result="effect1_innerShadow_54_729"/>
<feColorMatrix in="SourceAlpha" type="matrix" values="0 0 0 0 0 0 0 0 0 0 0 0 0 0 0 0 0 0 127 0" result="hardAlpha"/>
<feOffset dy="-1.47409"/>
<feComposite in2="hardAlpha" operator="arithmetic" k2="-1" k3="1"/>
<feColorMatrix type="matrix" values="0 0 0 0 0 0 0 0 0 0 0 0 0 0 0 0 0 0 0.25 0"/>
<feBlend mode="normal" in2="effect1_innerShadow_54_729" result="effect2_innerShadow_54_729"/>
<feColorMatrix in="SourceAlpha" type="matrix" values="0 0 0 0 0 0 0 0 0 0 0 0 0 0 0 0 0 0 127 0" result="hardAlpha"/>
<feOffset dy="2.94818"/>
<feComposite in2="hardAlpha" operator="arithmetic" k2="-1" k3="1"/>
<feColorMatrix type="matrix" values="0 0 0 0 0 0 0 0 0 0 0 0 0 0 0 0 0 0 0.25 0"/>
<feBlend mode="normal" in2="effect2_innerShadow_54_729" result="effect3_innerShadow_54_729"/>
</filter>
<filter id="filter7_iii_54_729" x="158.713" y="60.2393" width="51.6548" height="51.4609" filterUnits="userSpaceOnUse" color-interpolation-filters="sRGB">
<feFlood flood-opacity="0" result="BackgroundImageFix"/>
<feBlend mode="normal" in="SourceGraphic" in2="BackgroundImageFix" result="shape"/>
<feColorMatrix in="SourceAlpha" type="matrix" values="0 0 0 0 0 0 0 0 0 0 0 0 0 0 0 0 0 0 127 0" result="hardAlpha"/>
<feOffset dx="1.47409" dy="-4.42227"/>
<feComposite in2="hardAlpha" operator="arithmetic" k2="-1" k3="1"/>
<feColorMatrix type="matrix" values="0 0 0 0 0.305882 0 0 0 0 0.423529 0 0 0 0 0.0392157 0 0 0 0.5 0"/>
<feBlend mode="normal" in2="shape" result="effect1_innerShadow_54_729"/>
<feColorMatrix in="SourceAlpha" type="matrix" values="0 0 0 0 0 0 0 0 0 0 0 0 0 0 0 0 0 0 127 0" result="hardAlpha"/>
<feOffset dy="-1.47409"/>
<feComposite in2="hardAlpha" operator="arithmetic" k2="-1" k3="1"/>
<feColorMatrix type="matrix" values="0 0 0 0 0 0 0 0 0 0 0 0 0 0 0 0 0 0 0.25 0"/>
<feBlend mode="normal" in2="effect1_innerShadow_54_729" result="effect2_innerShadow_54_729"/>
<feColorMatrix in="SourceAlpha" type="matrix" values="0 0 0 0 0 0 0 0 0 0 0 0 0 0 0 0 0 0 127 0" result="hardAlpha"/>
<feOffset dy="2.94818"/>
<feComposite in2="hardAlpha" operator="arithmetic" k2="-1" k3="1"/>
<feColorMatrix type="matrix" values="0 0 0 0 0 0 0 0 0 0 0 0 0 0 0 0 0 0 0.25 0"/>
<feBlend mode="normal" in2="effect2_innerShadow_54_729" result="effect3_innerShadow_54_729"/>
</filter>
<filter id="filter8_iii_54_729" x="135.288" y="25.3535" width="32.0811" height="46.1997" filterUnits="userSpaceOnUse" color-interpolation-filters="sRGB">
<feFlood flood-opacity="0" result="BackgroundImageFix"/>
<feBlend mode="normal" in="SourceGraphic" in2="BackgroundImageFix" result="shape"/>
<feColorMatrix in="SourceAlpha" type="matrix" values="0 0 0 0 0 0 0 0 0 0 0 0 0 0 0 0 0 0 127 0" result="hardAlpha"/>
<feOffset dx="1.47409" dy="-2.94818"/>
<feComposite in2="hardAlpha" operator="arithmetic" k2="-1" k3="1"/>
<feColorMatrix type="matrix" values="0 0 0 0 0.305882 0 0 0 0 0.423529 0 0 0 0 0.0392157 0 0 0 0.5 0"/>
<feBlend mode="normal" in2="shape" result="effect1_innerShadow_54_729"/>
<feColorMatrix in="SourceAlpha" type="matrix" values="0 0 0 0 0 0 0 0 0 0 0 0 0 0 0 0 0 0 127 0" result="hardAlpha"/>
<feOffset dy="-1.47409"/>
<feComposite in2="hardAlpha" operator="arithmetic" k2="-1" k3="1"/>
<feColorMatrix type="matrix" values="0 0 0 0 0 0 0 0 0 0 0 0 0 0 0 0 0 0 0.25 0"/>
<feBlend mode="normal" in2="effect1_innerShadow_54_729" result="effect2_innerShadow_54_729"/>
<feColorMatrix in="SourceAlpha" type="matrix" values="0 0 0 0 0 0 0 0 0 0 0 0 0 0 0 0 0 0 127 0" result="hardAlpha"/>
<feOffset dy="2.94818"/>
<feComposite in2="hardAlpha" operator="arithmetic" k2="-1" k3="1"/>
<feColorMatrix type="matrix" values="0 0 0 0 0 0 0 0 0 0 0 0 0 0 0 0 0 0 0.25 0"/>
<feBlend mode="normal" in2="effect2_innerShadow_54_729" result="effect3_innerShadow_54_729"/>
</filter>
<filter id="filter9_ii_54_729" x="217.073" y="135.693" width="48.0889" height="85.311" filterUnits="userSpaceOnUse" color-interpolation-filters="sRGB">
<feFlood flood-opacity="0" result="BackgroundImageFix"/>
<feBlend mode="normal" in="SourceGraphic" in2="BackgroundImageFix" result="shape"/>
<feColorMatrix in="SourceAlpha" type="matrix" values="0 0 0 0 0 0 0 0 0 0 0 0 0 0 0 0 0 0 127 0" result="hardAlpha"/>
<feOffset dy="-2"/>
<feComposite in2="hardAlpha" operator="arithmetic" k2="-1" k3="1"/>
<feColorMatrix type="matrix" values="0 0 0 0 0 0 0 0 0 0 0 0 0 0 0 0 0 0 0.25 0"/>
<feBlend mode="normal" in2="shape" result="effect1_innerShadow_54_729"/>
<feColorMatrix in="SourceAlpha" type="matrix" values="0 0 0 0 0 0 0 0 0 0 0 0 0 0 0 0 0 0 127 0" result="hardAlpha"/>
<feOffset dy="4"/>
<feComposite in2="hardAlpha" operator="arithmetic" k2="-1" k3="1"/>
<feColorMatrix type="matrix" values="0 0 0 0 0 0 0 0 0 0 0 0 0 0 0 0 0 0 0.25 0"/>
<feBlend mode="normal" in2="effect1_innerShadow_54_729" result="effect2_innerShadow_54_729"/>
</filter>
<filter id="filter10_ii_54_729" x="208.736" y="332.737" width="51.3857" height="81.5317" filterUnits="userSpaceOnUse" color-interpolation-filters="sRGB">
<feFlood flood-opacity="0" result="BackgroundImageFix"/>
<feBlend mode="normal" in="SourceGraphic" in2="BackgroundImageFix" result="shape"/>
<feColorMatrix in="SourceAlpha" type="matrix" values="0 0 0 0 0 0 0 0 0 0 0 0 0 0 0 0 0 0 127 0" result="hardAlpha"/>
<feOffset dy="-2"/>
<feComposite in2="hardAlpha" operator="arithmetic" k2="-1" k3="1"/>
<feColorMatrix type="matrix" values="0 0 0 0 0 0 0 0 0 0 0 0 0 0 0 0 0 0 0.25 0"/>
<feBlend mode="normal" in2="shape" result="effect1_innerShadow_54_729"/>
<feColorMatrix in="SourceAlpha" type="matrix" values="0 0 0 0 0 0 0 0 0 0 0 0 0 0 0 0 0 0 127 0" result="hardAlpha"/>
<feOffset dy="4"/>
<feComposite in2="hardAlpha" operator="arithmetic" k2="-1" k3="1"/>
<feColorMatrix type="matrix" values="0 0 0 0 0 0 0 0 0 0 0 0 0 0 0 0 0 0 0.25 0"/>
<feBlend mode="normal" in2="effect1_innerShadow_54_729" result="effect2_innerShadow_54_729"/>
</filter>
<filter id="filter11_ii_54_729" x="209.258" y="192.066" width="63.6611" height="77.5083" filterUnits="userSpaceOnUse" color-interpolation-filters="sRGB">
<feFlood flood-opacity="0" result="BackgroundImageFix"/>
<feBlend mode="normal" in="SourceGraphic" in2="BackgroundImageFix" result="shape"/>
<feColorMatrix in="SourceAlpha" type="matrix" values="0 0 0 0 0 0 0 0 0 0 0 0 0 0 0 0 0 0 127 0" result="hardAlpha"/>
<feOffset dy="-2"/>
<feComposite in2="hardAlpha" operator="arithmetic" k2="-1" k3="1"/>
<feColorMatrix type="matrix" values="0 0 0 0 0 0 0 0 0 0 0 0 0 0 0 0 0 0 0.25 0"/>
<feBlend mode="normal" in2="shape" result="effect1_innerShadow_54_729"/>
<feColorMatrix in="SourceAlpha" type="matrix" values="0 0 0 0 0 0 0 0 0 0 0 0 0 0 0 0 0 0 127 0" result="hardAlpha"/>
<feOffset dy="4"/>
<feComposite in2="hardAlpha" operator="arithmetic" k2="-1" k3="1"/>
<feColorMatrix type="matrix" values="0 0 0 0 0 0 0 0 0 0 0 0 0 0 0 0 0 0 0.25 0"/>
<feBlend mode="normal" in2="effect1_innerShadow_54_729" result="effect2_innerShadow_54_729"/>
</filter>
<filter id="filter12_iii_54_729" x="209.324" y="465.384" width="50.6421" height="74.6084" filterUnits="userSpaceOnUse" color-interpolation-filters="sRGB">
<feFlood flood-opacity="0" result="BackgroundImageFix"/>
<feBlend mode="normal" in="SourceGraphic" in2="BackgroundImageFix" result="shape"/>
<feColorMatrix in="SourceAlpha" type="matrix" values="0 0 0 0 0 0 0 0 0 0 0 0 0 0 0 0 0 0 127 0" result="hardAlpha"/>
<feOffset dx="2" dy="-6"/>
<feComposite in2="hardAlpha" operator="arithmetic" k2="-1" k3="1"/>
<feColorMatrix type="matrix" values="0 0 0 0 0.305882 0 0 0 0 0.423529 0 0 0 0 0.0392157 0 0 0 0.5 0"/>
<feBlend mode="normal" in2="shape" result="effect1_innerShadow_54_729"/>
<feColorMatrix in="SourceAlpha" type="matrix" values="0 0 0 0 0 0 0 0 0 0 0 0 0 0 0 0 0 0 127 0" result="hardAlpha"/>
<feOffset dy="-2"/>
<feComposite in2="hardAlpha" operator="arithmetic" k2="-1" k3="1"/>
<feColorMatrix type="matrix" values="0 0 0 0 0 0 0 0 0 0 0 0 0 0 0 0 0 0 0.25 0"/>
<feBlend mode="normal" in2="effect1_innerShadow_54_729" result="effect2_innerShadow_54_729"/>
<feColorMatrix in="SourceAlpha" type="matrix" values="0 0 0 0 0 0 0 0 0 0 0 0 0 0 0 0 0 0 127 0" result="hardAlpha"/>
<feOffset dy="4"/>
<feComposite in2="hardAlpha" operator="arithmetic" k2="-1" k3="1"/>
<feColorMatrix type="matrix" values="0 0 0 0 0 0 0 0 0 0 0 0 0 0 0 0 0 0 0.25 0"/>
<feBlend mode="normal" in2="effect2_innerShadow_54_729" result="effect3_innerShadow_54_729"/>
</filter>
<filter id="filter13_iii_54_729" x="234.39" y="275.973" width="46.7026" height="46.5273" filterUnits="userSpaceOnUse" color-interpolation-filters="sRGB">
<feFlood flood-opacity="0" result="BackgroundImageFix"/>
<feBlend mode="normal" in="SourceGraphic" in2="BackgroundImageFix" result="shape"/>
<feColorMatrix in="SourceAlpha" type="matrix" values="0 0 0 0 0 0 0 0 0 0 0 0 0 0 0 0 0 0 127 0" result="hardAlpha"/>
<feOffset dx="2" dy="-4"/>
<feComposite in2="hardAlpha" operator="arithmetic" k2="-1" k3="1"/>
<feColorMatrix type="matrix" values="0 0 0 0 0.305882 0 0 0 0 0.423529 0 0 0 0 0.0392157 0 0 0 0.5 0"/>
<feBlend mode="normal" in2="shape" result="effect1_innerShadow_54_729"/>
<feColorMatrix in="SourceAlpha" type="matrix" values="0 0 0 0 0 0 0 0 0 0 0 0 0 0 0 0 0 0 127 0" result="hardAlpha"/>
<feOffset dy="-2"/>
<feComposite in2="hardAlpha" operator="arithmetic" k2="-1" k3="1"/>
<feColorMatrix type="matrix" values="0 0 0 0 0 0 0 0 0 0 0 0 0 0 0 0 0 0 0.25 0"/>
<feBlend mode="normal" in2="effect1_innerShadow_54_729" result="effect2_innerShadow_54_729"/>
<feColorMatrix in="SourceAlpha" type="matrix" values="0 0 0 0 0 0 0 0 0 0 0 0 0 0 0 0 0 0 127 0" result="hardAlpha"/>
<feOffset dy="4"/>
<feComposite in2="hardAlpha" operator="arithmetic" k2="-1" k3="1"/>
<feColorMatrix type="matrix" values="0 0 0 0 0 0 0 0 0 0 0 0 0 0 0 0 0 0 0.25 0"/>
<feBlend mode="normal" in2="effect2_innerShadow_54_729" result="effect3_innerShadow_54_729"/>
</filter>
<filter id="filter14_iii_54_729" x="233.363" y="381.392" width="56.9541" height="70.1172" filterUnits="userSpaceOnUse" color-interpolation-filters="sRGB">
<feFlood flood-opacity="0" result="BackgroundImageFix"/>
<feBlend mode="normal" in="SourceGraphic" in2="BackgroundImageFix" result="shape"/>
<feColorMatrix in="SourceAlpha" type="matrix" values="0 0 0 0 0 0 0 0 0 0 0 0 0 0 0 0 0 0 127 0" result="hardAlpha"/>
<feOffset dx="2.69385" dy="-5.3877"/>
<feComposite in2="hardAlpha" operator="arithmetic" k2="-1" k3="1"/>
<feColorMatrix type="matrix" values="0 0 0 0 0.305882 0 0 0 0 0.423529 0 0 0 0 0.0392157 0 0 0 0.5 0"/>
<feBlend mode="normal" in2="shape" result="effect1_innerShadow_54_729"/>
<feColorMatrix in="SourceAlpha" type="matrix" values="0 0 0 0 0 0 0 0 0 0 0 0 0 0 0 0 0 0 127 0" result="hardAlpha"/>
<feOffset dy="-2.69385"/>
<feComposite in2="hardAlpha" operator="arithmetic" k2="-1" k3="1"/>
<feColorMatrix type="matrix" values="0 0 0 0 0 0 0 0 0 0 0 0 0 0 0 0 0 0 0.25 0"/>
<feBlend mode="normal" in2="effect1_innerShadow_54_729" result="effect2_innerShadow_54_729"/>
<feColorMatrix in="SourceAlpha" type="matrix" values="0 0 0 0 0 0 0 0 0 0 0 0 0 0 0 0 0 0 127 0" result="hardAlpha"/>
<feOffset dy="5.3877"/>
<feComposite in2="hardAlpha" operator="arithmetic" k2="-1" k3="1"/>
<feColorMatrix type="matrix" values="0 0 0 0 0 0 0 0 0 0 0 0 0 0 0 0 0 0 0.25 0"/>
<feBlend mode="normal" in2="effect2_innerShadow_54_729" result="effect3_innerShadow_54_729"/>
</filter>
<filter id="filter15_iii_54_729" x="211.689" y="72.1421" width="53.272" height="56.2803" filterUnits="userSpaceOnUse" color-interpolation-filters="sRGB">
<feFlood flood-opacity="0" result="BackgroundImageFix"/>
<feBlend mode="normal" in="SourceGraphic" in2="BackgroundImageFix" result="shape"/>
<feColorMatrix in="SourceAlpha" type="matrix" values="0 0 0 0 0 0 0 0 0 0 0 0 0 0 0 0 0 0 127 0" result="hardAlpha"/>
<feOffset dx="2" dy="-4"/>
<feComposite in2="hardAlpha" operator="arithmetic" k2="-1" k3="1"/>
<feColorMatrix type="matrix" values="0 0 0 0 0.305882 0 0 0 0 0.423529 0 0 0 0 0.0392157 0 0 0 0.5 0"/>
<feBlend mode="normal" in2="shape" result="effect1_innerShadow_54_729"/>
<feColorMatrix in="SourceAlpha" type="matrix" values="0 0 0 0 0 0 0 0 0 0 0 0 0 0 0 0 0 0 127 0" result="hardAlpha"/>
<feOffset dy="-2"/>
<feComposite in2="hardAlpha" operator="arithmetic" k2="-1" k3="1"/>
<feColorMatrix type="matrix" values="0 0 0 0 0 0 0 0 0 0 0 0 0 0 0 0 0 0 0.25 0"/>
<feBlend mode="normal" in2="effect1_innerShadow_54_729" result="effect2_innerShadow_54_729"/>
<feColorMatrix in="SourceAlpha" type="matrix" values="0 0 0 0 0 0 0 0 0 0 0 0 0 0 0 0 0 0 127 0" result="hardAlpha"/>
<feOffset dy="4"/>
<feComposite in2="hardAlpha" operator="arithmetic" k2="-1" k3="1"/>
<feColorMatrix type="matrix" values="0 0 0 0 0 0 0 0 0 0 0 0 0 0 0 0 0 0 0.25 0"/>
<feBlend mode="normal" in2="effect2_innerShadow_54_729" result="effect3_innerShadow_54_729"/>
</filter>
<filter id="filter16_iii_54_729" x="240.312" y="498.455" width="28.1191" height="64.5454" filterUnits="userSpaceOnUse" color-interpolation-filters="sRGB">
<feFlood flood-opacity="0" result="BackgroundImageFix"/>
<feBlend mode="normal" in="SourceGraphic" in2="BackgroundImageFix" result="shape"/>
<feColorMatrix in="SourceAlpha" type="matrix" values="0 0 0 0 0 0 0 0 0 0 0 0 0 0 0 0 0 0 127 0" result="hardAlpha"/>
<feOffset dx="2" dy="-6"/>
<feComposite in2="hardAlpha" operator="arithmetic" k2="-1" k3="1"/>
<feColorMatrix type="matrix" values="0 0 0 0 0.305882 0 0 0 0 0.423529 0 0 0 0 0.0392157 0 0 0 0.5 0"/>
<feBlend mode="normal" in2="shape" result="effect1_innerShadow_54_729"/>
<feColorMatrix in="SourceAlpha" type="matrix" values="0 0 0 0 0 0 0 0 0 0 0 0 0 0 0 0 0 0 127 0" result="hardAlpha"/>
<feOffset dy="-2"/>
<feComposite in2="hardAlpha" operator="arithmetic" k2="-1" k3="1"/>
<feColorMatrix type="matrix" values="0 0 0 0 0 0 0 0 0 0 0 0 0 0 0 0 0 0 0.25 0"/>
<feBlend mode="normal" in2="effect1_innerShadow_54_729" result="effect2_innerShadow_54_729"/>
<feColorMatrix in="SourceAlpha" type="matrix" values="0 0 0 0 0 0 0 0 0 0 0 0 0 0 0 0 0 0 127 0" result="hardAlpha"/>
<feOffset dy="4"/>
<feComposite in2="hardAlpha" operator="arithmetic" k2="-1" k3="1"/>
<feColorMatrix type="matrix" values="0 0 0 0 0 0 0 0 0 0 0 0 0 0 0 0 0 0 0.25 0"/>
<feBlend mode="normal" in2="effect2_innerShadow_54_729" result="effect3_innerShadow_54_729"/>
</filter>
</defs>
</svg>
